%TF.GenerationSoftware,KiCad,Pcbnew,(5.1.6)-1*%
%TF.CreationDate,2020-10-05T18:02:00+02:00*%
%TF.ProjectId,KOSMO Mega Drone,4b4f534d-4f20-44d6-9567-612044726f6e,rev?*%
%TF.SameCoordinates,Original*%
%TF.FileFunction,Soldermask,Top*%
%TF.FilePolarity,Negative*%
%FSLAX46Y46*%
G04 Gerber Fmt 4.6, Leading zero omitted, Abs format (unit mm)*
G04 Created by KiCad (PCBNEW (5.1.6)-1) date 2020-10-05 18:02:00*
%MOMM*%
%LPD*%
G01*
G04 APERTURE LIST*
%ADD10C,2.100000*%
%ADD11O,3.600000X1.624000*%
%ADD12R,1.900000X4.500000*%
%ADD13O,1.900000X4.100000*%
%ADD14O,4.100000X1.900000*%
%ADD15C,6.500000*%
%ADD16C,0.900000*%
%ADD17C,4.100000*%
%ADD18C,1.900000*%
%ADD19R,1.000000X0.900000*%
%ADD20O,1.800000X1.800000*%
%ADD21R,1.800000X1.800000*%
%ADD22R,0.550000X0.700000*%
%ADD23R,1.900000X1.900000*%
%ADD24C,1.700000*%
%ADD25R,1.700000X1.700000*%
G04 APERTURE END LIST*
D10*
%TO.C,J3*%
X138328400Y-113207800D03*
D11*
X138328400Y-108762800D03*
X138328400Y-100761800D03*
%TD*%
D10*
%TO.C,J1*%
X85496400Y-113207800D03*
D11*
X85496400Y-108762800D03*
X85496400Y-100761800D03*
%TD*%
D12*
%TO.C,J4*%
X71678800Y-103276400D03*
D13*
X65878800Y-103276400D03*
D14*
X68678800Y-98476400D03*
%TD*%
%TO.C,U1*%
G36*
G01*
X154888100Y-88960000D02*
X154888100Y-88610000D01*
G75*
G02*
X155063100Y-88435000I175000J0D01*
G01*
X156763100Y-88435000D01*
G75*
G02*
X156938100Y-88610000I0J-175000D01*
G01*
X156938100Y-88960000D01*
G75*
G02*
X156763100Y-89135000I-175000J0D01*
G01*
X155063100Y-89135000D01*
G75*
G02*
X154888100Y-88960000I0J175000D01*
G01*
G37*
G36*
G01*
X154888100Y-90230000D02*
X154888100Y-89880000D01*
G75*
G02*
X155063100Y-89705000I175000J0D01*
G01*
X156763100Y-89705000D01*
G75*
G02*
X156938100Y-89880000I0J-175000D01*
G01*
X156938100Y-90230000D01*
G75*
G02*
X156763100Y-90405000I-175000J0D01*
G01*
X155063100Y-90405000D01*
G75*
G02*
X154888100Y-90230000I0J175000D01*
G01*
G37*
G36*
G01*
X154888100Y-91500000D02*
X154888100Y-91150000D01*
G75*
G02*
X155063100Y-90975000I175000J0D01*
G01*
X156763100Y-90975000D01*
G75*
G02*
X156938100Y-91150000I0J-175000D01*
G01*
X156938100Y-91500000D01*
G75*
G02*
X156763100Y-91675000I-175000J0D01*
G01*
X155063100Y-91675000D01*
G75*
G02*
X154888100Y-91500000I0J175000D01*
G01*
G37*
G36*
G01*
X154888100Y-92770000D02*
X154888100Y-92420000D01*
G75*
G02*
X155063100Y-92245000I175000J0D01*
G01*
X156763100Y-92245000D01*
G75*
G02*
X156938100Y-92420000I0J-175000D01*
G01*
X156938100Y-92770000D01*
G75*
G02*
X156763100Y-92945000I-175000J0D01*
G01*
X155063100Y-92945000D01*
G75*
G02*
X154888100Y-92770000I0J175000D01*
G01*
G37*
G36*
G01*
X149938100Y-92770000D02*
X149938100Y-92420000D01*
G75*
G02*
X150113100Y-92245000I175000J0D01*
G01*
X151813100Y-92245000D01*
G75*
G02*
X151988100Y-92420000I0J-175000D01*
G01*
X151988100Y-92770000D01*
G75*
G02*
X151813100Y-92945000I-175000J0D01*
G01*
X150113100Y-92945000D01*
G75*
G02*
X149938100Y-92770000I0J175000D01*
G01*
G37*
G36*
G01*
X149938100Y-91500000D02*
X149938100Y-91150000D01*
G75*
G02*
X150113100Y-90975000I175000J0D01*
G01*
X151813100Y-90975000D01*
G75*
G02*
X151988100Y-91150000I0J-175000D01*
G01*
X151988100Y-91500000D01*
G75*
G02*
X151813100Y-91675000I-175000J0D01*
G01*
X150113100Y-91675000D01*
G75*
G02*
X149938100Y-91500000I0J175000D01*
G01*
G37*
G36*
G01*
X149938100Y-90230000D02*
X149938100Y-89880000D01*
G75*
G02*
X150113100Y-89705000I175000J0D01*
G01*
X151813100Y-89705000D01*
G75*
G02*
X151988100Y-89880000I0J-175000D01*
G01*
X151988100Y-90230000D01*
G75*
G02*
X151813100Y-90405000I-175000J0D01*
G01*
X150113100Y-90405000D01*
G75*
G02*
X149938100Y-90230000I0J175000D01*
G01*
G37*
G36*
G01*
X149938100Y-88960000D02*
X149938100Y-88610000D01*
G75*
G02*
X150113100Y-88435000I175000J0D01*
G01*
X151813100Y-88435000D01*
G75*
G02*
X151988100Y-88610000I0J-175000D01*
G01*
X151988100Y-88960000D01*
G75*
G02*
X151813100Y-89135000I-175000J0D01*
G01*
X150113100Y-89135000D01*
G75*
G02*
X149938100Y-88960000I0J175000D01*
G01*
G37*
%TD*%
D15*
%TO.C,REF\u002A\u002A*%
X64000000Y-113000000D03*
D16*
X66400000Y-113000000D03*
X65697056Y-114697056D03*
X64000000Y-115400000D03*
X62302944Y-114697056D03*
X61600000Y-113000000D03*
X62302944Y-111302944D03*
X64000000Y-110600000D03*
X65697056Y-111302944D03*
%TD*%
%TO.C,REF\u002A\u002A*%
X156697056Y-111302944D03*
X155000000Y-110600000D03*
X153302944Y-111302944D03*
X152600000Y-113000000D03*
X153302944Y-114697056D03*
X155000000Y-115400000D03*
X156697056Y-114697056D03*
X157400000Y-113000000D03*
D15*
X155000000Y-113000000D03*
%TD*%
%TO.C,REF\u002A\u002A*%
X155000000Y-22000000D03*
D16*
X157400000Y-22000000D03*
X156697056Y-23697056D03*
X155000000Y-24400000D03*
X153302944Y-23697056D03*
X152600000Y-22000000D03*
X153302944Y-20302944D03*
X155000000Y-19600000D03*
X156697056Y-20302944D03*
%TD*%
%TO.C,REF\u002A\u002A*%
X65697056Y-20302944D03*
X64000000Y-19600000D03*
X62302944Y-20302944D03*
X61600000Y-22000000D03*
X62302944Y-23697056D03*
X64000000Y-24400000D03*
X65697056Y-23697056D03*
X66400000Y-22000000D03*
D15*
X64000000Y-22000000D03*
%TD*%
D17*
%TO.C,RV24*%
X155925600Y-100670600D03*
X147125600Y-100670600D03*
D18*
X154025600Y-107670600D03*
X151525600Y-107670600D03*
X149025600Y-107670600D03*
%TD*%
D17*
%TO.C,RV23*%
X130068400Y-104683800D03*
X121268400Y-104683800D03*
D18*
X128168400Y-111683800D03*
X125668400Y-111683800D03*
X123168400Y-111683800D03*
%TD*%
D17*
%TO.C,RV22*%
X116250800Y-104683800D03*
X107450800Y-104683800D03*
D18*
X114350800Y-111683800D03*
X111850800Y-111683800D03*
X109350800Y-111683800D03*
%TD*%
D17*
%TO.C,RV21*%
X102433200Y-104683800D03*
X93633200Y-104683800D03*
D18*
X100533200Y-111683800D03*
X98033200Y-111683800D03*
X95533200Y-111683800D03*
%TD*%
D17*
%TO.C,RV20*%
X146197400Y-83647900D03*
X137397400Y-83647900D03*
D18*
X144297400Y-90647900D03*
X141797400Y-90647900D03*
X139297400Y-90647900D03*
%TD*%
D17*
%TO.C,RV19*%
X129033825Y-83317700D03*
X120233825Y-83317700D03*
D18*
X127133825Y-90317700D03*
X124633825Y-90317700D03*
X122133825Y-90317700D03*
%TD*%
D17*
%TO.C,RV18*%
X111870250Y-83216100D03*
X103070250Y-83216100D03*
D18*
X109970250Y-90216100D03*
X107470250Y-90216100D03*
X104970250Y-90216100D03*
%TD*%
D17*
%TO.C,RV17*%
X94706675Y-83419300D03*
X85906675Y-83419300D03*
D18*
X92806675Y-90419300D03*
X90306675Y-90419300D03*
X87806675Y-90419300D03*
%TD*%
D17*
%TO.C,RV16*%
X77543100Y-83419300D03*
X68743100Y-83419300D03*
D18*
X75643100Y-90419300D03*
X73143100Y-90419300D03*
X70643100Y-90419300D03*
%TD*%
D17*
%TO.C,RV15*%
X146324400Y-65664100D03*
X137524400Y-65664100D03*
D18*
X144424400Y-72664100D03*
X141924400Y-72664100D03*
X139424400Y-72664100D03*
%TD*%
D17*
%TO.C,RV14*%
X129160825Y-65664100D03*
X120360825Y-65664100D03*
D18*
X127260825Y-72664100D03*
X124760825Y-72664100D03*
X122260825Y-72664100D03*
%TD*%
D17*
%TO.C,RV13*%
X111997250Y-65664100D03*
X103197250Y-65664100D03*
D18*
X110097250Y-72664100D03*
X107597250Y-72664100D03*
X105097250Y-72664100D03*
%TD*%
D17*
%TO.C,RV12*%
X94833675Y-65664100D03*
X86033675Y-65664100D03*
D18*
X92933675Y-72664100D03*
X90433675Y-72664100D03*
X87933675Y-72664100D03*
%TD*%
D17*
%TO.C,RV11*%
X77670100Y-65664100D03*
X68870100Y-65664100D03*
D18*
X75770100Y-72664100D03*
X73270100Y-72664100D03*
X70770100Y-72664100D03*
%TD*%
D17*
%TO.C,RV10*%
X146324400Y-44272500D03*
X137524400Y-44272500D03*
D18*
X144424400Y-51272500D03*
X141924400Y-51272500D03*
X139424400Y-51272500D03*
%TD*%
D17*
%TO.C,RV9*%
X129160825Y-44272500D03*
X120360825Y-44272500D03*
D18*
X127260825Y-51272500D03*
X124760825Y-51272500D03*
X122260825Y-51272500D03*
%TD*%
D17*
%TO.C,RV8*%
X111997250Y-44272500D03*
X103197250Y-44272500D03*
D18*
X110097250Y-51272500D03*
X107597250Y-51272500D03*
X105097250Y-51272500D03*
%TD*%
D17*
%TO.C,RV7*%
X94833675Y-44272500D03*
X86033675Y-44272500D03*
D18*
X92933675Y-51272500D03*
X90433675Y-51272500D03*
X87933675Y-51272500D03*
%TD*%
D17*
%TO.C,RV6*%
X77670100Y-44272500D03*
X68870100Y-44272500D03*
D18*
X75770100Y-51272500D03*
X73270100Y-51272500D03*
X70770100Y-51272500D03*
%TD*%
D17*
%TO.C,RV5*%
X146324400Y-26528000D03*
X137524400Y-26528000D03*
D18*
X144424400Y-33528000D03*
X141924400Y-33528000D03*
X139424400Y-33528000D03*
%TD*%
D17*
%TO.C,RV4*%
X129160825Y-26528000D03*
X120360825Y-26528000D03*
D18*
X127260825Y-33528000D03*
X124760825Y-33528000D03*
X122260825Y-33528000D03*
%TD*%
D17*
%TO.C,RV3*%
X111997250Y-26528000D03*
X103197250Y-26528000D03*
D18*
X110097250Y-33528000D03*
X107597250Y-33528000D03*
X105097250Y-33528000D03*
%TD*%
D17*
%TO.C,RV2*%
X94833675Y-26528000D03*
X86033675Y-26528000D03*
D18*
X92933675Y-33528000D03*
X90433675Y-33528000D03*
X87933675Y-33528000D03*
%TD*%
D17*
%TO.C,RV1*%
X77670100Y-26528000D03*
X68870100Y-26528000D03*
D18*
X75770100Y-33528000D03*
X73270100Y-33528000D03*
X70770100Y-33528000D03*
%TD*%
%TO.C,R35*%
G36*
G01*
X145061250Y-104792500D02*
X144498750Y-104792500D01*
G75*
G02*
X144255000Y-104548750I0J243750D01*
G01*
X144255000Y-104061250D01*
G75*
G02*
X144498750Y-103817500I243750J0D01*
G01*
X145061250Y-103817500D01*
G75*
G02*
X145305000Y-104061250I0J-243750D01*
G01*
X145305000Y-104548750D01*
G75*
G02*
X145061250Y-104792500I-243750J0D01*
G01*
G37*
G36*
G01*
X145061250Y-106367500D02*
X144498750Y-106367500D01*
G75*
G02*
X144255000Y-106123750I0J243750D01*
G01*
X144255000Y-105636250D01*
G75*
G02*
X144498750Y-105392500I243750J0D01*
G01*
X145061250Y-105392500D01*
G75*
G02*
X145305000Y-105636250I0J-243750D01*
G01*
X145305000Y-106123750D01*
G75*
G02*
X145061250Y-106367500I-243750J0D01*
G01*
G37*
%TD*%
%TO.C,R34*%
G36*
G01*
X104551200Y-111402550D02*
X104551200Y-111965050D01*
G75*
G02*
X104307450Y-112208800I-243750J0D01*
G01*
X103819950Y-112208800D01*
G75*
G02*
X103576200Y-111965050I0J243750D01*
G01*
X103576200Y-111402550D01*
G75*
G02*
X103819950Y-111158800I243750J0D01*
G01*
X104307450Y-111158800D01*
G75*
G02*
X104551200Y-111402550I0J-243750D01*
G01*
G37*
G36*
G01*
X106126200Y-111402550D02*
X106126200Y-111965050D01*
G75*
G02*
X105882450Y-112208800I-243750J0D01*
G01*
X105394950Y-112208800D01*
G75*
G02*
X105151200Y-111965050I0J243750D01*
G01*
X105151200Y-111402550D01*
G75*
G02*
X105394950Y-111158800I243750J0D01*
G01*
X105882450Y-111158800D01*
G75*
G02*
X106126200Y-111402550I0J-243750D01*
G01*
G37*
%TD*%
%TO.C,R33*%
G36*
G01*
X149074450Y-90390700D02*
X148511950Y-90390700D01*
G75*
G02*
X148268200Y-90146950I0J243750D01*
G01*
X148268200Y-89659450D01*
G75*
G02*
X148511950Y-89415700I243750J0D01*
G01*
X149074450Y-89415700D01*
G75*
G02*
X149318200Y-89659450I0J-243750D01*
G01*
X149318200Y-90146950D01*
G75*
G02*
X149074450Y-90390700I-243750J0D01*
G01*
G37*
G36*
G01*
X149074450Y-91965700D02*
X148511950Y-91965700D01*
G75*
G02*
X148268200Y-91721950I0J243750D01*
G01*
X148268200Y-91234450D01*
G75*
G02*
X148511950Y-90990700I243750J0D01*
G01*
X149074450Y-90990700D01*
G75*
G02*
X149318200Y-91234450I0J-243750D01*
G01*
X149318200Y-91721950D01*
G75*
G02*
X149074450Y-91965700I-243750J0D01*
G01*
G37*
%TD*%
%TO.C,R32*%
G36*
G01*
X118356100Y-111402550D02*
X118356100Y-111965050D01*
G75*
G02*
X118112350Y-112208800I-243750J0D01*
G01*
X117624850Y-112208800D01*
G75*
G02*
X117381100Y-111965050I0J243750D01*
G01*
X117381100Y-111402550D01*
G75*
G02*
X117624850Y-111158800I243750J0D01*
G01*
X118112350Y-111158800D01*
G75*
G02*
X118356100Y-111402550I0J-243750D01*
G01*
G37*
G36*
G01*
X119931100Y-111402550D02*
X119931100Y-111965050D01*
G75*
G02*
X119687350Y-112208800I-243750J0D01*
G01*
X119199850Y-112208800D01*
G75*
G02*
X118956100Y-111965050I0J243750D01*
G01*
X118956100Y-111402550D01*
G75*
G02*
X119199850Y-111158800I243750J0D01*
G01*
X119687350Y-111158800D01*
G75*
G02*
X119931100Y-111402550I0J-243750D01*
G01*
G37*
%TD*%
%TO.C,R31*%
G36*
G01*
X108272200Y-113536150D02*
X108272200Y-114098650D01*
G75*
G02*
X108028450Y-114342400I-243750J0D01*
G01*
X107540950Y-114342400D01*
G75*
G02*
X107297200Y-114098650I0J243750D01*
G01*
X107297200Y-113536150D01*
G75*
G02*
X107540950Y-113292400I243750J0D01*
G01*
X108028450Y-113292400D01*
G75*
G02*
X108272200Y-113536150I0J-243750D01*
G01*
G37*
G36*
G01*
X109847200Y-113536150D02*
X109847200Y-114098650D01*
G75*
G02*
X109603450Y-114342400I-243750J0D01*
G01*
X109115950Y-114342400D01*
G75*
G02*
X108872200Y-114098650I0J243750D01*
G01*
X108872200Y-113536150D01*
G75*
G02*
X109115950Y-113292400I243750J0D01*
G01*
X109603450Y-113292400D01*
G75*
G02*
X109847200Y-113536150I0J-243750D01*
G01*
G37*
%TD*%
%TO.C,R30*%
G36*
G01*
X142870200Y-92991250D02*
X142870200Y-92428750D01*
G75*
G02*
X143113950Y-92185000I243750J0D01*
G01*
X143601450Y-92185000D01*
G75*
G02*
X143845200Y-92428750I0J-243750D01*
G01*
X143845200Y-92991250D01*
G75*
G02*
X143601450Y-93235000I-243750J0D01*
G01*
X143113950Y-93235000D01*
G75*
G02*
X142870200Y-92991250I0J243750D01*
G01*
G37*
G36*
G01*
X141295200Y-92991250D02*
X141295200Y-92428750D01*
G75*
G02*
X141538950Y-92185000I243750J0D01*
G01*
X142026450Y-92185000D01*
G75*
G02*
X142270200Y-92428750I0J-243750D01*
G01*
X142270200Y-92991250D01*
G75*
G02*
X142026450Y-93235000I-243750J0D01*
G01*
X141538950Y-93235000D01*
G75*
G02*
X141295200Y-92991250I0J243750D01*
G01*
G37*
%TD*%
%TO.C,R29*%
G36*
G01*
X125725200Y-92991250D02*
X125725200Y-92428750D01*
G75*
G02*
X125968950Y-92185000I243750J0D01*
G01*
X126456450Y-92185000D01*
G75*
G02*
X126700200Y-92428750I0J-243750D01*
G01*
X126700200Y-92991250D01*
G75*
G02*
X126456450Y-93235000I-243750J0D01*
G01*
X125968950Y-93235000D01*
G75*
G02*
X125725200Y-92991250I0J243750D01*
G01*
G37*
G36*
G01*
X124150200Y-92991250D02*
X124150200Y-92428750D01*
G75*
G02*
X124393950Y-92185000I243750J0D01*
G01*
X124881450Y-92185000D01*
G75*
G02*
X125125200Y-92428750I0J-243750D01*
G01*
X125125200Y-92991250D01*
G75*
G02*
X124881450Y-93235000I-243750J0D01*
G01*
X124393950Y-93235000D01*
G75*
G02*
X124150200Y-92991250I0J243750D01*
G01*
G37*
%TD*%
%TO.C,R28*%
G36*
G01*
X108554800Y-92991250D02*
X108554800Y-92428750D01*
G75*
G02*
X108798550Y-92185000I243750J0D01*
G01*
X109286050Y-92185000D01*
G75*
G02*
X109529800Y-92428750I0J-243750D01*
G01*
X109529800Y-92991250D01*
G75*
G02*
X109286050Y-93235000I-243750J0D01*
G01*
X108798550Y-93235000D01*
G75*
G02*
X108554800Y-92991250I0J243750D01*
G01*
G37*
G36*
G01*
X106979800Y-92991250D02*
X106979800Y-92428750D01*
G75*
G02*
X107223550Y-92185000I243750J0D01*
G01*
X107711050Y-92185000D01*
G75*
G02*
X107954800Y-92428750I0J-243750D01*
G01*
X107954800Y-92991250D01*
G75*
G02*
X107711050Y-93235000I-243750J0D01*
G01*
X107223550Y-93235000D01*
G75*
G02*
X106979800Y-92991250I0J243750D01*
G01*
G37*
%TD*%
%TO.C,R27*%
G36*
G01*
X91384400Y-92991250D02*
X91384400Y-92428750D01*
G75*
G02*
X91628150Y-92185000I243750J0D01*
G01*
X92115650Y-92185000D01*
G75*
G02*
X92359400Y-92428750I0J-243750D01*
G01*
X92359400Y-92991250D01*
G75*
G02*
X92115650Y-93235000I-243750J0D01*
G01*
X91628150Y-93235000D01*
G75*
G02*
X91384400Y-92991250I0J243750D01*
G01*
G37*
G36*
G01*
X89809400Y-92991250D02*
X89809400Y-92428750D01*
G75*
G02*
X90053150Y-92185000I243750J0D01*
G01*
X90540650Y-92185000D01*
G75*
G02*
X90784400Y-92428750I0J-243750D01*
G01*
X90784400Y-92991250D01*
G75*
G02*
X90540650Y-93235000I-243750J0D01*
G01*
X90053150Y-93235000D01*
G75*
G02*
X89809400Y-92991250I0J243750D01*
G01*
G37*
%TD*%
%TO.C,R26*%
G36*
G01*
X74214000Y-92991250D02*
X74214000Y-92428750D01*
G75*
G02*
X74457750Y-92185000I243750J0D01*
G01*
X74945250Y-92185000D01*
G75*
G02*
X75189000Y-92428750I0J-243750D01*
G01*
X75189000Y-92991250D01*
G75*
G02*
X74945250Y-93235000I-243750J0D01*
G01*
X74457750Y-93235000D01*
G75*
G02*
X74214000Y-92991250I0J243750D01*
G01*
G37*
G36*
G01*
X72639000Y-92991250D02*
X72639000Y-92428750D01*
G75*
G02*
X72882750Y-92185000I243750J0D01*
G01*
X73370250Y-92185000D01*
G75*
G02*
X73614000Y-92428750I0J-243750D01*
G01*
X73614000Y-92991250D01*
G75*
G02*
X73370250Y-93235000I-243750J0D01*
G01*
X72882750Y-93235000D01*
G75*
G02*
X72639000Y-92991250I0J243750D01*
G01*
G37*
%TD*%
%TO.C,R25*%
G36*
G01*
X140822300Y-74648750D02*
X140822300Y-75211250D01*
G75*
G02*
X140578550Y-75455000I-243750J0D01*
G01*
X140091050Y-75455000D01*
G75*
G02*
X139847300Y-75211250I0J243750D01*
G01*
X139847300Y-74648750D01*
G75*
G02*
X140091050Y-74405000I243750J0D01*
G01*
X140578550Y-74405000D01*
G75*
G02*
X140822300Y-74648750I0J-243750D01*
G01*
G37*
G36*
G01*
X142397300Y-74648750D02*
X142397300Y-75211250D01*
G75*
G02*
X142153550Y-75455000I-243750J0D01*
G01*
X141666050Y-75455000D01*
G75*
G02*
X141422300Y-75211250I0J243750D01*
G01*
X141422300Y-74648750D01*
G75*
G02*
X141666050Y-74405000I243750J0D01*
G01*
X142153550Y-74405000D01*
G75*
G02*
X142397300Y-74648750I0J-243750D01*
G01*
G37*
%TD*%
%TO.C,R24*%
G36*
G01*
X123677300Y-74648750D02*
X123677300Y-75211250D01*
G75*
G02*
X123433550Y-75455000I-243750J0D01*
G01*
X122946050Y-75455000D01*
G75*
G02*
X122702300Y-75211250I0J243750D01*
G01*
X122702300Y-74648750D01*
G75*
G02*
X122946050Y-74405000I243750J0D01*
G01*
X123433550Y-74405000D01*
G75*
G02*
X123677300Y-74648750I0J-243750D01*
G01*
G37*
G36*
G01*
X125252300Y-74648750D02*
X125252300Y-75211250D01*
G75*
G02*
X125008550Y-75455000I-243750J0D01*
G01*
X124521050Y-75455000D01*
G75*
G02*
X124277300Y-75211250I0J243750D01*
G01*
X124277300Y-74648750D01*
G75*
G02*
X124521050Y-74405000I243750J0D01*
G01*
X125008550Y-74405000D01*
G75*
G02*
X125252300Y-74648750I0J-243750D01*
G01*
G37*
%TD*%
%TO.C,R23*%
G36*
G01*
X106506900Y-74648750D02*
X106506900Y-75211250D01*
G75*
G02*
X106263150Y-75455000I-243750J0D01*
G01*
X105775650Y-75455000D01*
G75*
G02*
X105531900Y-75211250I0J243750D01*
G01*
X105531900Y-74648750D01*
G75*
G02*
X105775650Y-74405000I243750J0D01*
G01*
X106263150Y-74405000D01*
G75*
G02*
X106506900Y-74648750I0J-243750D01*
G01*
G37*
G36*
G01*
X108081900Y-74648750D02*
X108081900Y-75211250D01*
G75*
G02*
X107838150Y-75455000I-243750J0D01*
G01*
X107350650Y-75455000D01*
G75*
G02*
X107106900Y-75211250I0J243750D01*
G01*
X107106900Y-74648750D01*
G75*
G02*
X107350650Y-74405000I243750J0D01*
G01*
X107838150Y-74405000D01*
G75*
G02*
X108081900Y-74648750I0J-243750D01*
G01*
G37*
%TD*%
%TO.C,R22*%
G36*
G01*
X89356000Y-74648750D02*
X89356000Y-75211250D01*
G75*
G02*
X89112250Y-75455000I-243750J0D01*
G01*
X88624750Y-75455000D01*
G75*
G02*
X88381000Y-75211250I0J243750D01*
G01*
X88381000Y-74648750D01*
G75*
G02*
X88624750Y-74405000I243750J0D01*
G01*
X89112250Y-74405000D01*
G75*
G02*
X89356000Y-74648750I0J-243750D01*
G01*
G37*
G36*
G01*
X90931000Y-74648750D02*
X90931000Y-75211250D01*
G75*
G02*
X90687250Y-75455000I-243750J0D01*
G01*
X90199750Y-75455000D01*
G75*
G02*
X89956000Y-75211250I0J243750D01*
G01*
X89956000Y-74648750D01*
G75*
G02*
X90199750Y-74405000I243750J0D01*
G01*
X90687250Y-74405000D01*
G75*
G02*
X90931000Y-74648750I0J-243750D01*
G01*
G37*
%TD*%
%TO.C,R21*%
G36*
G01*
X72191500Y-74648750D02*
X72191500Y-75211250D01*
G75*
G02*
X71947750Y-75455000I-243750J0D01*
G01*
X71460250Y-75455000D01*
G75*
G02*
X71216500Y-75211250I0J243750D01*
G01*
X71216500Y-74648750D01*
G75*
G02*
X71460250Y-74405000I243750J0D01*
G01*
X71947750Y-74405000D01*
G75*
G02*
X72191500Y-74648750I0J-243750D01*
G01*
G37*
G36*
G01*
X73766500Y-74648750D02*
X73766500Y-75211250D01*
G75*
G02*
X73522750Y-75455000I-243750J0D01*
G01*
X73035250Y-75455000D01*
G75*
G02*
X72791500Y-75211250I0J243750D01*
G01*
X72791500Y-74648750D01*
G75*
G02*
X73035250Y-74405000I243750J0D01*
G01*
X73522750Y-74405000D01*
G75*
G02*
X73766500Y-74648750I0J-243750D01*
G01*
G37*
%TD*%
%TO.C,R20*%
G36*
G01*
X144911900Y-74648750D02*
X144911900Y-75211250D01*
G75*
G02*
X144668150Y-75455000I-243750J0D01*
G01*
X144180650Y-75455000D01*
G75*
G02*
X143936900Y-75211250I0J243750D01*
G01*
X143936900Y-74648750D01*
G75*
G02*
X144180650Y-74405000I243750J0D01*
G01*
X144668150Y-74405000D01*
G75*
G02*
X144911900Y-74648750I0J-243750D01*
G01*
G37*
G36*
G01*
X146486900Y-74648750D02*
X146486900Y-75211250D01*
G75*
G02*
X146243150Y-75455000I-243750J0D01*
G01*
X145755650Y-75455000D01*
G75*
G02*
X145511900Y-75211250I0J243750D01*
G01*
X145511900Y-74648750D01*
G75*
G02*
X145755650Y-74405000I243750J0D01*
G01*
X146243150Y-74405000D01*
G75*
G02*
X146486900Y-74648750I0J-243750D01*
G01*
G37*
%TD*%
%TO.C,R19*%
G36*
G01*
X127741500Y-74648750D02*
X127741500Y-75211250D01*
G75*
G02*
X127497750Y-75455000I-243750J0D01*
G01*
X127010250Y-75455000D01*
G75*
G02*
X126766500Y-75211250I0J243750D01*
G01*
X126766500Y-74648750D01*
G75*
G02*
X127010250Y-74405000I243750J0D01*
G01*
X127497750Y-74405000D01*
G75*
G02*
X127741500Y-74648750I0J-243750D01*
G01*
G37*
G36*
G01*
X129316500Y-74648750D02*
X129316500Y-75211250D01*
G75*
G02*
X129072750Y-75455000I-243750J0D01*
G01*
X128585250Y-75455000D01*
G75*
G02*
X128341500Y-75211250I0J243750D01*
G01*
X128341500Y-74648750D01*
G75*
G02*
X128585250Y-74405000I243750J0D01*
G01*
X129072750Y-74405000D01*
G75*
G02*
X129316500Y-74648750I0J-243750D01*
G01*
G37*
%TD*%
%TO.C,R18*%
G36*
G01*
X110596500Y-74648750D02*
X110596500Y-75211250D01*
G75*
G02*
X110352750Y-75455000I-243750J0D01*
G01*
X109865250Y-75455000D01*
G75*
G02*
X109621500Y-75211250I0J243750D01*
G01*
X109621500Y-74648750D01*
G75*
G02*
X109865250Y-74405000I243750J0D01*
G01*
X110352750Y-74405000D01*
G75*
G02*
X110596500Y-74648750I0J-243750D01*
G01*
G37*
G36*
G01*
X112171500Y-74648750D02*
X112171500Y-75211250D01*
G75*
G02*
X111927750Y-75455000I-243750J0D01*
G01*
X111440250Y-75455000D01*
G75*
G02*
X111196500Y-75211250I0J243750D01*
G01*
X111196500Y-74648750D01*
G75*
G02*
X111440250Y-74405000I243750J0D01*
G01*
X111927750Y-74405000D01*
G75*
G02*
X112171500Y-74648750I0J-243750D01*
G01*
G37*
%TD*%
%TO.C,R17*%
G36*
G01*
X93426100Y-74648750D02*
X93426100Y-75211250D01*
G75*
G02*
X93182350Y-75455000I-243750J0D01*
G01*
X92694850Y-75455000D01*
G75*
G02*
X92451100Y-75211250I0J243750D01*
G01*
X92451100Y-74648750D01*
G75*
G02*
X92694850Y-74405000I243750J0D01*
G01*
X93182350Y-74405000D01*
G75*
G02*
X93426100Y-74648750I0J-243750D01*
G01*
G37*
G36*
G01*
X95001100Y-74648750D02*
X95001100Y-75211250D01*
G75*
G02*
X94757350Y-75455000I-243750J0D01*
G01*
X94269850Y-75455000D01*
G75*
G02*
X94026100Y-75211250I0J243750D01*
G01*
X94026100Y-74648750D01*
G75*
G02*
X94269850Y-74405000I243750J0D01*
G01*
X94757350Y-74405000D01*
G75*
G02*
X95001100Y-74648750I0J-243750D01*
G01*
G37*
%TD*%
%TO.C,R16*%
G36*
G01*
X76255700Y-74648750D02*
X76255700Y-75211250D01*
G75*
G02*
X76011950Y-75455000I-243750J0D01*
G01*
X75524450Y-75455000D01*
G75*
G02*
X75280700Y-75211250I0J243750D01*
G01*
X75280700Y-74648750D01*
G75*
G02*
X75524450Y-74405000I243750J0D01*
G01*
X76011950Y-74405000D01*
G75*
G02*
X76255700Y-74648750I0J-243750D01*
G01*
G37*
G36*
G01*
X77830700Y-74648750D02*
X77830700Y-75211250D01*
G75*
G02*
X77586950Y-75455000I-243750J0D01*
G01*
X77099450Y-75455000D01*
G75*
G02*
X76855700Y-75211250I0J243750D01*
G01*
X76855700Y-74648750D01*
G75*
G02*
X77099450Y-74405000I243750J0D01*
G01*
X77586950Y-74405000D01*
G75*
G02*
X77830700Y-74648750I0J-243750D01*
G01*
G37*
%TD*%
%TO.C,R15*%
G36*
G01*
X143022600Y-53824450D02*
X143022600Y-53261950D01*
G75*
G02*
X143266350Y-53018200I243750J0D01*
G01*
X143753850Y-53018200D01*
G75*
G02*
X143997600Y-53261950I0J-243750D01*
G01*
X143997600Y-53824450D01*
G75*
G02*
X143753850Y-54068200I-243750J0D01*
G01*
X143266350Y-54068200D01*
G75*
G02*
X143022600Y-53824450I0J243750D01*
G01*
G37*
G36*
G01*
X141447600Y-53824450D02*
X141447600Y-53261950D01*
G75*
G02*
X141691350Y-53018200I243750J0D01*
G01*
X142178850Y-53018200D01*
G75*
G02*
X142422600Y-53261950I0J-243750D01*
G01*
X142422600Y-53824450D01*
G75*
G02*
X142178850Y-54068200I-243750J0D01*
G01*
X141691350Y-54068200D01*
G75*
G02*
X141447600Y-53824450I0J243750D01*
G01*
G37*
%TD*%
%TO.C,R14*%
G36*
G01*
X125852200Y-53824450D02*
X125852200Y-53261950D01*
G75*
G02*
X126095950Y-53018200I243750J0D01*
G01*
X126583450Y-53018200D01*
G75*
G02*
X126827200Y-53261950I0J-243750D01*
G01*
X126827200Y-53824450D01*
G75*
G02*
X126583450Y-54068200I-243750J0D01*
G01*
X126095950Y-54068200D01*
G75*
G02*
X125852200Y-53824450I0J243750D01*
G01*
G37*
G36*
G01*
X124277200Y-53824450D02*
X124277200Y-53261950D01*
G75*
G02*
X124520950Y-53018200I243750J0D01*
G01*
X125008450Y-53018200D01*
G75*
G02*
X125252200Y-53261950I0J-243750D01*
G01*
X125252200Y-53824450D01*
G75*
G02*
X125008450Y-54068200I-243750J0D01*
G01*
X124520950Y-54068200D01*
G75*
G02*
X124277200Y-53824450I0J243750D01*
G01*
G37*
%TD*%
%TO.C,R13*%
G36*
G01*
X108681800Y-53824450D02*
X108681800Y-53261950D01*
G75*
G02*
X108925550Y-53018200I243750J0D01*
G01*
X109413050Y-53018200D01*
G75*
G02*
X109656800Y-53261950I0J-243750D01*
G01*
X109656800Y-53824450D01*
G75*
G02*
X109413050Y-54068200I-243750J0D01*
G01*
X108925550Y-54068200D01*
G75*
G02*
X108681800Y-53824450I0J243750D01*
G01*
G37*
G36*
G01*
X107106800Y-53824450D02*
X107106800Y-53261950D01*
G75*
G02*
X107350550Y-53018200I243750J0D01*
G01*
X107838050Y-53018200D01*
G75*
G02*
X108081800Y-53261950I0J-243750D01*
G01*
X108081800Y-53824450D01*
G75*
G02*
X107838050Y-54068200I-243750J0D01*
G01*
X107350550Y-54068200D01*
G75*
G02*
X107106800Y-53824450I0J243750D01*
G01*
G37*
%TD*%
%TO.C,R12*%
G36*
G01*
X91511400Y-53824450D02*
X91511400Y-53261950D01*
G75*
G02*
X91755150Y-53018200I243750J0D01*
G01*
X92242650Y-53018200D01*
G75*
G02*
X92486400Y-53261950I0J-243750D01*
G01*
X92486400Y-53824450D01*
G75*
G02*
X92242650Y-54068200I-243750J0D01*
G01*
X91755150Y-54068200D01*
G75*
G02*
X91511400Y-53824450I0J243750D01*
G01*
G37*
G36*
G01*
X89936400Y-53824450D02*
X89936400Y-53261950D01*
G75*
G02*
X90180150Y-53018200I243750J0D01*
G01*
X90667650Y-53018200D01*
G75*
G02*
X90911400Y-53261950I0J-243750D01*
G01*
X90911400Y-53824450D01*
G75*
G02*
X90667650Y-54068200I-243750J0D01*
G01*
X90180150Y-54068200D01*
G75*
G02*
X89936400Y-53824450I0J243750D01*
G01*
G37*
%TD*%
%TO.C,R11*%
G36*
G01*
X74366500Y-53824450D02*
X74366500Y-53261950D01*
G75*
G02*
X74610250Y-53018200I243750J0D01*
G01*
X75097750Y-53018200D01*
G75*
G02*
X75341500Y-53261950I0J-243750D01*
G01*
X75341500Y-53824450D01*
G75*
G02*
X75097750Y-54068200I-243750J0D01*
G01*
X74610250Y-54068200D01*
G75*
G02*
X74366500Y-53824450I0J243750D01*
G01*
G37*
G36*
G01*
X72791500Y-53824450D02*
X72791500Y-53261950D01*
G75*
G02*
X73035250Y-53018200I243750J0D01*
G01*
X73522750Y-53018200D01*
G75*
G02*
X73766500Y-53261950I0J-243750D01*
G01*
X73766500Y-53824450D01*
G75*
G02*
X73522750Y-54068200I-243750J0D01*
G01*
X73035250Y-54068200D01*
G75*
G02*
X72791500Y-53824450I0J243750D01*
G01*
G37*
%TD*%
%TO.C,R10*%
G36*
G01*
X140847800Y-35431150D02*
X140847800Y-35993650D01*
G75*
G02*
X140604050Y-36237400I-243750J0D01*
G01*
X140116550Y-36237400D01*
G75*
G02*
X139872800Y-35993650I0J243750D01*
G01*
X139872800Y-35431150D01*
G75*
G02*
X140116550Y-35187400I243750J0D01*
G01*
X140604050Y-35187400D01*
G75*
G02*
X140847800Y-35431150I0J-243750D01*
G01*
G37*
G36*
G01*
X142422800Y-35431150D02*
X142422800Y-35993650D01*
G75*
G02*
X142179050Y-36237400I-243750J0D01*
G01*
X141691550Y-36237400D01*
G75*
G02*
X141447800Y-35993650I0J243750D01*
G01*
X141447800Y-35431150D01*
G75*
G02*
X141691550Y-35187400I243750J0D01*
G01*
X142179050Y-35187400D01*
G75*
G02*
X142422800Y-35431150I0J-243750D01*
G01*
G37*
%TD*%
%TO.C,R9*%
G36*
G01*
X123652000Y-35431150D02*
X123652000Y-35993650D01*
G75*
G02*
X123408250Y-36237400I-243750J0D01*
G01*
X122920750Y-36237400D01*
G75*
G02*
X122677000Y-35993650I0J243750D01*
G01*
X122677000Y-35431150D01*
G75*
G02*
X122920750Y-35187400I243750J0D01*
G01*
X123408250Y-35187400D01*
G75*
G02*
X123652000Y-35431150I0J-243750D01*
G01*
G37*
G36*
G01*
X125227000Y-35431150D02*
X125227000Y-35993650D01*
G75*
G02*
X124983250Y-36237400I-243750J0D01*
G01*
X124495750Y-36237400D01*
G75*
G02*
X124252000Y-35993650I0J243750D01*
G01*
X124252000Y-35431150D01*
G75*
G02*
X124495750Y-35187400I243750J0D01*
G01*
X124983250Y-35187400D01*
G75*
G02*
X125227000Y-35431150I0J-243750D01*
G01*
G37*
%TD*%
%TO.C,R8*%
G36*
G01*
X106532400Y-35431150D02*
X106532400Y-35993650D01*
G75*
G02*
X106288650Y-36237400I-243750J0D01*
G01*
X105801150Y-36237400D01*
G75*
G02*
X105557400Y-35993650I0J243750D01*
G01*
X105557400Y-35431150D01*
G75*
G02*
X105801150Y-35187400I243750J0D01*
G01*
X106288650Y-35187400D01*
G75*
G02*
X106532400Y-35431150I0J-243750D01*
G01*
G37*
G36*
G01*
X108107400Y-35431150D02*
X108107400Y-35993650D01*
G75*
G02*
X107863650Y-36237400I-243750J0D01*
G01*
X107376150Y-36237400D01*
G75*
G02*
X107132400Y-35993650I0J243750D01*
G01*
X107132400Y-35431150D01*
G75*
G02*
X107376150Y-35187400I243750J0D01*
G01*
X107863650Y-35187400D01*
G75*
G02*
X108107400Y-35431150I0J-243750D01*
G01*
G37*
%TD*%
%TO.C,R7*%
G36*
G01*
X89349300Y-35431150D02*
X89349300Y-35993650D01*
G75*
G02*
X89105550Y-36237400I-243750J0D01*
G01*
X88618050Y-36237400D01*
G75*
G02*
X88374300Y-35993650I0J243750D01*
G01*
X88374300Y-35431150D01*
G75*
G02*
X88618050Y-35187400I243750J0D01*
G01*
X89105550Y-35187400D01*
G75*
G02*
X89349300Y-35431150I0J-243750D01*
G01*
G37*
G36*
G01*
X90924300Y-35431150D02*
X90924300Y-35993650D01*
G75*
G02*
X90680550Y-36237400I-243750J0D01*
G01*
X90193050Y-36237400D01*
G75*
G02*
X89949300Y-35993650I0J243750D01*
G01*
X89949300Y-35431150D01*
G75*
G02*
X90193050Y-35187400I243750J0D01*
G01*
X90680550Y-35187400D01*
G75*
G02*
X90924300Y-35431150I0J-243750D01*
G01*
G37*
%TD*%
%TO.C,R6*%
G36*
G01*
X72178800Y-35431150D02*
X72178800Y-35993650D01*
G75*
G02*
X71935050Y-36237400I-243750J0D01*
G01*
X71447550Y-36237400D01*
G75*
G02*
X71203800Y-35993650I0J243750D01*
G01*
X71203800Y-35431150D01*
G75*
G02*
X71447550Y-35187400I243750J0D01*
G01*
X71935050Y-35187400D01*
G75*
G02*
X72178800Y-35431150I0J-243750D01*
G01*
G37*
G36*
G01*
X73753800Y-35431150D02*
X73753800Y-35993650D01*
G75*
G02*
X73510050Y-36237400I-243750J0D01*
G01*
X73022550Y-36237400D01*
G75*
G02*
X72778800Y-35993650I0J243750D01*
G01*
X72778800Y-35431150D01*
G75*
G02*
X73022550Y-35187400I243750J0D01*
G01*
X73510050Y-35187400D01*
G75*
G02*
X73753800Y-35431150I0J-243750D01*
G01*
G37*
%TD*%
%TO.C,R5*%
G36*
G01*
X144911800Y-35431150D02*
X144911800Y-35993650D01*
G75*
G02*
X144668050Y-36237400I-243750J0D01*
G01*
X144180550Y-36237400D01*
G75*
G02*
X143936800Y-35993650I0J243750D01*
G01*
X143936800Y-35431150D01*
G75*
G02*
X144180550Y-35187400I243750J0D01*
G01*
X144668050Y-35187400D01*
G75*
G02*
X144911800Y-35431150I0J-243750D01*
G01*
G37*
G36*
G01*
X146486800Y-35431150D02*
X146486800Y-35993650D01*
G75*
G02*
X146243050Y-36237400I-243750J0D01*
G01*
X145755550Y-36237400D01*
G75*
G02*
X145511800Y-35993650I0J243750D01*
G01*
X145511800Y-35431150D01*
G75*
G02*
X145755550Y-35187400I243750J0D01*
G01*
X146243050Y-35187400D01*
G75*
G02*
X146486800Y-35431150I0J-243750D01*
G01*
G37*
%TD*%
%TO.C,R4*%
G36*
G01*
X127741400Y-35431150D02*
X127741400Y-35993650D01*
G75*
G02*
X127497650Y-36237400I-243750J0D01*
G01*
X127010150Y-36237400D01*
G75*
G02*
X126766400Y-35993650I0J243750D01*
G01*
X126766400Y-35431150D01*
G75*
G02*
X127010150Y-35187400I243750J0D01*
G01*
X127497650Y-35187400D01*
G75*
G02*
X127741400Y-35431150I0J-243750D01*
G01*
G37*
G36*
G01*
X129316400Y-35431150D02*
X129316400Y-35993650D01*
G75*
G02*
X129072650Y-36237400I-243750J0D01*
G01*
X128585150Y-36237400D01*
G75*
G02*
X128341400Y-35993650I0J243750D01*
G01*
X128341400Y-35431150D01*
G75*
G02*
X128585150Y-35187400I243750J0D01*
G01*
X129072650Y-35187400D01*
G75*
G02*
X129316400Y-35431150I0J-243750D01*
G01*
G37*
%TD*%
%TO.C,R3*%
G36*
G01*
X110596400Y-35431150D02*
X110596400Y-35993650D01*
G75*
G02*
X110352650Y-36237400I-243750J0D01*
G01*
X109865150Y-36237400D01*
G75*
G02*
X109621400Y-35993650I0J243750D01*
G01*
X109621400Y-35431150D01*
G75*
G02*
X109865150Y-35187400I243750J0D01*
G01*
X110352650Y-35187400D01*
G75*
G02*
X110596400Y-35431150I0J-243750D01*
G01*
G37*
G36*
G01*
X112171400Y-35431150D02*
X112171400Y-35993650D01*
G75*
G02*
X111927650Y-36237400I-243750J0D01*
G01*
X111440150Y-36237400D01*
G75*
G02*
X111196400Y-35993650I0J243750D01*
G01*
X111196400Y-35431150D01*
G75*
G02*
X111440150Y-35187400I243750J0D01*
G01*
X111927650Y-35187400D01*
G75*
G02*
X112171400Y-35431150I0J-243750D01*
G01*
G37*
%TD*%
%TO.C,R2*%
G36*
G01*
X93424200Y-35431150D02*
X93424200Y-35993650D01*
G75*
G02*
X93180450Y-36237400I-243750J0D01*
G01*
X92692950Y-36237400D01*
G75*
G02*
X92449200Y-35993650I0J243750D01*
G01*
X92449200Y-35431150D01*
G75*
G02*
X92692950Y-35187400I243750J0D01*
G01*
X93180450Y-35187400D01*
G75*
G02*
X93424200Y-35431150I0J-243750D01*
G01*
G37*
G36*
G01*
X94999200Y-35431150D02*
X94999200Y-35993650D01*
G75*
G02*
X94755450Y-36237400I-243750J0D01*
G01*
X94267950Y-36237400D01*
G75*
G02*
X94024200Y-35993650I0J243750D01*
G01*
X94024200Y-35431150D01*
G75*
G02*
X94267950Y-35187400I243750J0D01*
G01*
X94755450Y-35187400D01*
G75*
G02*
X94999200Y-35431150I0J-243750D01*
G01*
G37*
%TD*%
%TO.C,R1*%
G36*
G01*
X76255700Y-35431150D02*
X76255700Y-35993650D01*
G75*
G02*
X76011950Y-36237400I-243750J0D01*
G01*
X75524450Y-36237400D01*
G75*
G02*
X75280700Y-35993650I0J243750D01*
G01*
X75280700Y-35431150D01*
G75*
G02*
X75524450Y-35187400I243750J0D01*
G01*
X76011950Y-35187400D01*
G75*
G02*
X76255700Y-35431150I0J-243750D01*
G01*
G37*
G36*
G01*
X77830700Y-35431150D02*
X77830700Y-35993650D01*
G75*
G02*
X77586950Y-36237400I-243750J0D01*
G01*
X77099450Y-36237400D01*
G75*
G02*
X76855700Y-35993650I0J243750D01*
G01*
X76855700Y-35431150D01*
G75*
G02*
X77099450Y-35187400I243750J0D01*
G01*
X77586950Y-35187400D01*
G75*
G02*
X77830700Y-35431150I0J-243750D01*
G01*
G37*
%TD*%
D19*
%TO.C,Q20*%
X133086600Y-94107000D03*
X135086600Y-93157000D03*
X135086600Y-95057000D03*
%TD*%
%TO.C,Q19*%
X115941600Y-94107000D03*
X117941600Y-93157000D03*
X117941600Y-95057000D03*
%TD*%
%TO.C,Q18*%
X98745800Y-94107000D03*
X100745800Y-93157000D03*
X100745800Y-95057000D03*
%TD*%
%TO.C,Q17*%
X81575400Y-94107000D03*
X83575400Y-93157000D03*
X83575400Y-95057000D03*
%TD*%
%TO.C,Q16*%
X64836800Y-94107000D03*
X66836800Y-93157000D03*
X66836800Y-95057000D03*
%TD*%
%TO.C,Q15*%
X133366000Y-75234800D03*
X135366000Y-74284800D03*
X135366000Y-76184800D03*
%TD*%
%TO.C,Q14*%
X116271800Y-75234800D03*
X118271800Y-74284800D03*
X118271800Y-76184800D03*
%TD*%
%TO.C,Q13*%
X99025200Y-75234800D03*
X101025200Y-74284800D03*
X101025200Y-76184800D03*
%TD*%
%TO.C,Q12*%
X81905600Y-75234800D03*
X83905600Y-74284800D03*
X83905600Y-76184800D03*
%TD*%
%TO.C,Q11*%
X64862200Y-75234800D03*
X66862200Y-74284800D03*
X66862200Y-76184800D03*
%TD*%
%TO.C,Q10*%
X133061200Y-54851300D03*
X135061200Y-53901300D03*
X135061200Y-55801300D03*
%TD*%
%TO.C,Q9*%
X115916200Y-54851300D03*
X117916200Y-53901300D03*
X117916200Y-55801300D03*
%TD*%
%TO.C,Q8*%
X98720400Y-54851300D03*
X100720400Y-53901300D03*
X100720400Y-55801300D03*
%TD*%
%TO.C,Q7*%
X81550000Y-54851300D03*
X83550000Y-53901300D03*
X83550000Y-55801300D03*
%TD*%
%TO.C,Q6*%
X64811400Y-54851300D03*
X66811400Y-53901300D03*
X66811400Y-55801300D03*
%TD*%
%TO.C,Q5*%
X133366000Y-36372800D03*
X135366000Y-35422800D03*
X135366000Y-37322800D03*
%TD*%
%TO.C,Q4*%
X116271800Y-36372800D03*
X118271800Y-35422800D03*
X118271800Y-37322800D03*
%TD*%
%TO.C,Q3*%
X99025200Y-36372800D03*
X101025200Y-35422800D03*
X101025200Y-37322800D03*
%TD*%
%TO.C,Q2*%
X81905600Y-36372800D03*
X83905600Y-35422800D03*
X83905600Y-37322800D03*
%TD*%
%TO.C,Q1*%
X64862200Y-36372800D03*
X66862200Y-35422800D03*
X66862200Y-37322800D03*
%TD*%
D20*
%TO.C,J2*%
X70840000Y-111887000D03*
X70840000Y-114427000D03*
X73380000Y-111887000D03*
X73380000Y-114427000D03*
X75920000Y-111887000D03*
X75920000Y-114427000D03*
X78460000Y-111887000D03*
X78460000Y-114427000D03*
X81000000Y-111887000D03*
D21*
X81000000Y-114427000D03*
%TD*%
D22*
%TO.C,D20*%
X145313400Y-92701400D03*
X145313400Y-94801400D03*
%TD*%
%TO.C,D19*%
X128117600Y-92701400D03*
X128117600Y-94801400D03*
%TD*%
%TO.C,D18*%
X110972600Y-92701400D03*
X110972600Y-94801400D03*
%TD*%
%TO.C,D17*%
X93878400Y-92701400D03*
X93878400Y-94801400D03*
%TD*%
%TO.C,D16*%
X76657200Y-92701400D03*
X76657200Y-94801400D03*
%TD*%
D18*
%TO.C,D15*%
X134645400Y-89458800D03*
D23*
X132105400Y-89458800D03*
%TD*%
D18*
%TO.C,D14*%
X117475000Y-89458800D03*
D23*
X114935000Y-89458800D03*
%TD*%
D18*
%TO.C,D13*%
X100304600Y-89458800D03*
D23*
X97764600Y-89458800D03*
%TD*%
D18*
%TO.C,D12*%
X83134200Y-89458800D03*
D23*
X80594200Y-89458800D03*
%TD*%
D18*
%TO.C,D11*%
X66433700Y-89458800D03*
D23*
X63893700Y-89458800D03*
%TD*%
D22*
%TO.C,D10*%
X145694400Y-53547300D03*
X145694400Y-55647300D03*
%TD*%
%TO.C,D9*%
X128117600Y-53534600D03*
X128117600Y-55634600D03*
%TD*%
%TO.C,D8*%
X110972600Y-53547300D03*
X110972600Y-55647300D03*
%TD*%
%TO.C,D7*%
X93827600Y-53547300D03*
X93827600Y-55647300D03*
%TD*%
%TO.C,D6*%
X76822300Y-53547300D03*
X76822300Y-55647300D03*
%TD*%
D18*
%TO.C,D5*%
X134620000Y-50241200D03*
D23*
X132080000Y-50241200D03*
%TD*%
D18*
%TO.C,D4*%
X117449600Y-50253900D03*
D23*
X114909600Y-50253900D03*
%TD*%
D18*
%TO.C,D3*%
X100279200Y-50253900D03*
D23*
X97739200Y-50253900D03*
%TD*%
D18*
%TO.C,D2*%
X83108800Y-50253900D03*
D23*
X80568800Y-50253900D03*
%TD*%
D18*
%TO.C,D1*%
X66408300Y-50253900D03*
D23*
X63868300Y-50253900D03*
%TD*%
D24*
%TO.C,C14*%
X152211400Y-85140800D03*
D25*
X154711400Y-85140800D03*
%TD*%
%TO.C,C13*%
G36*
G01*
X148534400Y-110072750D02*
X148534400Y-109510250D01*
G75*
G02*
X148778150Y-109266500I243750J0D01*
G01*
X149265650Y-109266500D01*
G75*
G02*
X149509400Y-109510250I0J-243750D01*
G01*
X149509400Y-110072750D01*
G75*
G02*
X149265650Y-110316500I-243750J0D01*
G01*
X148778150Y-110316500D01*
G75*
G02*
X148534400Y-110072750I0J243750D01*
G01*
G37*
G36*
G01*
X146959400Y-110072750D02*
X146959400Y-109510250D01*
G75*
G02*
X147203150Y-109266500I243750J0D01*
G01*
X147690650Y-109266500D01*
G75*
G02*
X147934400Y-109510250I0J-243750D01*
G01*
X147934400Y-110072750D01*
G75*
G02*
X147690650Y-110316500I-243750J0D01*
G01*
X147203150Y-110316500D01*
G75*
G02*
X146959400Y-110072750I0J243750D01*
G01*
G37*
%TD*%
D24*
%TO.C,C12*%
X77279500Y-104446700D03*
D25*
X77279500Y-106946700D03*
%TD*%
%TO.C,C11*%
G36*
G01*
X74763050Y-105532300D02*
X75325550Y-105532300D01*
G75*
G02*
X75569300Y-105776050I0J-243750D01*
G01*
X75569300Y-106263550D01*
G75*
G02*
X75325550Y-106507300I-243750J0D01*
G01*
X74763050Y-106507300D01*
G75*
G02*
X74519300Y-106263550I0J243750D01*
G01*
X74519300Y-105776050D01*
G75*
G02*
X74763050Y-105532300I243750J0D01*
G01*
G37*
G36*
G01*
X74763050Y-103957300D02*
X75325550Y-103957300D01*
G75*
G02*
X75569300Y-104201050I0J-243750D01*
G01*
X75569300Y-104688550D01*
G75*
G02*
X75325550Y-104932300I-243750J0D01*
G01*
X74763050Y-104932300D01*
G75*
G02*
X74519300Y-104688550I0J243750D01*
G01*
X74519300Y-104201050D01*
G75*
G02*
X74763050Y-103957300I243750J0D01*
G01*
G37*
%TD*%
%TO.C,C10*%
G36*
G01*
X132720400Y-84037000D02*
X134030400Y-84037000D01*
G75*
G02*
X134300400Y-84307000I0J-270000D01*
G01*
X134300400Y-85117000D01*
G75*
G02*
X134030400Y-85387000I-270000J0D01*
G01*
X132720400Y-85387000D01*
G75*
G02*
X132450400Y-85117000I0J270000D01*
G01*
X132450400Y-84307000D01*
G75*
G02*
X132720400Y-84037000I270000J0D01*
G01*
G37*
G36*
G01*
X132720400Y-81237000D02*
X134030400Y-81237000D01*
G75*
G02*
X134300400Y-81507000I0J-270000D01*
G01*
X134300400Y-82317000D01*
G75*
G02*
X134030400Y-82587000I-270000J0D01*
G01*
X132720400Y-82587000D01*
G75*
G02*
X132450400Y-82317000I0J270000D01*
G01*
X132450400Y-81507000D01*
G75*
G02*
X132720400Y-81237000I270000J0D01*
G01*
G37*
%TD*%
%TO.C,C9*%
G36*
G01*
X115600800Y-84037000D02*
X116910800Y-84037000D01*
G75*
G02*
X117180800Y-84307000I0J-270000D01*
G01*
X117180800Y-85117000D01*
G75*
G02*
X116910800Y-85387000I-270000J0D01*
G01*
X115600800Y-85387000D01*
G75*
G02*
X115330800Y-85117000I0J270000D01*
G01*
X115330800Y-84307000D01*
G75*
G02*
X115600800Y-84037000I270000J0D01*
G01*
G37*
G36*
G01*
X115600800Y-81237000D02*
X116910800Y-81237000D01*
G75*
G02*
X117180800Y-81507000I0J-270000D01*
G01*
X117180800Y-82317000D01*
G75*
G02*
X116910800Y-82587000I-270000J0D01*
G01*
X115600800Y-82587000D01*
G75*
G02*
X115330800Y-82317000I0J270000D01*
G01*
X115330800Y-81507000D01*
G75*
G02*
X115600800Y-81237000I270000J0D01*
G01*
G37*
%TD*%
%TO.C,C8*%
G36*
G01*
X98354200Y-84037000D02*
X99664200Y-84037000D01*
G75*
G02*
X99934200Y-84307000I0J-270000D01*
G01*
X99934200Y-85117000D01*
G75*
G02*
X99664200Y-85387000I-270000J0D01*
G01*
X98354200Y-85387000D01*
G75*
G02*
X98084200Y-85117000I0J270000D01*
G01*
X98084200Y-84307000D01*
G75*
G02*
X98354200Y-84037000I270000J0D01*
G01*
G37*
G36*
G01*
X98354200Y-81237000D02*
X99664200Y-81237000D01*
G75*
G02*
X99934200Y-81507000I0J-270000D01*
G01*
X99934200Y-82317000D01*
G75*
G02*
X99664200Y-82587000I-270000J0D01*
G01*
X98354200Y-82587000D01*
G75*
G02*
X98084200Y-82317000I0J270000D01*
G01*
X98084200Y-81507000D01*
G75*
G02*
X98354200Y-81237000I270000J0D01*
G01*
G37*
%TD*%
%TO.C,C7*%
G36*
G01*
X81234600Y-84037000D02*
X82544600Y-84037000D01*
G75*
G02*
X82814600Y-84307000I0J-270000D01*
G01*
X82814600Y-85117000D01*
G75*
G02*
X82544600Y-85387000I-270000J0D01*
G01*
X81234600Y-85387000D01*
G75*
G02*
X80964600Y-85117000I0J270000D01*
G01*
X80964600Y-84307000D01*
G75*
G02*
X81234600Y-84037000I270000J0D01*
G01*
G37*
G36*
G01*
X81234600Y-81237000D02*
X82544600Y-81237000D01*
G75*
G02*
X82814600Y-81507000I0J-270000D01*
G01*
X82814600Y-82317000D01*
G75*
G02*
X82544600Y-82587000I-270000J0D01*
G01*
X81234600Y-82587000D01*
G75*
G02*
X80964600Y-82317000I0J270000D01*
G01*
X80964600Y-81507000D01*
G75*
G02*
X81234600Y-81237000I270000J0D01*
G01*
G37*
%TD*%
%TO.C,C6*%
G36*
G01*
X64229300Y-84037000D02*
X65539300Y-84037000D01*
G75*
G02*
X65809300Y-84307000I0J-270000D01*
G01*
X65809300Y-85117000D01*
G75*
G02*
X65539300Y-85387000I-270000J0D01*
G01*
X64229300Y-85387000D01*
G75*
G02*
X63959300Y-85117000I0J270000D01*
G01*
X63959300Y-84307000D01*
G75*
G02*
X64229300Y-84037000I270000J0D01*
G01*
G37*
G36*
G01*
X64229300Y-81237000D02*
X65539300Y-81237000D01*
G75*
G02*
X65809300Y-81507000I0J-270000D01*
G01*
X65809300Y-82317000D01*
G75*
G02*
X65539300Y-82587000I-270000J0D01*
G01*
X64229300Y-82587000D01*
G75*
G02*
X63959300Y-82317000I0J270000D01*
G01*
X63959300Y-81507000D01*
G75*
G02*
X64229300Y-81237000I270000J0D01*
G01*
G37*
%TD*%
%TO.C,C5*%
G36*
G01*
X132720400Y-44946400D02*
X134030400Y-44946400D01*
G75*
G02*
X134300400Y-45216400I0J-270000D01*
G01*
X134300400Y-46026400D01*
G75*
G02*
X134030400Y-46296400I-270000J0D01*
G01*
X132720400Y-46296400D01*
G75*
G02*
X132450400Y-46026400I0J270000D01*
G01*
X132450400Y-45216400D01*
G75*
G02*
X132720400Y-44946400I270000J0D01*
G01*
G37*
G36*
G01*
X132720400Y-42146400D02*
X134030400Y-42146400D01*
G75*
G02*
X134300400Y-42416400I0J-270000D01*
G01*
X134300400Y-43226400D01*
G75*
G02*
X134030400Y-43496400I-270000J0D01*
G01*
X132720400Y-43496400D01*
G75*
G02*
X132450400Y-43226400I0J270000D01*
G01*
X132450400Y-42416400D01*
G75*
G02*
X132720400Y-42146400I270000J0D01*
G01*
G37*
%TD*%
%TO.C,C4*%
G36*
G01*
X115600800Y-44946400D02*
X116910800Y-44946400D01*
G75*
G02*
X117180800Y-45216400I0J-270000D01*
G01*
X117180800Y-46026400D01*
G75*
G02*
X116910800Y-46296400I-270000J0D01*
G01*
X115600800Y-46296400D01*
G75*
G02*
X115330800Y-46026400I0J270000D01*
G01*
X115330800Y-45216400D01*
G75*
G02*
X115600800Y-44946400I270000J0D01*
G01*
G37*
G36*
G01*
X115600800Y-42146400D02*
X116910800Y-42146400D01*
G75*
G02*
X117180800Y-42416400I0J-270000D01*
G01*
X117180800Y-43226400D01*
G75*
G02*
X116910800Y-43496400I-270000J0D01*
G01*
X115600800Y-43496400D01*
G75*
G02*
X115330800Y-43226400I0J270000D01*
G01*
X115330800Y-42416400D01*
G75*
G02*
X115600800Y-42146400I270000J0D01*
G01*
G37*
%TD*%
%TO.C,C3*%
G36*
G01*
X98354200Y-44946400D02*
X99664200Y-44946400D01*
G75*
G02*
X99934200Y-45216400I0J-270000D01*
G01*
X99934200Y-46026400D01*
G75*
G02*
X99664200Y-46296400I-270000J0D01*
G01*
X98354200Y-46296400D01*
G75*
G02*
X98084200Y-46026400I0J270000D01*
G01*
X98084200Y-45216400D01*
G75*
G02*
X98354200Y-44946400I270000J0D01*
G01*
G37*
G36*
G01*
X98354200Y-42146400D02*
X99664200Y-42146400D01*
G75*
G02*
X99934200Y-42416400I0J-270000D01*
G01*
X99934200Y-43226400D01*
G75*
G02*
X99664200Y-43496400I-270000J0D01*
G01*
X98354200Y-43496400D01*
G75*
G02*
X98084200Y-43226400I0J270000D01*
G01*
X98084200Y-42416400D01*
G75*
G02*
X98354200Y-42146400I270000J0D01*
G01*
G37*
%TD*%
%TO.C,C2*%
G36*
G01*
X81234600Y-44946400D02*
X82544600Y-44946400D01*
G75*
G02*
X82814600Y-45216400I0J-270000D01*
G01*
X82814600Y-46026400D01*
G75*
G02*
X82544600Y-46296400I-270000J0D01*
G01*
X81234600Y-46296400D01*
G75*
G02*
X80964600Y-46026400I0J270000D01*
G01*
X80964600Y-45216400D01*
G75*
G02*
X81234600Y-44946400I270000J0D01*
G01*
G37*
G36*
G01*
X81234600Y-42146400D02*
X82544600Y-42146400D01*
G75*
G02*
X82814600Y-42416400I0J-270000D01*
G01*
X82814600Y-43226400D01*
G75*
G02*
X82544600Y-43496400I-270000J0D01*
G01*
X81234600Y-43496400D01*
G75*
G02*
X80964600Y-43226400I0J270000D01*
G01*
X80964600Y-42416400D01*
G75*
G02*
X81234600Y-42146400I270000J0D01*
G01*
G37*
%TD*%
%TO.C,C1*%
G36*
G01*
X64229300Y-44946400D02*
X65539300Y-44946400D01*
G75*
G02*
X65809300Y-45216400I0J-270000D01*
G01*
X65809300Y-46026400D01*
G75*
G02*
X65539300Y-46296400I-270000J0D01*
G01*
X64229300Y-46296400D01*
G75*
G02*
X63959300Y-46026400I0J270000D01*
G01*
X63959300Y-45216400D01*
G75*
G02*
X64229300Y-44946400I270000J0D01*
G01*
G37*
G36*
G01*
X64229300Y-42146400D02*
X65539300Y-42146400D01*
G75*
G02*
X65809300Y-42416400I0J-270000D01*
G01*
X65809300Y-43226400D01*
G75*
G02*
X65539300Y-43496400I-270000J0D01*
G01*
X64229300Y-43496400D01*
G75*
G02*
X63959300Y-43226400I0J270000D01*
G01*
X63959300Y-42416400D01*
G75*
G02*
X64229300Y-42146400I270000J0D01*
G01*
G37*
%TD*%
M02*
