M48
; DRILL file {KiCad (5.1.6)-1} date 10/05/20 18:02:02
; FORMAT={-:-/ absolute / metric / decimal}
; #@! TF.CreationDate,2020-10-05T18:02:02+02:00
; #@! TF.GenerationSoftware,Kicad,Pcbnew,(5.1.6)-1
; #@! TF.FileFunction,NonPlated,1,2,NPTH
FMAT,2
METRIC
T1C2.000
%
G90
G05
T1
X147.126Y-100.671
X155.926Y-100.671
X137.397Y-83.648
X146.197Y-83.648
X68.743Y-83.419
X77.543Y-83.419
X103.197Y-26.528
X111.997Y-26.528
X120.234Y-83.318
X129.034Y-83.318
X137.524Y-44.273
X146.324Y-44.273
X103.07Y-83.216
X111.87Y-83.216
X107.451Y-104.684
X116.251Y-104.684
X120.361Y-44.273
X129.161Y-44.273
X120.361Y-26.528
X129.161Y-26.528
X86.034Y-65.664
X94.834Y-65.664
X103.197Y-65.664
X111.997Y-65.664
X103.197Y-44.273
X111.997Y-44.273
X93.633Y-104.684
X102.433Y-104.684
X86.034Y-44.273
X94.834Y-44.273
X68.87Y-65.664
X77.67Y-65.664
X85.907Y-83.419
X94.707Y-83.419
X137.524Y-65.664
X146.324Y-65.664
X68.87Y-44.273
X77.67Y-44.273
X86.034Y-26.528
X94.834Y-26.528
X120.361Y-65.664
X129.161Y-65.664
X121.268Y-104.684
X130.068Y-104.684
X137.524Y-26.528
X146.324Y-26.528
X68.87Y-26.528
X77.67Y-26.528
T0
M30
