%TF.GenerationSoftware,KiCad,Pcbnew,(5.1.6)-1*%
%TF.CreationDate,2020-10-05T18:02:00+02:00*%
%TF.ProjectId,KOSMO Mega Drone,4b4f534d-4f20-44d6-9567-612044726f6e,rev?*%
%TF.SameCoordinates,Original*%
%TF.FileFunction,Legend,Bot*%
%TF.FilePolarity,Positive*%
%FSLAX46Y46*%
G04 Gerber Fmt 4.6, Leading zero omitted, Abs format (unit mm)*
G04 Created by KiCad (PCBNEW (5.1.6)-1) date 2020-10-05 18:02:00*
%MOMM*%
%LPD*%
G01*
G04 APERTURE LIST*
%ADD10C,0.150000*%
%ADD11C,0.120000*%
G04 APERTURE END LIST*
D10*
X68051419Y-113942714D02*
X69051419Y-113942714D01*
X68051419Y-113371285D01*
X69051419Y-113371285D01*
X68146657Y-112323666D02*
X68099038Y-112371285D01*
X68051419Y-112514142D01*
X68051419Y-112609380D01*
X68099038Y-112752238D01*
X68194276Y-112847476D01*
X68289514Y-112895095D01*
X68479990Y-112942714D01*
X68622847Y-112942714D01*
X68813323Y-112895095D01*
X68908561Y-112847476D01*
X69003800Y-112752238D01*
X69051419Y-112609380D01*
X69051419Y-112514142D01*
X69003800Y-112371285D01*
X68956180Y-112323666D01*
X83316771Y-114918904D02*
X83316771Y-114157000D01*
X82935819Y-114537952D02*
X83697723Y-114537952D01*
X82935819Y-113157000D02*
X82935819Y-113728428D01*
X82935819Y-113442714D02*
X83935819Y-113442714D01*
X83792961Y-113537952D01*
X83697723Y-113633190D01*
X83650104Y-113728428D01*
X83840580Y-112776047D02*
X83888200Y-112728428D01*
X83935819Y-112633190D01*
X83935819Y-112395095D01*
X83888200Y-112299857D01*
X83840580Y-112252238D01*
X83745342Y-112204619D01*
X83650104Y-112204619D01*
X83507247Y-112252238D01*
X82935819Y-112823666D01*
X82935819Y-112204619D01*
X83935819Y-111918904D02*
X82935819Y-111585571D01*
X83935819Y-111252238D01*
D11*
%TO.C,J4*%
X72678800Y-107876400D02*
X72678800Y-105776400D01*
X72678800Y-98676400D02*
X70878800Y-98676400D01*
X72678800Y-100776400D02*
X72678800Y-98676400D01*
X60807600Y-107873800D02*
X72678800Y-107876400D01*
X66478800Y-98676400D02*
X60807600Y-98679000D01*
%TO.C,J2*%
X69510000Y-115757000D02*
X69510000Y-110557000D01*
X79730000Y-115757000D02*
X69510000Y-115757000D01*
X82330000Y-110557000D02*
X69510000Y-110557000D01*
X79730000Y-115757000D02*
X79730000Y-113157000D01*
X79730000Y-113157000D02*
X82330000Y-113157000D01*
X82330000Y-113157000D02*
X82330000Y-110557000D01*
X81000000Y-115757000D02*
X82330000Y-115757000D01*
X82330000Y-115757000D02*
X82330000Y-114427000D01*
%TO.C,C14*%
X156081400Y-85140800D02*
G75*
G03*
X156081400Y-85140800I-2620000J0D01*
G01*
X153461400Y-82560800D02*
X153461400Y-87720800D01*
X153421400Y-82560800D02*
X153421400Y-87720800D01*
X153381400Y-82561800D02*
X153381400Y-87719800D01*
X153341400Y-82562800D02*
X153341400Y-87718800D01*
X153301400Y-82564800D02*
X153301400Y-87716800D01*
X153261400Y-82567800D02*
X153261400Y-87713800D01*
X153221400Y-82571800D02*
X153221400Y-84100800D01*
X153221400Y-86180800D02*
X153221400Y-87709800D01*
X153181400Y-82575800D02*
X153181400Y-84100800D01*
X153181400Y-86180800D02*
X153181400Y-87705800D01*
X153141400Y-82579800D02*
X153141400Y-84100800D01*
X153141400Y-86180800D02*
X153141400Y-87701800D01*
X153101400Y-82584800D02*
X153101400Y-84100800D01*
X153101400Y-86180800D02*
X153101400Y-87696800D01*
X153061400Y-82590800D02*
X153061400Y-84100800D01*
X153061400Y-86180800D02*
X153061400Y-87690800D01*
X153021400Y-82597800D02*
X153021400Y-84100800D01*
X153021400Y-86180800D02*
X153021400Y-87683800D01*
X152981400Y-82604800D02*
X152981400Y-84100800D01*
X152981400Y-86180800D02*
X152981400Y-87676800D01*
X152941400Y-82612800D02*
X152941400Y-84100800D01*
X152941400Y-86180800D02*
X152941400Y-87668800D01*
X152901400Y-82620800D02*
X152901400Y-84100800D01*
X152901400Y-86180800D02*
X152901400Y-87660800D01*
X152861400Y-82629800D02*
X152861400Y-84100800D01*
X152861400Y-86180800D02*
X152861400Y-87651800D01*
X152821400Y-82639800D02*
X152821400Y-84100800D01*
X152821400Y-86180800D02*
X152821400Y-87641800D01*
X152781400Y-82649800D02*
X152781400Y-84100800D01*
X152781400Y-86180800D02*
X152781400Y-87631800D01*
X152740400Y-82660800D02*
X152740400Y-84100800D01*
X152740400Y-86180800D02*
X152740400Y-87620800D01*
X152700400Y-82672800D02*
X152700400Y-84100800D01*
X152700400Y-86180800D02*
X152700400Y-87608800D01*
X152660400Y-82685800D02*
X152660400Y-84100800D01*
X152660400Y-86180800D02*
X152660400Y-87595800D01*
X152620400Y-82698800D02*
X152620400Y-84100800D01*
X152620400Y-86180800D02*
X152620400Y-87582800D01*
X152580400Y-82712800D02*
X152580400Y-84100800D01*
X152580400Y-86180800D02*
X152580400Y-87568800D01*
X152540400Y-82726800D02*
X152540400Y-84100800D01*
X152540400Y-86180800D02*
X152540400Y-87554800D01*
X152500400Y-82742800D02*
X152500400Y-84100800D01*
X152500400Y-86180800D02*
X152500400Y-87538800D01*
X152460400Y-82758800D02*
X152460400Y-84100800D01*
X152460400Y-86180800D02*
X152460400Y-87522800D01*
X152420400Y-82775800D02*
X152420400Y-84100800D01*
X152420400Y-86180800D02*
X152420400Y-87505800D01*
X152380400Y-82792800D02*
X152380400Y-84100800D01*
X152380400Y-86180800D02*
X152380400Y-87488800D01*
X152340400Y-82811800D02*
X152340400Y-84100800D01*
X152340400Y-86180800D02*
X152340400Y-87469800D01*
X152300400Y-82830800D02*
X152300400Y-84100800D01*
X152300400Y-86180800D02*
X152300400Y-87450800D01*
X152260400Y-82850800D02*
X152260400Y-84100800D01*
X152260400Y-86180800D02*
X152260400Y-87430800D01*
X152220400Y-82872800D02*
X152220400Y-84100800D01*
X152220400Y-86180800D02*
X152220400Y-87408800D01*
X152180400Y-82893800D02*
X152180400Y-84100800D01*
X152180400Y-86180800D02*
X152180400Y-87387800D01*
X152140400Y-82916800D02*
X152140400Y-84100800D01*
X152140400Y-86180800D02*
X152140400Y-87364800D01*
X152100400Y-82940800D02*
X152100400Y-84100800D01*
X152100400Y-86180800D02*
X152100400Y-87340800D01*
X152060400Y-82965800D02*
X152060400Y-84100800D01*
X152060400Y-86180800D02*
X152060400Y-87315800D01*
X152020400Y-82991800D02*
X152020400Y-84100800D01*
X152020400Y-86180800D02*
X152020400Y-87289800D01*
X151980400Y-83018800D02*
X151980400Y-84100800D01*
X151980400Y-86180800D02*
X151980400Y-87262800D01*
X151940400Y-83045800D02*
X151940400Y-84100800D01*
X151940400Y-86180800D02*
X151940400Y-87235800D01*
X151900400Y-83075800D02*
X151900400Y-84100800D01*
X151900400Y-86180800D02*
X151900400Y-87205800D01*
X151860400Y-83105800D02*
X151860400Y-84100800D01*
X151860400Y-86180800D02*
X151860400Y-87175800D01*
X151820400Y-83136800D02*
X151820400Y-84100800D01*
X151820400Y-86180800D02*
X151820400Y-87144800D01*
X151780400Y-83169800D02*
X151780400Y-84100800D01*
X151780400Y-86180800D02*
X151780400Y-87111800D01*
X151740400Y-83203800D02*
X151740400Y-84100800D01*
X151740400Y-86180800D02*
X151740400Y-87077800D01*
X151700400Y-83239800D02*
X151700400Y-84100800D01*
X151700400Y-86180800D02*
X151700400Y-87041800D01*
X151660400Y-83276800D02*
X151660400Y-84100800D01*
X151660400Y-86180800D02*
X151660400Y-87004800D01*
X151620400Y-83314800D02*
X151620400Y-84100800D01*
X151620400Y-86180800D02*
X151620400Y-86966800D01*
X151580400Y-83355800D02*
X151580400Y-84100800D01*
X151580400Y-86180800D02*
X151580400Y-86925800D01*
X151540400Y-83397800D02*
X151540400Y-84100800D01*
X151540400Y-86180800D02*
X151540400Y-86883800D01*
X151500400Y-83441800D02*
X151500400Y-84100800D01*
X151500400Y-86180800D02*
X151500400Y-86839800D01*
X151460400Y-83487800D02*
X151460400Y-84100800D01*
X151460400Y-86180800D02*
X151460400Y-86793800D01*
X151420400Y-83535800D02*
X151420400Y-84100800D01*
X151420400Y-86180800D02*
X151420400Y-86745800D01*
X151380400Y-83586800D02*
X151380400Y-84100800D01*
X151380400Y-86180800D02*
X151380400Y-86694800D01*
X151340400Y-83640800D02*
X151340400Y-84100800D01*
X151340400Y-86180800D02*
X151340400Y-86640800D01*
X151300400Y-83697800D02*
X151300400Y-84100800D01*
X151300400Y-86180800D02*
X151300400Y-86583800D01*
X151260400Y-83757800D02*
X151260400Y-84100800D01*
X151260400Y-86180800D02*
X151260400Y-86523800D01*
X151220400Y-83821800D02*
X151220400Y-84100800D01*
X151220400Y-86180800D02*
X151220400Y-86459800D01*
X151180400Y-83889800D02*
X151180400Y-84100800D01*
X151180400Y-86180800D02*
X151180400Y-86391800D01*
X151140400Y-83962800D02*
X151140400Y-86318800D01*
X151100400Y-84042800D02*
X151100400Y-86238800D01*
X151060400Y-84129800D02*
X151060400Y-86151800D01*
X151020400Y-84225800D02*
X151020400Y-86055800D01*
X150980400Y-84335800D02*
X150980400Y-85945800D01*
X150940400Y-84463800D02*
X150940400Y-85817800D01*
X150900400Y-84622800D02*
X150900400Y-85658800D01*
X150860400Y-84856800D02*
X150860400Y-85424800D01*
X156266175Y-83665800D02*
X155766175Y-83665800D01*
X156016175Y-83415800D02*
X156016175Y-83915800D01*
%TO.C,C12*%
X79899500Y-105696700D02*
G75*
G03*
X79899500Y-105696700I-2620000J0D01*
G01*
X79859500Y-105696700D02*
X74699500Y-105696700D01*
X79859500Y-105656700D02*
X74699500Y-105656700D01*
X79858500Y-105616700D02*
X74700500Y-105616700D01*
X79857500Y-105576700D02*
X74701500Y-105576700D01*
X79855500Y-105536700D02*
X74703500Y-105536700D01*
X79852500Y-105496700D02*
X74706500Y-105496700D01*
X79848500Y-105456700D02*
X78319500Y-105456700D01*
X76239500Y-105456700D02*
X74710500Y-105456700D01*
X79844500Y-105416700D02*
X78319500Y-105416700D01*
X76239500Y-105416700D02*
X74714500Y-105416700D01*
X79840500Y-105376700D02*
X78319500Y-105376700D01*
X76239500Y-105376700D02*
X74718500Y-105376700D01*
X79835500Y-105336700D02*
X78319500Y-105336700D01*
X76239500Y-105336700D02*
X74723500Y-105336700D01*
X79829500Y-105296700D02*
X78319500Y-105296700D01*
X76239500Y-105296700D02*
X74729500Y-105296700D01*
X79822500Y-105256700D02*
X78319500Y-105256700D01*
X76239500Y-105256700D02*
X74736500Y-105256700D01*
X79815500Y-105216700D02*
X78319500Y-105216700D01*
X76239500Y-105216700D02*
X74743500Y-105216700D01*
X79807500Y-105176700D02*
X78319500Y-105176700D01*
X76239500Y-105176700D02*
X74751500Y-105176700D01*
X79799500Y-105136700D02*
X78319500Y-105136700D01*
X76239500Y-105136700D02*
X74759500Y-105136700D01*
X79790500Y-105096700D02*
X78319500Y-105096700D01*
X76239500Y-105096700D02*
X74768500Y-105096700D01*
X79780500Y-105056700D02*
X78319500Y-105056700D01*
X76239500Y-105056700D02*
X74778500Y-105056700D01*
X79770500Y-105016700D02*
X78319500Y-105016700D01*
X76239500Y-105016700D02*
X74788500Y-105016700D01*
X79759500Y-104975700D02*
X78319500Y-104975700D01*
X76239500Y-104975700D02*
X74799500Y-104975700D01*
X79747500Y-104935700D02*
X78319500Y-104935700D01*
X76239500Y-104935700D02*
X74811500Y-104935700D01*
X79734500Y-104895700D02*
X78319500Y-104895700D01*
X76239500Y-104895700D02*
X74824500Y-104895700D01*
X79721500Y-104855700D02*
X78319500Y-104855700D01*
X76239500Y-104855700D02*
X74837500Y-104855700D01*
X79707500Y-104815700D02*
X78319500Y-104815700D01*
X76239500Y-104815700D02*
X74851500Y-104815700D01*
X79693500Y-104775700D02*
X78319500Y-104775700D01*
X76239500Y-104775700D02*
X74865500Y-104775700D01*
X79677500Y-104735700D02*
X78319500Y-104735700D01*
X76239500Y-104735700D02*
X74881500Y-104735700D01*
X79661500Y-104695700D02*
X78319500Y-104695700D01*
X76239500Y-104695700D02*
X74897500Y-104695700D01*
X79644500Y-104655700D02*
X78319500Y-104655700D01*
X76239500Y-104655700D02*
X74914500Y-104655700D01*
X79627500Y-104615700D02*
X78319500Y-104615700D01*
X76239500Y-104615700D02*
X74931500Y-104615700D01*
X79608500Y-104575700D02*
X78319500Y-104575700D01*
X76239500Y-104575700D02*
X74950500Y-104575700D01*
X79589500Y-104535700D02*
X78319500Y-104535700D01*
X76239500Y-104535700D02*
X74969500Y-104535700D01*
X79569500Y-104495700D02*
X78319500Y-104495700D01*
X76239500Y-104495700D02*
X74989500Y-104495700D01*
X79547500Y-104455700D02*
X78319500Y-104455700D01*
X76239500Y-104455700D02*
X75011500Y-104455700D01*
X79526500Y-104415700D02*
X78319500Y-104415700D01*
X76239500Y-104415700D02*
X75032500Y-104415700D01*
X79503500Y-104375700D02*
X78319500Y-104375700D01*
X76239500Y-104375700D02*
X75055500Y-104375700D01*
X79479500Y-104335700D02*
X78319500Y-104335700D01*
X76239500Y-104335700D02*
X75079500Y-104335700D01*
X79454500Y-104295700D02*
X78319500Y-104295700D01*
X76239500Y-104295700D02*
X75104500Y-104295700D01*
X79428500Y-104255700D02*
X78319500Y-104255700D01*
X76239500Y-104255700D02*
X75130500Y-104255700D01*
X79401500Y-104215700D02*
X78319500Y-104215700D01*
X76239500Y-104215700D02*
X75157500Y-104215700D01*
X79374500Y-104175700D02*
X78319500Y-104175700D01*
X76239500Y-104175700D02*
X75184500Y-104175700D01*
X79344500Y-104135700D02*
X78319500Y-104135700D01*
X76239500Y-104135700D02*
X75214500Y-104135700D01*
X79314500Y-104095700D02*
X78319500Y-104095700D01*
X76239500Y-104095700D02*
X75244500Y-104095700D01*
X79283500Y-104055700D02*
X78319500Y-104055700D01*
X76239500Y-104055700D02*
X75275500Y-104055700D01*
X79250500Y-104015700D02*
X78319500Y-104015700D01*
X76239500Y-104015700D02*
X75308500Y-104015700D01*
X79216500Y-103975700D02*
X78319500Y-103975700D01*
X76239500Y-103975700D02*
X75342500Y-103975700D01*
X79180500Y-103935700D02*
X78319500Y-103935700D01*
X76239500Y-103935700D02*
X75378500Y-103935700D01*
X79143500Y-103895700D02*
X78319500Y-103895700D01*
X76239500Y-103895700D02*
X75415500Y-103895700D01*
X79105500Y-103855700D02*
X78319500Y-103855700D01*
X76239500Y-103855700D02*
X75453500Y-103855700D01*
X79064500Y-103815700D02*
X78319500Y-103815700D01*
X76239500Y-103815700D02*
X75494500Y-103815700D01*
X79022500Y-103775700D02*
X78319500Y-103775700D01*
X76239500Y-103775700D02*
X75536500Y-103775700D01*
X78978500Y-103735700D02*
X78319500Y-103735700D01*
X76239500Y-103735700D02*
X75580500Y-103735700D01*
X78932500Y-103695700D02*
X78319500Y-103695700D01*
X76239500Y-103695700D02*
X75626500Y-103695700D01*
X78884500Y-103655700D02*
X78319500Y-103655700D01*
X76239500Y-103655700D02*
X75674500Y-103655700D01*
X78833500Y-103615700D02*
X78319500Y-103615700D01*
X76239500Y-103615700D02*
X75725500Y-103615700D01*
X78779500Y-103575700D02*
X78319500Y-103575700D01*
X76239500Y-103575700D02*
X75779500Y-103575700D01*
X78722500Y-103535700D02*
X78319500Y-103535700D01*
X76239500Y-103535700D02*
X75836500Y-103535700D01*
X78662500Y-103495700D02*
X78319500Y-103495700D01*
X76239500Y-103495700D02*
X75896500Y-103495700D01*
X78598500Y-103455700D02*
X78319500Y-103455700D01*
X76239500Y-103455700D02*
X75960500Y-103455700D01*
X78530500Y-103415700D02*
X78319500Y-103415700D01*
X76239500Y-103415700D02*
X76028500Y-103415700D01*
X78457500Y-103375700D02*
X76101500Y-103375700D01*
X78377500Y-103335700D02*
X76181500Y-103335700D01*
X78290500Y-103295700D02*
X76268500Y-103295700D01*
X78194500Y-103255700D02*
X76364500Y-103255700D01*
X78084500Y-103215700D02*
X76474500Y-103215700D01*
X77956500Y-103175700D02*
X76602500Y-103175700D01*
X77797500Y-103135700D02*
X76761500Y-103135700D01*
X77563500Y-103095700D02*
X76995500Y-103095700D01*
X78754500Y-108501475D02*
X78754500Y-108001475D01*
X79004500Y-108251475D02*
X78504500Y-108251475D01*
%TO.C,J4*%
D10*
X63960333Y-96810580D02*
X63960333Y-97524866D01*
X64007952Y-97667723D01*
X64103190Y-97762961D01*
X64246047Y-97810580D01*
X64341285Y-97810580D01*
X63055571Y-97143914D02*
X63055571Y-97810580D01*
X63293666Y-96762961D02*
X63531761Y-97477247D01*
X62912714Y-97477247D01*
%TO.C,J2*%
X75593533Y-108748580D02*
X75593533Y-109462866D01*
X75641152Y-109605723D01*
X75736390Y-109700961D01*
X75879247Y-109748580D01*
X75974485Y-109748580D01*
X75164961Y-108843819D02*
X75117342Y-108796200D01*
X75022104Y-108748580D01*
X74784009Y-108748580D01*
X74688771Y-108796200D01*
X74641152Y-108843819D01*
X74593533Y-108939057D01*
X74593533Y-109034295D01*
X74641152Y-109177152D01*
X75212580Y-109748580D01*
X74593533Y-109748580D01*
%TO.C,C14*%
X153919157Y-89244442D02*
X153966776Y-89292061D01*
X154109633Y-89339680D01*
X154204871Y-89339680D01*
X154347728Y-89292061D01*
X154442966Y-89196823D01*
X154490585Y-89101585D01*
X154538204Y-88911109D01*
X154538204Y-88768252D01*
X154490585Y-88577776D01*
X154442966Y-88482538D01*
X154347728Y-88387300D01*
X154204871Y-88339680D01*
X154109633Y-88339680D01*
X153966776Y-88387300D01*
X153919157Y-88434919D01*
X152966776Y-89339680D02*
X153538204Y-89339680D01*
X153252490Y-89339680D02*
X153252490Y-88339680D01*
X153347728Y-88482538D01*
X153442966Y-88577776D01*
X153538204Y-88625395D01*
X152109633Y-88673014D02*
X152109633Y-89339680D01*
X152347728Y-88292061D02*
X152585823Y-89006347D01*
X151966776Y-89006347D01*
%TO.C,C12*%
X77922357Y-102020642D02*
X77969976Y-102068261D01*
X78112833Y-102115880D01*
X78208071Y-102115880D01*
X78350928Y-102068261D01*
X78446166Y-101973023D01*
X78493785Y-101877785D01*
X78541404Y-101687309D01*
X78541404Y-101544452D01*
X78493785Y-101353976D01*
X78446166Y-101258738D01*
X78350928Y-101163500D01*
X78208071Y-101115880D01*
X78112833Y-101115880D01*
X77969976Y-101163500D01*
X77922357Y-101211119D01*
X76969976Y-102115880D02*
X77541404Y-102115880D01*
X77255690Y-102115880D02*
X77255690Y-101115880D01*
X77350928Y-101258738D01*
X77446166Y-101353976D01*
X77541404Y-101401595D01*
X76589023Y-101211119D02*
X76541404Y-101163500D01*
X76446166Y-101115880D01*
X76208071Y-101115880D01*
X76112833Y-101163500D01*
X76065214Y-101211119D01*
X76017595Y-101306357D01*
X76017595Y-101401595D01*
X76065214Y-101544452D01*
X76636642Y-102115880D01*
X76017595Y-102115880D01*
%TD*%
M02*
