%TF.GenerationSoftware,KiCad,Pcbnew,(5.1.6)-1*%
%TF.CreationDate,2020-10-05T18:02:00+02:00*%
%TF.ProjectId,KOSMO Mega Drone,4b4f534d-4f20-44d6-9567-612044726f6e,rev?*%
%TF.SameCoordinates,Original*%
%TF.FileFunction,Soldermask,Bot*%
%TF.FilePolarity,Negative*%
%FSLAX46Y46*%
G04 Gerber Fmt 4.6, Leading zero omitted, Abs format (unit mm)*
G04 Created by KiCad (PCBNEW (5.1.6)-1) date 2020-10-05 18:02:00*
%MOMM*%
%LPD*%
G01*
G04 APERTURE LIST*
%ADD10C,2.100000*%
%ADD11O,3.600000X1.624000*%
%ADD12R,1.900000X4.500000*%
%ADD13O,1.900000X4.100000*%
%ADD14O,4.100000X1.900000*%
%ADD15C,6.500000*%
%ADD16C,0.900000*%
%ADD17C,4.100000*%
%ADD18C,1.900000*%
%ADD19O,1.800000X1.800000*%
%ADD20R,1.800000X1.800000*%
%ADD21R,1.900000X1.900000*%
%ADD22C,1.700000*%
%ADD23R,1.700000X1.700000*%
G04 APERTURE END LIST*
D10*
%TO.C,J3*%
X138328400Y-113207800D03*
D11*
X138328400Y-108762800D03*
X138328400Y-100761800D03*
%TD*%
D10*
%TO.C,J1*%
X85496400Y-113207800D03*
D11*
X85496400Y-108762800D03*
X85496400Y-100761800D03*
%TD*%
D12*
%TO.C,J4*%
X71678800Y-103276400D03*
D13*
X65878800Y-103276400D03*
D14*
X68678800Y-98476400D03*
%TD*%
D15*
%TO.C,REF\u002A\u002A*%
X64000000Y-113000000D03*
D16*
X66400000Y-113000000D03*
X65697056Y-114697056D03*
X64000000Y-115400000D03*
X62302944Y-114697056D03*
X61600000Y-113000000D03*
X62302944Y-111302944D03*
X64000000Y-110600000D03*
X65697056Y-111302944D03*
%TD*%
%TO.C,REF\u002A\u002A*%
X156697056Y-111302944D03*
X155000000Y-110600000D03*
X153302944Y-111302944D03*
X152600000Y-113000000D03*
X153302944Y-114697056D03*
X155000000Y-115400000D03*
X156697056Y-114697056D03*
X157400000Y-113000000D03*
D15*
X155000000Y-113000000D03*
%TD*%
%TO.C,REF\u002A\u002A*%
X155000000Y-22000000D03*
D16*
X157400000Y-22000000D03*
X156697056Y-23697056D03*
X155000000Y-24400000D03*
X153302944Y-23697056D03*
X152600000Y-22000000D03*
X153302944Y-20302944D03*
X155000000Y-19600000D03*
X156697056Y-20302944D03*
%TD*%
%TO.C,REF\u002A\u002A*%
X65697056Y-20302944D03*
X64000000Y-19600000D03*
X62302944Y-20302944D03*
X61600000Y-22000000D03*
X62302944Y-23697056D03*
X64000000Y-24400000D03*
X65697056Y-23697056D03*
X66400000Y-22000000D03*
D15*
X64000000Y-22000000D03*
%TD*%
D17*
%TO.C,RV24*%
X155925600Y-100670600D03*
X147125600Y-100670600D03*
D18*
X154025600Y-107670600D03*
X151525600Y-107670600D03*
X149025600Y-107670600D03*
%TD*%
D17*
%TO.C,RV23*%
X130068400Y-104683800D03*
X121268400Y-104683800D03*
D18*
X128168400Y-111683800D03*
X125668400Y-111683800D03*
X123168400Y-111683800D03*
%TD*%
D17*
%TO.C,RV22*%
X116250800Y-104683800D03*
X107450800Y-104683800D03*
D18*
X114350800Y-111683800D03*
X111850800Y-111683800D03*
X109350800Y-111683800D03*
%TD*%
D17*
%TO.C,RV21*%
X102433200Y-104683800D03*
X93633200Y-104683800D03*
D18*
X100533200Y-111683800D03*
X98033200Y-111683800D03*
X95533200Y-111683800D03*
%TD*%
D17*
%TO.C,RV20*%
X146197400Y-83647900D03*
X137397400Y-83647900D03*
D18*
X144297400Y-90647900D03*
X141797400Y-90647900D03*
X139297400Y-90647900D03*
%TD*%
D17*
%TO.C,RV19*%
X129033825Y-83317700D03*
X120233825Y-83317700D03*
D18*
X127133825Y-90317700D03*
X124633825Y-90317700D03*
X122133825Y-90317700D03*
%TD*%
D17*
%TO.C,RV18*%
X111870250Y-83216100D03*
X103070250Y-83216100D03*
D18*
X109970250Y-90216100D03*
X107470250Y-90216100D03*
X104970250Y-90216100D03*
%TD*%
D17*
%TO.C,RV17*%
X94706675Y-83419300D03*
X85906675Y-83419300D03*
D18*
X92806675Y-90419300D03*
X90306675Y-90419300D03*
X87806675Y-90419300D03*
%TD*%
D17*
%TO.C,RV16*%
X77543100Y-83419300D03*
X68743100Y-83419300D03*
D18*
X75643100Y-90419300D03*
X73143100Y-90419300D03*
X70643100Y-90419300D03*
%TD*%
D17*
%TO.C,RV15*%
X146324400Y-65664100D03*
X137524400Y-65664100D03*
D18*
X144424400Y-72664100D03*
X141924400Y-72664100D03*
X139424400Y-72664100D03*
%TD*%
D17*
%TO.C,RV14*%
X129160825Y-65664100D03*
X120360825Y-65664100D03*
D18*
X127260825Y-72664100D03*
X124760825Y-72664100D03*
X122260825Y-72664100D03*
%TD*%
D17*
%TO.C,RV13*%
X111997250Y-65664100D03*
X103197250Y-65664100D03*
D18*
X110097250Y-72664100D03*
X107597250Y-72664100D03*
X105097250Y-72664100D03*
%TD*%
D17*
%TO.C,RV12*%
X94833675Y-65664100D03*
X86033675Y-65664100D03*
D18*
X92933675Y-72664100D03*
X90433675Y-72664100D03*
X87933675Y-72664100D03*
%TD*%
D17*
%TO.C,RV11*%
X77670100Y-65664100D03*
X68870100Y-65664100D03*
D18*
X75770100Y-72664100D03*
X73270100Y-72664100D03*
X70770100Y-72664100D03*
%TD*%
D17*
%TO.C,RV10*%
X146324400Y-44272500D03*
X137524400Y-44272500D03*
D18*
X144424400Y-51272500D03*
X141924400Y-51272500D03*
X139424400Y-51272500D03*
%TD*%
D17*
%TO.C,RV9*%
X129160825Y-44272500D03*
X120360825Y-44272500D03*
D18*
X127260825Y-51272500D03*
X124760825Y-51272500D03*
X122260825Y-51272500D03*
%TD*%
D17*
%TO.C,RV8*%
X111997250Y-44272500D03*
X103197250Y-44272500D03*
D18*
X110097250Y-51272500D03*
X107597250Y-51272500D03*
X105097250Y-51272500D03*
%TD*%
D17*
%TO.C,RV7*%
X94833675Y-44272500D03*
X86033675Y-44272500D03*
D18*
X92933675Y-51272500D03*
X90433675Y-51272500D03*
X87933675Y-51272500D03*
%TD*%
D17*
%TO.C,RV6*%
X77670100Y-44272500D03*
X68870100Y-44272500D03*
D18*
X75770100Y-51272500D03*
X73270100Y-51272500D03*
X70770100Y-51272500D03*
%TD*%
D17*
%TO.C,RV5*%
X146324400Y-26528000D03*
X137524400Y-26528000D03*
D18*
X144424400Y-33528000D03*
X141924400Y-33528000D03*
X139424400Y-33528000D03*
%TD*%
D17*
%TO.C,RV4*%
X129160825Y-26528000D03*
X120360825Y-26528000D03*
D18*
X127260825Y-33528000D03*
X124760825Y-33528000D03*
X122260825Y-33528000D03*
%TD*%
D17*
%TO.C,RV3*%
X111997250Y-26528000D03*
X103197250Y-26528000D03*
D18*
X110097250Y-33528000D03*
X107597250Y-33528000D03*
X105097250Y-33528000D03*
%TD*%
D17*
%TO.C,RV2*%
X94833675Y-26528000D03*
X86033675Y-26528000D03*
D18*
X92933675Y-33528000D03*
X90433675Y-33528000D03*
X87933675Y-33528000D03*
%TD*%
D17*
%TO.C,RV1*%
X77670100Y-26528000D03*
X68870100Y-26528000D03*
D18*
X75770100Y-33528000D03*
X73270100Y-33528000D03*
X70770100Y-33528000D03*
%TD*%
D19*
%TO.C,J2*%
X70840000Y-111887000D03*
X70840000Y-114427000D03*
X73380000Y-111887000D03*
X73380000Y-114427000D03*
X75920000Y-111887000D03*
X75920000Y-114427000D03*
X78460000Y-111887000D03*
X78460000Y-114427000D03*
X81000000Y-111887000D03*
D20*
X81000000Y-114427000D03*
%TD*%
D18*
%TO.C,D15*%
X134645400Y-89458800D03*
D21*
X132105400Y-89458800D03*
%TD*%
D18*
%TO.C,D14*%
X117475000Y-89458800D03*
D21*
X114935000Y-89458800D03*
%TD*%
D18*
%TO.C,D13*%
X100304600Y-89458800D03*
D21*
X97764600Y-89458800D03*
%TD*%
D18*
%TO.C,D12*%
X83134200Y-89458800D03*
D21*
X80594200Y-89458800D03*
%TD*%
D18*
%TO.C,D11*%
X66433700Y-89458800D03*
D21*
X63893700Y-89458800D03*
%TD*%
D18*
%TO.C,D5*%
X134620000Y-50241200D03*
D21*
X132080000Y-50241200D03*
%TD*%
D18*
%TO.C,D4*%
X117449600Y-50253900D03*
D21*
X114909600Y-50253900D03*
%TD*%
D18*
%TO.C,D3*%
X100279200Y-50253900D03*
D21*
X97739200Y-50253900D03*
%TD*%
D18*
%TO.C,D2*%
X83108800Y-50253900D03*
D21*
X80568800Y-50253900D03*
%TD*%
D18*
%TO.C,D1*%
X66408300Y-50253900D03*
D21*
X63868300Y-50253900D03*
%TD*%
D22*
%TO.C,C14*%
X152211400Y-85140800D03*
D23*
X154711400Y-85140800D03*
%TD*%
D22*
%TO.C,C12*%
X77279500Y-104446700D03*
D23*
X77279500Y-106946700D03*
%TD*%
M02*
