M48
; DRILL file {KiCad (5.1.6)-1} date 10/05/20 18:02:02
; FORMAT={-:-/ absolute / metric / decimal}
; #@! TF.CreationDate,2020-10-05T18:02:02+02:00
; #@! TF.GenerationSoftware,Kicad,Pcbnew,(5.1.6)-1
; #@! TF.FileFunction,Plated,1,2,PTH
FMAT,2
METRIC
T1C0.400
T2C0.500
T3C0.762
T4C0.800
T5C0.900
T6C1.000
T7C3.200
%
G90
G05
T1
X62.408Y-66.7
X62.408Y-76.632
X67.907Y-93.158
X67.92Y-53.902
X77.343Y-36.754
X77.343Y-75.971
X84.62Y-53.902
X84.633Y-93.158
X94.513Y-36.754
X94.513Y-75.971
X101.79Y-53.902
X101.79Y-93.158
X111.684Y-36.754
X111.684Y-75.971
X111.862Y-100.076
X113.04Y-95.057
X118.974Y-53.902
X118.986Y-93.158
X128.829Y-36.754
X128.829Y-75.971
X136.144Y-53.902
X136.144Y-93.158
X145.999Y-36.754
X145.999Y-75.971
X146.355Y-109.779
X148.793Y-88.837
X150.241Y-58.115
X150.241Y-68.936
X152.044Y-97.104
X152.514Y-92.57
X152.527Y-90.043
X155.892Y-93.662
T2
X61.6Y-113.0
X62.303Y-111.303
X62.303Y-114.697
X64.0Y-110.6
X64.0Y-115.4
X65.697Y-111.303
X65.697Y-114.697
X66.4Y-113.0
X152.6Y-22.0
X153.303Y-20.303
X153.303Y-23.697
X155.0Y-19.6
X155.0Y-24.4
X156.697Y-20.303
X156.697Y-23.697
X157.4Y-22.0
X61.6Y-22.0
X62.303Y-20.303
X62.303Y-23.697
X64.0Y-19.6
X64.0Y-24.4
X65.697Y-20.303
X65.697Y-23.697
X66.4Y-22.0
X152.6Y-113.0
X153.303Y-111.303
X153.303Y-114.697
X155.0Y-110.6
X155.0Y-115.4
X156.697Y-111.303
X156.697Y-114.697
X157.4Y-113.0
T4
X152.211Y-85.141
X154.711Y-85.141
X77.279Y-104.447
X77.279Y-106.947
T5
X80.569Y-50.254
X83.109Y-50.254
X132.105Y-89.459
X134.645Y-89.459
X80.594Y-89.459
X83.134Y-89.459
X114.91Y-50.254
X117.45Y-50.254
X63.868Y-50.254
X66.408Y-50.254
X97.765Y-89.459
X100.305Y-89.459
X132.08Y-50.241
X134.62Y-50.241
X63.894Y-89.459
X66.434Y-89.459
X114.935Y-89.459
X117.475Y-89.459
X97.739Y-50.254
X100.279Y-50.254
T6
X104.97Y-90.216
X107.47Y-90.216
X109.97Y-90.216
X109.351Y-111.684
X111.851Y-111.684
X114.351Y-111.684
X122.261Y-51.273
X124.761Y-51.273
X127.261Y-51.273
X122.261Y-33.528
X124.761Y-33.528
X127.261Y-33.528
X87.934Y-72.664
X90.434Y-72.664
X92.934Y-72.664
X70.84Y-111.887
X70.84Y-114.427
X73.38Y-111.887
X73.38Y-114.427
X75.92Y-111.887
X75.92Y-114.427
X78.46Y-111.887
X78.46Y-114.427
X81.0Y-111.887
X81.0Y-114.427
X105.097Y-72.664
X107.597Y-72.664
X110.097Y-72.664
X85.496Y-113.208
X105.097Y-51.273
X107.597Y-51.273
X110.097Y-51.273
X95.533Y-111.684
X98.033Y-111.684
X100.533Y-111.684
X87.934Y-51.273
X90.434Y-51.273
X92.934Y-51.273
X70.77Y-72.664
X73.27Y-72.664
X75.77Y-72.664
X87.807Y-90.419
X90.307Y-90.419
X92.807Y-90.419
X138.328Y-113.208
X139.424Y-72.664
X141.924Y-72.664
X144.424Y-72.664
X70.77Y-51.273
X73.27Y-51.273
X75.77Y-51.273
X87.934Y-33.528
X90.434Y-33.528
X92.934Y-33.528
X122.261Y-72.664
X124.761Y-72.664
X127.261Y-72.664
X123.168Y-111.684
X125.668Y-111.684
X128.168Y-111.684
X139.424Y-33.528
X141.924Y-33.528
X144.424Y-33.528
X70.77Y-33.528
X73.27Y-33.528
X75.77Y-33.528
X149.026Y-107.671
X151.526Y-107.671
X154.026Y-107.671
X139.297Y-90.648
X141.797Y-90.648
X144.297Y-90.648
X70.643Y-90.419
X73.143Y-90.419
X75.643Y-90.419
X105.097Y-33.528
X107.597Y-33.528
X110.097Y-33.528
X122.134Y-90.318
X124.634Y-90.318
X127.134Y-90.318
X139.424Y-51.273
X141.924Y-51.273
X144.424Y-51.273
T7
X64.0Y-113.0
X155.0Y-22.0
X64.0Y-22.0
X155.0Y-113.0
T3
G00X84.627Y-100.762
M15
G01X86.365Y-100.762
M16
G05
G00X84.627Y-108.763
M15
G01X86.365Y-108.763
M16
G05
G00X137.459Y-100.762
M15
G01X139.197Y-100.762
M16
G05
G00X137.459Y-108.763
M15
G01X139.197Y-108.763
M16
G05
T4
G00X65.879Y-104.376
M15
G01X65.879Y-102.176
M16
G05
G00X67.579Y-98.476
M15
G01X69.779Y-98.476
M16
G05
G00X71.679Y-104.576
M15
G01X71.679Y-101.976
M16
G05
T0
M30
