%TF.GenerationSoftware,KiCad,Pcbnew,(5.1.6)-1*%
%TF.CreationDate,2020-10-05T18:02:00+02:00*%
%TF.ProjectId,KOSMO Mega Drone,4b4f534d-4f20-44d6-9567-612044726f6e,rev?*%
%TF.SameCoordinates,Original*%
%TF.FileFunction,Legend,Top*%
%TF.FilePolarity,Positive*%
%FSLAX46Y46*%
G04 Gerber Fmt 4.6, Leading zero omitted, Abs format (unit mm)*
G04 Created by KiCad (PCBNEW (5.1.6)-1) date 2020-10-05 18:02:00*
%MOMM*%
%LPD*%
G01*
G04 APERTURE LIST*
%ADD10C,0.120000*%
%ADD11C,0.200000*%
%ADD12C,0.150000*%
G04 APERTURE END LIST*
D10*
%TO.C,J3*%
X140483661Y-104698800D02*
G75*
G03*
X140483661Y-104698800I-2155261J0D01*
G01*
X137693400Y-112064800D02*
X137693400Y-109778800D01*
X138963400Y-109778800D02*
X138963400Y-112064800D01*
X142900400Y-99618800D02*
X133756400Y-99618800D01*
X142900400Y-99618800D02*
X142900400Y-109778800D01*
X133756400Y-99618800D02*
X133756400Y-109778800D01*
X133756400Y-109778800D02*
X142900400Y-109778800D01*
%TO.C,J1*%
X87651661Y-104698800D02*
G75*
G03*
X87651661Y-104698800I-2155261J0D01*
G01*
X84861400Y-112064800D02*
X84861400Y-109778800D01*
X86131400Y-109778800D02*
X86131400Y-112064800D01*
X90068400Y-99618800D02*
X80924400Y-99618800D01*
X90068400Y-99618800D02*
X90068400Y-109778800D01*
X80924400Y-99618800D02*
X80924400Y-109778800D01*
X80924400Y-109778800D02*
X90068400Y-109778800D01*
%TO.C,U1*%
X153438100Y-93250000D02*
X155388100Y-93250000D01*
X153438100Y-93250000D02*
X151488100Y-93250000D01*
X153438100Y-88130000D02*
X155388100Y-88130000D01*
X153438100Y-88130000D02*
X149988100Y-88130000D01*
D11*
X149297900Y-88480200D02*
G75*
G03*
X149297900Y-88480200I-101600J0D01*
G01*
D10*
%TO.C,RV24*%
X146504600Y-94550600D02*
X156545600Y-94550600D01*
X154895600Y-106790600D02*
X156545600Y-106790600D01*
X152396600Y-106790600D02*
X153155600Y-106790600D01*
X149896600Y-106790600D02*
X150655600Y-106790600D01*
X146504600Y-106790600D02*
X148154600Y-106790600D01*
X156545600Y-98486600D02*
X156545600Y-94550600D01*
X156545600Y-106790600D02*
X156545600Y-102853600D01*
X146504600Y-98486600D02*
X146504600Y-94550600D01*
X146504600Y-106790600D02*
X146504600Y-102853600D01*
%TO.C,RV23*%
X120647400Y-98563800D02*
X130688400Y-98563800D01*
X129038400Y-110803800D02*
X130688400Y-110803800D01*
X126539400Y-110803800D02*
X127298400Y-110803800D01*
X124039400Y-110803800D02*
X124798400Y-110803800D01*
X120647400Y-110803800D02*
X122297400Y-110803800D01*
X130688400Y-102499800D02*
X130688400Y-98563800D01*
X130688400Y-110803800D02*
X130688400Y-106866800D01*
X120647400Y-102499800D02*
X120647400Y-98563800D01*
X120647400Y-110803800D02*
X120647400Y-106866800D01*
%TO.C,RV22*%
X106829800Y-98563800D02*
X116870800Y-98563800D01*
X115220800Y-110803800D02*
X116870800Y-110803800D01*
X112721800Y-110803800D02*
X113480800Y-110803800D01*
X110221800Y-110803800D02*
X110980800Y-110803800D01*
X106829800Y-110803800D02*
X108479800Y-110803800D01*
X116870800Y-102499800D02*
X116870800Y-98563800D01*
X116870800Y-110803800D02*
X116870800Y-106866800D01*
X106829800Y-102499800D02*
X106829800Y-98563800D01*
X106829800Y-110803800D02*
X106829800Y-106866800D01*
%TO.C,RV21*%
X93012200Y-98563800D02*
X103053200Y-98563800D01*
X101403200Y-110803800D02*
X103053200Y-110803800D01*
X98904200Y-110803800D02*
X99663200Y-110803800D01*
X96404200Y-110803800D02*
X97163200Y-110803800D01*
X93012200Y-110803800D02*
X94662200Y-110803800D01*
X103053200Y-102499800D02*
X103053200Y-98563800D01*
X103053200Y-110803800D02*
X103053200Y-106866800D01*
X93012200Y-102499800D02*
X93012200Y-98563800D01*
X93012200Y-110803800D02*
X93012200Y-106866800D01*
%TO.C,RV20*%
X136776400Y-77527900D02*
X146817400Y-77527900D01*
X145167400Y-89767900D02*
X146817400Y-89767900D01*
X142668400Y-89767900D02*
X143427400Y-89767900D01*
X140168400Y-89767900D02*
X140927400Y-89767900D01*
X136776400Y-89767900D02*
X138426400Y-89767900D01*
X146817400Y-81463900D02*
X146817400Y-77527900D01*
X146817400Y-89767900D02*
X146817400Y-85830900D01*
X136776400Y-81463900D02*
X136776400Y-77527900D01*
X136776400Y-89767900D02*
X136776400Y-85830900D01*
%TO.C,RV19*%
X119612825Y-77197700D02*
X129653825Y-77197700D01*
X128003825Y-89437700D02*
X129653825Y-89437700D01*
X125504825Y-89437700D02*
X126263825Y-89437700D01*
X123004825Y-89437700D02*
X123763825Y-89437700D01*
X119612825Y-89437700D02*
X121262825Y-89437700D01*
X129653825Y-81133700D02*
X129653825Y-77197700D01*
X129653825Y-89437700D02*
X129653825Y-85500700D01*
X119612825Y-81133700D02*
X119612825Y-77197700D01*
X119612825Y-89437700D02*
X119612825Y-85500700D01*
%TO.C,RV18*%
X102449250Y-77096100D02*
X112490250Y-77096100D01*
X110840250Y-89336100D02*
X112490250Y-89336100D01*
X108341250Y-89336100D02*
X109100250Y-89336100D01*
X105841250Y-89336100D02*
X106600250Y-89336100D01*
X102449250Y-89336100D02*
X104099250Y-89336100D01*
X112490250Y-81032100D02*
X112490250Y-77096100D01*
X112490250Y-89336100D02*
X112490250Y-85399100D01*
X102449250Y-81032100D02*
X102449250Y-77096100D01*
X102449250Y-89336100D02*
X102449250Y-85399100D01*
%TO.C,RV17*%
X85285675Y-77299300D02*
X95326675Y-77299300D01*
X93676675Y-89539300D02*
X95326675Y-89539300D01*
X91177675Y-89539300D02*
X91936675Y-89539300D01*
X88677675Y-89539300D02*
X89436675Y-89539300D01*
X85285675Y-89539300D02*
X86935675Y-89539300D01*
X95326675Y-81235300D02*
X95326675Y-77299300D01*
X95326675Y-89539300D02*
X95326675Y-85602300D01*
X85285675Y-81235300D02*
X85285675Y-77299300D01*
X85285675Y-89539300D02*
X85285675Y-85602300D01*
%TO.C,RV16*%
X68122100Y-77299300D02*
X78163100Y-77299300D01*
X76513100Y-89539300D02*
X78163100Y-89539300D01*
X74014100Y-89539300D02*
X74773100Y-89539300D01*
X71514100Y-89539300D02*
X72273100Y-89539300D01*
X68122100Y-89539300D02*
X69772100Y-89539300D01*
X78163100Y-81235300D02*
X78163100Y-77299300D01*
X78163100Y-89539300D02*
X78163100Y-85602300D01*
X68122100Y-81235300D02*
X68122100Y-77299300D01*
X68122100Y-89539300D02*
X68122100Y-85602300D01*
%TO.C,RV15*%
X136903400Y-59544100D02*
X146944400Y-59544100D01*
X145294400Y-71784100D02*
X146944400Y-71784100D01*
X142795400Y-71784100D02*
X143554400Y-71784100D01*
X140295400Y-71784100D02*
X141054400Y-71784100D01*
X136903400Y-71784100D02*
X138553400Y-71784100D01*
X146944400Y-63480100D02*
X146944400Y-59544100D01*
X146944400Y-71784100D02*
X146944400Y-67847100D01*
X136903400Y-63480100D02*
X136903400Y-59544100D01*
X136903400Y-71784100D02*
X136903400Y-67847100D01*
%TO.C,RV14*%
X119739825Y-59544100D02*
X129780825Y-59544100D01*
X128130825Y-71784100D02*
X129780825Y-71784100D01*
X125631825Y-71784100D02*
X126390825Y-71784100D01*
X123131825Y-71784100D02*
X123890825Y-71784100D01*
X119739825Y-71784100D02*
X121389825Y-71784100D01*
X129780825Y-63480100D02*
X129780825Y-59544100D01*
X129780825Y-71784100D02*
X129780825Y-67847100D01*
X119739825Y-63480100D02*
X119739825Y-59544100D01*
X119739825Y-71784100D02*
X119739825Y-67847100D01*
%TO.C,RV13*%
X102576250Y-59544100D02*
X112617250Y-59544100D01*
X110967250Y-71784100D02*
X112617250Y-71784100D01*
X108468250Y-71784100D02*
X109227250Y-71784100D01*
X105968250Y-71784100D02*
X106727250Y-71784100D01*
X102576250Y-71784100D02*
X104226250Y-71784100D01*
X112617250Y-63480100D02*
X112617250Y-59544100D01*
X112617250Y-71784100D02*
X112617250Y-67847100D01*
X102576250Y-63480100D02*
X102576250Y-59544100D01*
X102576250Y-71784100D02*
X102576250Y-67847100D01*
%TO.C,RV12*%
X85412675Y-59544100D02*
X95453675Y-59544100D01*
X93803675Y-71784100D02*
X95453675Y-71784100D01*
X91304675Y-71784100D02*
X92063675Y-71784100D01*
X88804675Y-71784100D02*
X89563675Y-71784100D01*
X85412675Y-71784100D02*
X87062675Y-71784100D01*
X95453675Y-63480100D02*
X95453675Y-59544100D01*
X95453675Y-71784100D02*
X95453675Y-67847100D01*
X85412675Y-63480100D02*
X85412675Y-59544100D01*
X85412675Y-71784100D02*
X85412675Y-67847100D01*
%TO.C,RV11*%
X68249100Y-59544100D02*
X78290100Y-59544100D01*
X76640100Y-71784100D02*
X78290100Y-71784100D01*
X74141100Y-71784100D02*
X74900100Y-71784100D01*
X71641100Y-71784100D02*
X72400100Y-71784100D01*
X68249100Y-71784100D02*
X69899100Y-71784100D01*
X78290100Y-63480100D02*
X78290100Y-59544100D01*
X78290100Y-71784100D02*
X78290100Y-67847100D01*
X68249100Y-63480100D02*
X68249100Y-59544100D01*
X68249100Y-71784100D02*
X68249100Y-67847100D01*
%TO.C,RV10*%
X136903400Y-38152500D02*
X146944400Y-38152500D01*
X145294400Y-50392500D02*
X146944400Y-50392500D01*
X142795400Y-50392500D02*
X143554400Y-50392500D01*
X140295400Y-50392500D02*
X141054400Y-50392500D01*
X136903400Y-50392500D02*
X138553400Y-50392500D01*
X146944400Y-42088500D02*
X146944400Y-38152500D01*
X146944400Y-50392500D02*
X146944400Y-46455500D01*
X136903400Y-42088500D02*
X136903400Y-38152500D01*
X136903400Y-50392500D02*
X136903400Y-46455500D01*
%TO.C,RV9*%
X119739825Y-38152500D02*
X129780825Y-38152500D01*
X128130825Y-50392500D02*
X129780825Y-50392500D01*
X125631825Y-50392500D02*
X126390825Y-50392500D01*
X123131825Y-50392500D02*
X123890825Y-50392500D01*
X119739825Y-50392500D02*
X121389825Y-50392500D01*
X129780825Y-42088500D02*
X129780825Y-38152500D01*
X129780825Y-50392500D02*
X129780825Y-46455500D01*
X119739825Y-42088500D02*
X119739825Y-38152500D01*
X119739825Y-50392500D02*
X119739825Y-46455500D01*
%TO.C,RV8*%
X102576250Y-38152500D02*
X112617250Y-38152500D01*
X110967250Y-50392500D02*
X112617250Y-50392500D01*
X108468250Y-50392500D02*
X109227250Y-50392500D01*
X105968250Y-50392500D02*
X106727250Y-50392500D01*
X102576250Y-50392500D02*
X104226250Y-50392500D01*
X112617250Y-42088500D02*
X112617250Y-38152500D01*
X112617250Y-50392500D02*
X112617250Y-46455500D01*
X102576250Y-42088500D02*
X102576250Y-38152500D01*
X102576250Y-50392500D02*
X102576250Y-46455500D01*
%TO.C,RV7*%
X85412675Y-38152500D02*
X95453675Y-38152500D01*
X93803675Y-50392500D02*
X95453675Y-50392500D01*
X91304675Y-50392500D02*
X92063675Y-50392500D01*
X88804675Y-50392500D02*
X89563675Y-50392500D01*
X85412675Y-50392500D02*
X87062675Y-50392500D01*
X95453675Y-42088500D02*
X95453675Y-38152500D01*
X95453675Y-50392500D02*
X95453675Y-46455500D01*
X85412675Y-42088500D02*
X85412675Y-38152500D01*
X85412675Y-50392500D02*
X85412675Y-46455500D01*
%TO.C,RV6*%
X68249100Y-38152500D02*
X78290100Y-38152500D01*
X76640100Y-50392500D02*
X78290100Y-50392500D01*
X74141100Y-50392500D02*
X74900100Y-50392500D01*
X71641100Y-50392500D02*
X72400100Y-50392500D01*
X68249100Y-50392500D02*
X69899100Y-50392500D01*
X78290100Y-42088500D02*
X78290100Y-38152500D01*
X78290100Y-50392500D02*
X78290100Y-46455500D01*
X68249100Y-42088500D02*
X68249100Y-38152500D01*
X68249100Y-50392500D02*
X68249100Y-46455500D01*
%TO.C,RV5*%
X136903400Y-20408000D02*
X146944400Y-20408000D01*
X145294400Y-32648000D02*
X146944400Y-32648000D01*
X142795400Y-32648000D02*
X143554400Y-32648000D01*
X140295400Y-32648000D02*
X141054400Y-32648000D01*
X136903400Y-32648000D02*
X138553400Y-32648000D01*
X146944400Y-24344000D02*
X146944400Y-20408000D01*
X146944400Y-32648000D02*
X146944400Y-28711000D01*
X136903400Y-24344000D02*
X136903400Y-20408000D01*
X136903400Y-32648000D02*
X136903400Y-28711000D01*
%TO.C,RV4*%
X119739825Y-20408000D02*
X129780825Y-20408000D01*
X128130825Y-32648000D02*
X129780825Y-32648000D01*
X125631825Y-32648000D02*
X126390825Y-32648000D01*
X123131825Y-32648000D02*
X123890825Y-32648000D01*
X119739825Y-32648000D02*
X121389825Y-32648000D01*
X129780825Y-24344000D02*
X129780825Y-20408000D01*
X129780825Y-32648000D02*
X129780825Y-28711000D01*
X119739825Y-24344000D02*
X119739825Y-20408000D01*
X119739825Y-32648000D02*
X119739825Y-28711000D01*
%TO.C,RV3*%
X102576250Y-20408000D02*
X112617250Y-20408000D01*
X110967250Y-32648000D02*
X112617250Y-32648000D01*
X108468250Y-32648000D02*
X109227250Y-32648000D01*
X105968250Y-32648000D02*
X106727250Y-32648000D01*
X102576250Y-32648000D02*
X104226250Y-32648000D01*
X112617250Y-24344000D02*
X112617250Y-20408000D01*
X112617250Y-32648000D02*
X112617250Y-28711000D01*
X102576250Y-24344000D02*
X102576250Y-20408000D01*
X102576250Y-32648000D02*
X102576250Y-28711000D01*
%TO.C,RV2*%
X85412675Y-20408000D02*
X95453675Y-20408000D01*
X93803675Y-32648000D02*
X95453675Y-32648000D01*
X91304675Y-32648000D02*
X92063675Y-32648000D01*
X88804675Y-32648000D02*
X89563675Y-32648000D01*
X85412675Y-32648000D02*
X87062675Y-32648000D01*
X95453675Y-24344000D02*
X95453675Y-20408000D01*
X95453675Y-32648000D02*
X95453675Y-28711000D01*
X85412675Y-24344000D02*
X85412675Y-20408000D01*
X85412675Y-32648000D02*
X85412675Y-28711000D01*
%TO.C,RV1*%
X68249100Y-20408000D02*
X78290100Y-20408000D01*
X76640100Y-32648000D02*
X78290100Y-32648000D01*
X74141100Y-32648000D02*
X74900100Y-32648000D01*
X71641100Y-32648000D02*
X72400100Y-32648000D01*
X68249100Y-32648000D02*
X69899100Y-32648000D01*
X78290100Y-24344000D02*
X78290100Y-20408000D01*
X78290100Y-32648000D02*
X78290100Y-28711000D01*
X68249100Y-24344000D02*
X68249100Y-20408000D01*
X68249100Y-32648000D02*
X68249100Y-28711000D01*
%TO.C,R35*%
X144270000Y-105255279D02*
X144270000Y-104929721D01*
X145290000Y-105255279D02*
X145290000Y-104929721D01*
%TO.C,R34*%
X105013979Y-112193800D02*
X104688421Y-112193800D01*
X105013979Y-111173800D02*
X104688421Y-111173800D01*
%TO.C,R33*%
X148283200Y-90853479D02*
X148283200Y-90527921D01*
X149303200Y-90853479D02*
X149303200Y-90527921D01*
%TO.C,R32*%
X118818879Y-112193800D02*
X118493321Y-112193800D01*
X118818879Y-111173800D02*
X118493321Y-111173800D01*
%TO.C,R31*%
X108734979Y-114327400D02*
X108409421Y-114327400D01*
X108734979Y-113307400D02*
X108409421Y-113307400D01*
%TO.C,R30*%
X142407421Y-92200000D02*
X142732979Y-92200000D01*
X142407421Y-93220000D02*
X142732979Y-93220000D01*
%TO.C,R29*%
X125262421Y-92200000D02*
X125587979Y-92200000D01*
X125262421Y-93220000D02*
X125587979Y-93220000D01*
%TO.C,R28*%
X108092021Y-92200000D02*
X108417579Y-92200000D01*
X108092021Y-93220000D02*
X108417579Y-93220000D01*
%TO.C,R27*%
X90921621Y-92200000D02*
X91247179Y-92200000D01*
X90921621Y-93220000D02*
X91247179Y-93220000D01*
%TO.C,R26*%
X73751221Y-92200000D02*
X74076779Y-92200000D01*
X73751221Y-93220000D02*
X74076779Y-93220000D01*
%TO.C,R25*%
X141285079Y-75440000D02*
X140959521Y-75440000D01*
X141285079Y-74420000D02*
X140959521Y-74420000D01*
%TO.C,R24*%
X124140079Y-75440000D02*
X123814521Y-75440000D01*
X124140079Y-74420000D02*
X123814521Y-74420000D01*
%TO.C,R23*%
X106969679Y-75440000D02*
X106644121Y-75440000D01*
X106969679Y-74420000D02*
X106644121Y-74420000D01*
%TO.C,R22*%
X89818779Y-75440000D02*
X89493221Y-75440000D01*
X89818779Y-74420000D02*
X89493221Y-74420000D01*
%TO.C,R21*%
X72654279Y-75440000D02*
X72328721Y-75440000D01*
X72654279Y-74420000D02*
X72328721Y-74420000D01*
%TO.C,R20*%
X145374679Y-75440000D02*
X145049121Y-75440000D01*
X145374679Y-74420000D02*
X145049121Y-74420000D01*
%TO.C,R19*%
X128204279Y-75440000D02*
X127878721Y-75440000D01*
X128204279Y-74420000D02*
X127878721Y-74420000D01*
%TO.C,R18*%
X111059279Y-75440000D02*
X110733721Y-75440000D01*
X111059279Y-74420000D02*
X110733721Y-74420000D01*
%TO.C,R17*%
X93888879Y-75440000D02*
X93563321Y-75440000D01*
X93888879Y-74420000D02*
X93563321Y-74420000D01*
%TO.C,R16*%
X76718479Y-75440000D02*
X76392921Y-75440000D01*
X76718479Y-74420000D02*
X76392921Y-74420000D01*
%TO.C,R15*%
X142559821Y-53033200D02*
X142885379Y-53033200D01*
X142559821Y-54053200D02*
X142885379Y-54053200D01*
%TO.C,R14*%
X125389421Y-53033200D02*
X125714979Y-53033200D01*
X125389421Y-54053200D02*
X125714979Y-54053200D01*
%TO.C,R13*%
X108219021Y-53033200D02*
X108544579Y-53033200D01*
X108219021Y-54053200D02*
X108544579Y-54053200D01*
%TO.C,R12*%
X91048621Y-53033200D02*
X91374179Y-53033200D01*
X91048621Y-54053200D02*
X91374179Y-54053200D01*
%TO.C,R11*%
X73903721Y-53033200D02*
X74229279Y-53033200D01*
X73903721Y-54053200D02*
X74229279Y-54053200D01*
%TO.C,R10*%
X141310579Y-36222400D02*
X140985021Y-36222400D01*
X141310579Y-35202400D02*
X140985021Y-35202400D01*
%TO.C,R9*%
X124114779Y-36222400D02*
X123789221Y-36222400D01*
X124114779Y-35202400D02*
X123789221Y-35202400D01*
%TO.C,R8*%
X106995179Y-36222400D02*
X106669621Y-36222400D01*
X106995179Y-35202400D02*
X106669621Y-35202400D01*
%TO.C,R7*%
X89812079Y-36222400D02*
X89486521Y-36222400D01*
X89812079Y-35202400D02*
X89486521Y-35202400D01*
%TO.C,R6*%
X72641579Y-36222400D02*
X72316021Y-36222400D01*
X72641579Y-35202400D02*
X72316021Y-35202400D01*
%TO.C,R5*%
X145374579Y-36222400D02*
X145049021Y-36222400D01*
X145374579Y-35202400D02*
X145049021Y-35202400D01*
%TO.C,R4*%
X128204179Y-36222400D02*
X127878621Y-36222400D01*
X128204179Y-35202400D02*
X127878621Y-35202400D01*
%TO.C,R3*%
X111059179Y-36222400D02*
X110733621Y-36222400D01*
X111059179Y-35202400D02*
X110733621Y-35202400D01*
%TO.C,R2*%
X93886979Y-36222400D02*
X93561421Y-36222400D01*
X93886979Y-35202400D02*
X93561421Y-35202400D01*
%TO.C,R1*%
X76718479Y-36222400D02*
X76392921Y-36222400D01*
X76718479Y-35202400D02*
X76392921Y-35202400D01*
%TO.C,Q20*%
X133326600Y-92527000D02*
X133326600Y-93457000D01*
X133326600Y-95687000D02*
X133326600Y-94757000D01*
X133326600Y-95687000D02*
X135486600Y-95687000D01*
X133326600Y-92527000D02*
X134786600Y-92527000D01*
%TO.C,Q19*%
X116181600Y-92527000D02*
X116181600Y-93457000D01*
X116181600Y-95687000D02*
X116181600Y-94757000D01*
X116181600Y-95687000D02*
X118341600Y-95687000D01*
X116181600Y-92527000D02*
X117641600Y-92527000D01*
%TO.C,Q18*%
X98985800Y-92527000D02*
X98985800Y-93457000D01*
X98985800Y-95687000D02*
X98985800Y-94757000D01*
X98985800Y-95687000D02*
X101145800Y-95687000D01*
X98985800Y-92527000D02*
X100445800Y-92527000D01*
%TO.C,Q17*%
X81815400Y-92527000D02*
X81815400Y-93457000D01*
X81815400Y-95687000D02*
X81815400Y-94757000D01*
X81815400Y-95687000D02*
X83975400Y-95687000D01*
X81815400Y-92527000D02*
X83275400Y-92527000D01*
%TO.C,Q16*%
X65076800Y-92527000D02*
X65076800Y-93457000D01*
X65076800Y-95687000D02*
X65076800Y-94757000D01*
X65076800Y-95687000D02*
X67236800Y-95687000D01*
X65076800Y-92527000D02*
X66536800Y-92527000D01*
%TO.C,Q15*%
X133606000Y-73654800D02*
X133606000Y-74584800D01*
X133606000Y-76814800D02*
X133606000Y-75884800D01*
X133606000Y-76814800D02*
X135766000Y-76814800D01*
X133606000Y-73654800D02*
X135066000Y-73654800D01*
%TO.C,Q14*%
X116511800Y-73654800D02*
X116511800Y-74584800D01*
X116511800Y-76814800D02*
X116511800Y-75884800D01*
X116511800Y-76814800D02*
X118671800Y-76814800D01*
X116511800Y-73654800D02*
X117971800Y-73654800D01*
%TO.C,Q13*%
X99265200Y-73654800D02*
X99265200Y-74584800D01*
X99265200Y-76814800D02*
X99265200Y-75884800D01*
X99265200Y-76814800D02*
X101425200Y-76814800D01*
X99265200Y-73654800D02*
X100725200Y-73654800D01*
%TO.C,Q12*%
X82145600Y-73654800D02*
X82145600Y-74584800D01*
X82145600Y-76814800D02*
X82145600Y-75884800D01*
X82145600Y-76814800D02*
X84305600Y-76814800D01*
X82145600Y-73654800D02*
X83605600Y-73654800D01*
%TO.C,Q11*%
X65102200Y-73654800D02*
X65102200Y-74584800D01*
X65102200Y-76814800D02*
X65102200Y-75884800D01*
X65102200Y-76814800D02*
X67262200Y-76814800D01*
X65102200Y-73654800D02*
X66562200Y-73654800D01*
%TO.C,Q10*%
X133301200Y-53271300D02*
X133301200Y-54201300D01*
X133301200Y-56431300D02*
X133301200Y-55501300D01*
X133301200Y-56431300D02*
X135461200Y-56431300D01*
X133301200Y-53271300D02*
X134761200Y-53271300D01*
%TO.C,Q9*%
X116156200Y-53271300D02*
X116156200Y-54201300D01*
X116156200Y-56431300D02*
X116156200Y-55501300D01*
X116156200Y-56431300D02*
X118316200Y-56431300D01*
X116156200Y-53271300D02*
X117616200Y-53271300D01*
%TO.C,Q8*%
X98960400Y-53271300D02*
X98960400Y-54201300D01*
X98960400Y-56431300D02*
X98960400Y-55501300D01*
X98960400Y-56431300D02*
X101120400Y-56431300D01*
X98960400Y-53271300D02*
X100420400Y-53271300D01*
%TO.C,Q7*%
X81790000Y-53271300D02*
X81790000Y-54201300D01*
X81790000Y-56431300D02*
X81790000Y-55501300D01*
X81790000Y-56431300D02*
X83950000Y-56431300D01*
X81790000Y-53271300D02*
X83250000Y-53271300D01*
%TO.C,Q6*%
X65051400Y-53271300D02*
X65051400Y-54201300D01*
X65051400Y-56431300D02*
X65051400Y-55501300D01*
X65051400Y-56431300D02*
X67211400Y-56431300D01*
X65051400Y-53271300D02*
X66511400Y-53271300D01*
%TO.C,Q5*%
X133606000Y-34792800D02*
X133606000Y-35722800D01*
X133606000Y-37952800D02*
X133606000Y-37022800D01*
X133606000Y-37952800D02*
X135766000Y-37952800D01*
X133606000Y-34792800D02*
X135066000Y-34792800D01*
%TO.C,Q4*%
X116511800Y-34792800D02*
X116511800Y-35722800D01*
X116511800Y-37952800D02*
X116511800Y-37022800D01*
X116511800Y-37952800D02*
X118671800Y-37952800D01*
X116511800Y-34792800D02*
X117971800Y-34792800D01*
%TO.C,Q3*%
X99265200Y-34792800D02*
X99265200Y-35722800D01*
X99265200Y-37952800D02*
X99265200Y-37022800D01*
X99265200Y-37952800D02*
X101425200Y-37952800D01*
X99265200Y-34792800D02*
X100725200Y-34792800D01*
%TO.C,Q2*%
X82145600Y-34792800D02*
X82145600Y-35722800D01*
X82145600Y-37952800D02*
X82145600Y-37022800D01*
X82145600Y-37952800D02*
X84305600Y-37952800D01*
X82145600Y-34792800D02*
X83605600Y-34792800D01*
%TO.C,Q1*%
X65102200Y-34792800D02*
X65102200Y-35722800D01*
X65102200Y-37952800D02*
X65102200Y-37022800D01*
X65102200Y-37952800D02*
X67262200Y-37952800D01*
X65102200Y-34792800D02*
X66562200Y-34792800D01*
%TO.C,D20*%
X144463400Y-95251400D02*
X146163400Y-95251400D01*
X146163400Y-95251400D02*
X146163400Y-92701400D01*
X144463400Y-95251400D02*
X144463400Y-92701400D01*
%TO.C,D19*%
X127267600Y-95251400D02*
X128967600Y-95251400D01*
X128967600Y-95251400D02*
X128967600Y-92701400D01*
X127267600Y-95251400D02*
X127267600Y-92701400D01*
%TO.C,D18*%
X110122600Y-95251400D02*
X111822600Y-95251400D01*
X111822600Y-95251400D02*
X111822600Y-92701400D01*
X110122600Y-95251400D02*
X110122600Y-92701400D01*
%TO.C,D17*%
X93028400Y-95251400D02*
X94728400Y-95251400D01*
X94728400Y-95251400D02*
X94728400Y-92701400D01*
X93028400Y-95251400D02*
X93028400Y-92701400D01*
%TO.C,D16*%
X75807200Y-95251400D02*
X77507200Y-95251400D01*
X77507200Y-95251400D02*
X77507200Y-92701400D01*
X75807200Y-95251400D02*
X75807200Y-92701400D01*
%TO.C,D15*%
X134416530Y-90538637D02*
G75*
G02*
X132334439Y-90538800I-1041130J1079837D01*
G01*
X134416530Y-88378963D02*
G75*
G03*
X132334439Y-88378800I-1041130J-1079837D01*
G01*
X135047735Y-90537408D02*
G75*
G02*
X131815400Y-90694316I-1672335J1078608D01*
G01*
X135047735Y-88380192D02*
G75*
G03*
X131815400Y-88223284I-1672335J-1078608D01*
G01*
X131815400Y-88222800D02*
X131815400Y-88378800D01*
X131815400Y-90538800D02*
X131815400Y-90694800D01*
%TO.C,D14*%
X117246130Y-90538637D02*
G75*
G02*
X115164039Y-90538800I-1041130J1079837D01*
G01*
X117246130Y-88378963D02*
G75*
G03*
X115164039Y-88378800I-1041130J-1079837D01*
G01*
X117877335Y-90537408D02*
G75*
G02*
X114645000Y-90694316I-1672335J1078608D01*
G01*
X117877335Y-88380192D02*
G75*
G03*
X114645000Y-88223284I-1672335J-1078608D01*
G01*
X114645000Y-88222800D02*
X114645000Y-88378800D01*
X114645000Y-90538800D02*
X114645000Y-90694800D01*
%TO.C,D13*%
X100075730Y-90538637D02*
G75*
G02*
X97993639Y-90538800I-1041130J1079837D01*
G01*
X100075730Y-88378963D02*
G75*
G03*
X97993639Y-88378800I-1041130J-1079837D01*
G01*
X100706935Y-90537408D02*
G75*
G02*
X97474600Y-90694316I-1672335J1078608D01*
G01*
X100706935Y-88380192D02*
G75*
G03*
X97474600Y-88223284I-1672335J-1078608D01*
G01*
X97474600Y-88222800D02*
X97474600Y-88378800D01*
X97474600Y-90538800D02*
X97474600Y-90694800D01*
%TO.C,D12*%
X82905330Y-90538637D02*
G75*
G02*
X80823239Y-90538800I-1041130J1079837D01*
G01*
X82905330Y-88378963D02*
G75*
G03*
X80823239Y-88378800I-1041130J-1079837D01*
G01*
X83536535Y-90537408D02*
G75*
G02*
X80304200Y-90694316I-1672335J1078608D01*
G01*
X83536535Y-88380192D02*
G75*
G03*
X80304200Y-88223284I-1672335J-1078608D01*
G01*
X80304200Y-88222800D02*
X80304200Y-88378800D01*
X80304200Y-90538800D02*
X80304200Y-90694800D01*
%TO.C,D11*%
X66204830Y-90538637D02*
G75*
G02*
X64122739Y-90538800I-1041130J1079837D01*
G01*
X66204830Y-88378963D02*
G75*
G03*
X64122739Y-88378800I-1041130J-1079837D01*
G01*
X66836035Y-90537408D02*
G75*
G02*
X63603700Y-90694316I-1672335J1078608D01*
G01*
X66836035Y-88380192D02*
G75*
G03*
X63603700Y-88223284I-1672335J-1078608D01*
G01*
X63603700Y-88222800D02*
X63603700Y-88378800D01*
X63603700Y-90538800D02*
X63603700Y-90694800D01*
%TO.C,D10*%
X144844400Y-56097300D02*
X146544400Y-56097300D01*
X146544400Y-56097300D02*
X146544400Y-53547300D01*
X144844400Y-56097300D02*
X144844400Y-53547300D01*
%TO.C,D9*%
X127267600Y-56084600D02*
X128967600Y-56084600D01*
X128967600Y-56084600D02*
X128967600Y-53534600D01*
X127267600Y-56084600D02*
X127267600Y-53534600D01*
%TO.C,D8*%
X110122600Y-56097300D02*
X111822600Y-56097300D01*
X111822600Y-56097300D02*
X111822600Y-53547300D01*
X110122600Y-56097300D02*
X110122600Y-53547300D01*
%TO.C,D7*%
X92977600Y-56097300D02*
X94677600Y-56097300D01*
X94677600Y-56097300D02*
X94677600Y-53547300D01*
X92977600Y-56097300D02*
X92977600Y-53547300D01*
%TO.C,D6*%
X75972300Y-56097300D02*
X77672300Y-56097300D01*
X77672300Y-56097300D02*
X77672300Y-53547300D01*
X75972300Y-56097300D02*
X75972300Y-53547300D01*
%TO.C,D5*%
X134391130Y-51321037D02*
G75*
G02*
X132309039Y-51321200I-1041130J1079837D01*
G01*
X134391130Y-49161363D02*
G75*
G03*
X132309039Y-49161200I-1041130J-1079837D01*
G01*
X135022335Y-51319808D02*
G75*
G02*
X131790000Y-51476716I-1672335J1078608D01*
G01*
X135022335Y-49162592D02*
G75*
G03*
X131790000Y-49005684I-1672335J-1078608D01*
G01*
X131790000Y-49005200D02*
X131790000Y-49161200D01*
X131790000Y-51321200D02*
X131790000Y-51477200D01*
%TO.C,D4*%
X117220730Y-51333737D02*
G75*
G02*
X115138639Y-51333900I-1041130J1079837D01*
G01*
X117220730Y-49174063D02*
G75*
G03*
X115138639Y-49173900I-1041130J-1079837D01*
G01*
X117851935Y-51332508D02*
G75*
G02*
X114619600Y-51489416I-1672335J1078608D01*
G01*
X117851935Y-49175292D02*
G75*
G03*
X114619600Y-49018384I-1672335J-1078608D01*
G01*
X114619600Y-49017900D02*
X114619600Y-49173900D01*
X114619600Y-51333900D02*
X114619600Y-51489900D01*
%TO.C,D3*%
X100050330Y-51333737D02*
G75*
G02*
X97968239Y-51333900I-1041130J1079837D01*
G01*
X100050330Y-49174063D02*
G75*
G03*
X97968239Y-49173900I-1041130J-1079837D01*
G01*
X100681535Y-51332508D02*
G75*
G02*
X97449200Y-51489416I-1672335J1078608D01*
G01*
X100681535Y-49175292D02*
G75*
G03*
X97449200Y-49018384I-1672335J-1078608D01*
G01*
X97449200Y-49017900D02*
X97449200Y-49173900D01*
X97449200Y-51333900D02*
X97449200Y-51489900D01*
%TO.C,D2*%
X82879930Y-51333737D02*
G75*
G02*
X80797839Y-51333900I-1041130J1079837D01*
G01*
X82879930Y-49174063D02*
G75*
G03*
X80797839Y-49173900I-1041130J-1079837D01*
G01*
X83511135Y-51332508D02*
G75*
G02*
X80278800Y-51489416I-1672335J1078608D01*
G01*
X83511135Y-49175292D02*
G75*
G03*
X80278800Y-49018384I-1672335J-1078608D01*
G01*
X80278800Y-49017900D02*
X80278800Y-49173900D01*
X80278800Y-51333900D02*
X80278800Y-51489900D01*
%TO.C,D1*%
X66179430Y-51333737D02*
G75*
G02*
X64097339Y-51333900I-1041130J1079837D01*
G01*
X66179430Y-49174063D02*
G75*
G03*
X64097339Y-49173900I-1041130J-1079837D01*
G01*
X66810635Y-51332508D02*
G75*
G02*
X63578300Y-51489416I-1672335J1078608D01*
G01*
X66810635Y-49175292D02*
G75*
G03*
X63578300Y-49018384I-1672335J-1078608D01*
G01*
X63578300Y-49017900D02*
X63578300Y-49173900D01*
X63578300Y-51333900D02*
X63578300Y-51489900D01*
%TO.C,C13*%
X148071621Y-109281500D02*
X148397179Y-109281500D01*
X148071621Y-110301500D02*
X148397179Y-110301500D01*
%TO.C,C11*%
X75554300Y-105069521D02*
X75554300Y-105395079D01*
X74534300Y-105069521D02*
X74534300Y-105395079D01*
%TO.C,C10*%
X134285400Y-82709936D02*
X134285400Y-83914064D01*
X132465400Y-82709936D02*
X132465400Y-83914064D01*
%TO.C,C9*%
X117165800Y-82709936D02*
X117165800Y-83914064D01*
X115345800Y-82709936D02*
X115345800Y-83914064D01*
%TO.C,C8*%
X99919200Y-82709936D02*
X99919200Y-83914064D01*
X98099200Y-82709936D02*
X98099200Y-83914064D01*
%TO.C,C7*%
X82799600Y-82709936D02*
X82799600Y-83914064D01*
X80979600Y-82709936D02*
X80979600Y-83914064D01*
%TO.C,C6*%
X65794300Y-82709936D02*
X65794300Y-83914064D01*
X63974300Y-82709936D02*
X63974300Y-83914064D01*
%TO.C,C5*%
X134285400Y-43619336D02*
X134285400Y-44823464D01*
X132465400Y-43619336D02*
X132465400Y-44823464D01*
%TO.C,C4*%
X117165800Y-43619336D02*
X117165800Y-44823464D01*
X115345800Y-43619336D02*
X115345800Y-44823464D01*
%TO.C,C3*%
X99919200Y-43619336D02*
X99919200Y-44823464D01*
X98099200Y-43619336D02*
X98099200Y-44823464D01*
%TO.C,C2*%
X82799600Y-43619336D02*
X82799600Y-44823464D01*
X80979600Y-43619336D02*
X80979600Y-44823464D01*
%TO.C,C1*%
X65794300Y-43619336D02*
X65794300Y-44823464D01*
X63974300Y-43619336D02*
X63974300Y-44823464D01*
%TO.C,J3*%
D12*
X137995066Y-97839280D02*
X137995066Y-98553566D01*
X137947447Y-98696423D01*
X137852209Y-98791661D01*
X137709352Y-98839280D01*
X137614114Y-98839280D01*
X138376019Y-97839280D02*
X138995066Y-97839280D01*
X138661733Y-98220233D01*
X138804590Y-98220233D01*
X138899828Y-98267852D01*
X138947447Y-98315471D01*
X138995066Y-98410709D01*
X138995066Y-98648804D01*
X138947447Y-98744042D01*
X138899828Y-98791661D01*
X138804590Y-98839280D01*
X138518876Y-98839280D01*
X138423638Y-98791661D01*
X138376019Y-98744042D01*
%TO.C,J1*%
X85163066Y-97750380D02*
X85163066Y-98464666D01*
X85115447Y-98607523D01*
X85020209Y-98702761D01*
X84877352Y-98750380D01*
X84782114Y-98750380D01*
X86163066Y-98750380D02*
X85591638Y-98750380D01*
X85877352Y-98750380D02*
X85877352Y-97750380D01*
X85782114Y-97893238D01*
X85686876Y-97988476D01*
X85591638Y-98036095D01*
%TO.C,U1*%
X152666795Y-86612480D02*
X152666795Y-87422004D01*
X152714414Y-87517242D01*
X152762033Y-87564861D01*
X152857271Y-87612480D01*
X153047747Y-87612480D01*
X153142985Y-87564861D01*
X153190604Y-87517242D01*
X153238223Y-87422004D01*
X153238223Y-86612480D01*
X154238223Y-87612480D02*
X153666795Y-87612480D01*
X153952509Y-87612480D02*
X153952509Y-86612480D01*
X153857271Y-86755338D01*
X153762033Y-86850576D01*
X153666795Y-86898195D01*
%TO.C,RV24*%
X158110180Y-97273928D02*
X157633990Y-97607261D01*
X158110180Y-97845357D02*
X157110180Y-97845357D01*
X157110180Y-97464404D01*
X157157800Y-97369166D01*
X157205419Y-97321547D01*
X157300657Y-97273928D01*
X157443514Y-97273928D01*
X157538752Y-97321547D01*
X157586371Y-97369166D01*
X157633990Y-97464404D01*
X157633990Y-97845357D01*
X157110180Y-96988214D02*
X158110180Y-96654880D01*
X157110180Y-96321547D01*
X157205419Y-96035833D02*
X157157800Y-95988214D01*
X157110180Y-95892976D01*
X157110180Y-95654880D01*
X157157800Y-95559642D01*
X157205419Y-95512023D01*
X157300657Y-95464404D01*
X157395895Y-95464404D01*
X157538752Y-95512023D01*
X158110180Y-96083452D01*
X158110180Y-95464404D01*
X157443514Y-94607261D02*
X158110180Y-94607261D01*
X157062561Y-94845357D02*
X157776847Y-95083452D01*
X157776847Y-94464404D01*
%TO.C,RV23*%
X124693971Y-98034380D02*
X124360638Y-97558190D01*
X124122542Y-98034380D02*
X124122542Y-97034380D01*
X124503495Y-97034380D01*
X124598733Y-97082000D01*
X124646352Y-97129619D01*
X124693971Y-97224857D01*
X124693971Y-97367714D01*
X124646352Y-97462952D01*
X124598733Y-97510571D01*
X124503495Y-97558190D01*
X124122542Y-97558190D01*
X124979685Y-97034380D02*
X125313019Y-98034380D01*
X125646352Y-97034380D01*
X125932066Y-97129619D02*
X125979685Y-97082000D01*
X126074923Y-97034380D01*
X126313019Y-97034380D01*
X126408257Y-97082000D01*
X126455876Y-97129619D01*
X126503495Y-97224857D01*
X126503495Y-97320095D01*
X126455876Y-97462952D01*
X125884447Y-98034380D01*
X126503495Y-98034380D01*
X126836828Y-97034380D02*
X127455876Y-97034380D01*
X127122542Y-97415333D01*
X127265400Y-97415333D01*
X127360638Y-97462952D01*
X127408257Y-97510571D01*
X127455876Y-97605809D01*
X127455876Y-97843904D01*
X127408257Y-97939142D01*
X127360638Y-97986761D01*
X127265400Y-98034380D01*
X126979685Y-98034380D01*
X126884447Y-97986761D01*
X126836828Y-97939142D01*
%TO.C,RV22*%
X110876371Y-98034380D02*
X110543038Y-97558190D01*
X110304942Y-98034380D02*
X110304942Y-97034380D01*
X110685895Y-97034380D01*
X110781133Y-97082000D01*
X110828752Y-97129619D01*
X110876371Y-97224857D01*
X110876371Y-97367714D01*
X110828752Y-97462952D01*
X110781133Y-97510571D01*
X110685895Y-97558190D01*
X110304942Y-97558190D01*
X111162085Y-97034380D02*
X111495419Y-98034380D01*
X111828752Y-97034380D01*
X112114466Y-97129619D02*
X112162085Y-97082000D01*
X112257323Y-97034380D01*
X112495419Y-97034380D01*
X112590657Y-97082000D01*
X112638276Y-97129619D01*
X112685895Y-97224857D01*
X112685895Y-97320095D01*
X112638276Y-97462952D01*
X112066847Y-98034380D01*
X112685895Y-98034380D01*
X113066847Y-97129619D02*
X113114466Y-97082000D01*
X113209704Y-97034380D01*
X113447800Y-97034380D01*
X113543038Y-97082000D01*
X113590657Y-97129619D01*
X113638276Y-97224857D01*
X113638276Y-97320095D01*
X113590657Y-97462952D01*
X113019228Y-98034380D01*
X113638276Y-98034380D01*
%TO.C,RV21*%
X97058771Y-98034380D02*
X96725438Y-97558190D01*
X96487342Y-98034380D02*
X96487342Y-97034380D01*
X96868295Y-97034380D01*
X96963533Y-97082000D01*
X97011152Y-97129619D01*
X97058771Y-97224857D01*
X97058771Y-97367714D01*
X97011152Y-97462952D01*
X96963533Y-97510571D01*
X96868295Y-97558190D01*
X96487342Y-97558190D01*
X97344485Y-97034380D02*
X97677819Y-98034380D01*
X98011152Y-97034380D01*
X98296866Y-97129619D02*
X98344485Y-97082000D01*
X98439723Y-97034380D01*
X98677819Y-97034380D01*
X98773057Y-97082000D01*
X98820676Y-97129619D01*
X98868295Y-97224857D01*
X98868295Y-97320095D01*
X98820676Y-97462952D01*
X98249247Y-98034380D01*
X98868295Y-98034380D01*
X99820676Y-98034380D02*
X99249247Y-98034380D01*
X99534961Y-98034380D02*
X99534961Y-97034380D01*
X99439723Y-97177238D01*
X99344485Y-97272476D01*
X99249247Y-97320095D01*
%TO.C,RV20*%
X148569780Y-80538528D02*
X148093590Y-80871861D01*
X148569780Y-81109957D02*
X147569780Y-81109957D01*
X147569780Y-80729004D01*
X147617400Y-80633766D01*
X147665019Y-80586147D01*
X147760257Y-80538528D01*
X147903114Y-80538528D01*
X147998352Y-80586147D01*
X148045971Y-80633766D01*
X148093590Y-80729004D01*
X148093590Y-81109957D01*
X147569780Y-80252814D02*
X148569780Y-79919480D01*
X147569780Y-79586147D01*
X147665019Y-79300433D02*
X147617400Y-79252814D01*
X147569780Y-79157576D01*
X147569780Y-78919480D01*
X147617400Y-78824242D01*
X147665019Y-78776623D01*
X147760257Y-78729004D01*
X147855495Y-78729004D01*
X147998352Y-78776623D01*
X148569780Y-79348052D01*
X148569780Y-78729004D01*
X147569780Y-78109957D02*
X147569780Y-78014719D01*
X147617400Y-77919480D01*
X147665019Y-77871861D01*
X147760257Y-77824242D01*
X147950733Y-77776623D01*
X148188828Y-77776623D01*
X148379304Y-77824242D01*
X148474542Y-77871861D01*
X148522161Y-77919480D01*
X148569780Y-78014719D01*
X148569780Y-78109957D01*
X148522161Y-78205195D01*
X148474542Y-78252814D01*
X148379304Y-78300433D01*
X148188828Y-78348052D01*
X147950733Y-78348052D01*
X147760257Y-78300433D01*
X147665019Y-78252814D01*
X147617400Y-78205195D01*
X147569780Y-78109957D01*
%TO.C,RV19*%
X131406205Y-80208328D02*
X130930015Y-80541661D01*
X131406205Y-80779757D02*
X130406205Y-80779757D01*
X130406205Y-80398804D01*
X130453825Y-80303566D01*
X130501444Y-80255947D01*
X130596682Y-80208328D01*
X130739539Y-80208328D01*
X130834777Y-80255947D01*
X130882396Y-80303566D01*
X130930015Y-80398804D01*
X130930015Y-80779757D01*
X130406205Y-79922614D02*
X131406205Y-79589280D01*
X130406205Y-79255947D01*
X131406205Y-78398804D02*
X131406205Y-78970233D01*
X131406205Y-78684519D02*
X130406205Y-78684519D01*
X130549063Y-78779757D01*
X130644301Y-78874995D01*
X130691920Y-78970233D01*
X131406205Y-77922614D02*
X131406205Y-77732138D01*
X131358586Y-77636900D01*
X131310967Y-77589280D01*
X131168110Y-77494042D01*
X130977634Y-77446423D01*
X130596682Y-77446423D01*
X130501444Y-77494042D01*
X130453825Y-77541661D01*
X130406205Y-77636900D01*
X130406205Y-77827376D01*
X130453825Y-77922614D01*
X130501444Y-77970233D01*
X130596682Y-78017852D01*
X130834777Y-78017852D01*
X130930015Y-77970233D01*
X130977634Y-77922614D01*
X131025253Y-77827376D01*
X131025253Y-77636900D01*
X130977634Y-77541661D01*
X130930015Y-77494042D01*
X130834777Y-77446423D01*
%TO.C,RV18*%
X114242630Y-80106728D02*
X113766440Y-80440061D01*
X114242630Y-80678157D02*
X113242630Y-80678157D01*
X113242630Y-80297204D01*
X113290250Y-80201966D01*
X113337869Y-80154347D01*
X113433107Y-80106728D01*
X113575964Y-80106728D01*
X113671202Y-80154347D01*
X113718821Y-80201966D01*
X113766440Y-80297204D01*
X113766440Y-80678157D01*
X113242630Y-79821014D02*
X114242630Y-79487680D01*
X113242630Y-79154347D01*
X114242630Y-78297204D02*
X114242630Y-78868633D01*
X114242630Y-78582919D02*
X113242630Y-78582919D01*
X113385488Y-78678157D01*
X113480726Y-78773395D01*
X113528345Y-78868633D01*
X113671202Y-77725776D02*
X113623583Y-77821014D01*
X113575964Y-77868633D01*
X113480726Y-77916252D01*
X113433107Y-77916252D01*
X113337869Y-77868633D01*
X113290250Y-77821014D01*
X113242630Y-77725776D01*
X113242630Y-77535300D01*
X113290250Y-77440061D01*
X113337869Y-77392442D01*
X113433107Y-77344823D01*
X113480726Y-77344823D01*
X113575964Y-77392442D01*
X113623583Y-77440061D01*
X113671202Y-77535300D01*
X113671202Y-77725776D01*
X113718821Y-77821014D01*
X113766440Y-77868633D01*
X113861678Y-77916252D01*
X114052154Y-77916252D01*
X114147392Y-77868633D01*
X114195011Y-77821014D01*
X114242630Y-77725776D01*
X114242630Y-77535300D01*
X114195011Y-77440061D01*
X114147392Y-77392442D01*
X114052154Y-77344823D01*
X113861678Y-77344823D01*
X113766440Y-77392442D01*
X113718821Y-77440061D01*
X113671202Y-77535300D01*
%TO.C,RV17*%
X97079055Y-80309928D02*
X96602865Y-80643261D01*
X97079055Y-80881357D02*
X96079055Y-80881357D01*
X96079055Y-80500404D01*
X96126675Y-80405166D01*
X96174294Y-80357547D01*
X96269532Y-80309928D01*
X96412389Y-80309928D01*
X96507627Y-80357547D01*
X96555246Y-80405166D01*
X96602865Y-80500404D01*
X96602865Y-80881357D01*
X96079055Y-80024214D02*
X97079055Y-79690880D01*
X96079055Y-79357547D01*
X97079055Y-78500404D02*
X97079055Y-79071833D01*
X97079055Y-78786119D02*
X96079055Y-78786119D01*
X96221913Y-78881357D01*
X96317151Y-78976595D01*
X96364770Y-79071833D01*
X96079055Y-78167071D02*
X96079055Y-77500404D01*
X97079055Y-77928976D01*
%TO.C,RV16*%
X79915480Y-80309928D02*
X79439290Y-80643261D01*
X79915480Y-80881357D02*
X78915480Y-80881357D01*
X78915480Y-80500404D01*
X78963100Y-80405166D01*
X79010719Y-80357547D01*
X79105957Y-80309928D01*
X79248814Y-80309928D01*
X79344052Y-80357547D01*
X79391671Y-80405166D01*
X79439290Y-80500404D01*
X79439290Y-80881357D01*
X78915480Y-80024214D02*
X79915480Y-79690880D01*
X78915480Y-79357547D01*
X79915480Y-78500404D02*
X79915480Y-79071833D01*
X79915480Y-78786119D02*
X78915480Y-78786119D01*
X79058338Y-78881357D01*
X79153576Y-78976595D01*
X79201195Y-79071833D01*
X78915480Y-77643261D02*
X78915480Y-77833738D01*
X78963100Y-77928976D01*
X79010719Y-77976595D01*
X79153576Y-78071833D01*
X79344052Y-78119452D01*
X79725004Y-78119452D01*
X79820242Y-78071833D01*
X79867861Y-78024214D01*
X79915480Y-77928976D01*
X79915480Y-77738500D01*
X79867861Y-77643261D01*
X79820242Y-77595642D01*
X79725004Y-77548023D01*
X79486909Y-77548023D01*
X79391671Y-77595642D01*
X79344052Y-77643261D01*
X79296433Y-77738500D01*
X79296433Y-77928976D01*
X79344052Y-78024214D01*
X79391671Y-78071833D01*
X79486909Y-78119452D01*
%TO.C,RV15*%
X148696780Y-62554728D02*
X148220590Y-62888061D01*
X148696780Y-63126157D02*
X147696780Y-63126157D01*
X147696780Y-62745204D01*
X147744400Y-62649966D01*
X147792019Y-62602347D01*
X147887257Y-62554728D01*
X148030114Y-62554728D01*
X148125352Y-62602347D01*
X148172971Y-62649966D01*
X148220590Y-62745204D01*
X148220590Y-63126157D01*
X147696780Y-62269014D02*
X148696780Y-61935680D01*
X147696780Y-61602347D01*
X148696780Y-60745204D02*
X148696780Y-61316633D01*
X148696780Y-61030919D02*
X147696780Y-61030919D01*
X147839638Y-61126157D01*
X147934876Y-61221395D01*
X147982495Y-61316633D01*
X147696780Y-59840442D02*
X147696780Y-60316633D01*
X148172971Y-60364252D01*
X148125352Y-60316633D01*
X148077733Y-60221395D01*
X148077733Y-59983300D01*
X148125352Y-59888061D01*
X148172971Y-59840442D01*
X148268209Y-59792823D01*
X148506304Y-59792823D01*
X148601542Y-59840442D01*
X148649161Y-59888061D01*
X148696780Y-59983300D01*
X148696780Y-60221395D01*
X148649161Y-60316633D01*
X148601542Y-60364252D01*
%TO.C,RV14*%
X131533205Y-62554728D02*
X131057015Y-62888061D01*
X131533205Y-63126157D02*
X130533205Y-63126157D01*
X130533205Y-62745204D01*
X130580825Y-62649966D01*
X130628444Y-62602347D01*
X130723682Y-62554728D01*
X130866539Y-62554728D01*
X130961777Y-62602347D01*
X131009396Y-62649966D01*
X131057015Y-62745204D01*
X131057015Y-63126157D01*
X130533205Y-62269014D02*
X131533205Y-61935680D01*
X130533205Y-61602347D01*
X131533205Y-60745204D02*
X131533205Y-61316633D01*
X131533205Y-61030919D02*
X130533205Y-61030919D01*
X130676063Y-61126157D01*
X130771301Y-61221395D01*
X130818920Y-61316633D01*
X130866539Y-59888061D02*
X131533205Y-59888061D01*
X130485586Y-60126157D02*
X131199872Y-60364252D01*
X131199872Y-59745204D01*
%TO.C,RV13*%
X114369630Y-62554728D02*
X113893440Y-62888061D01*
X114369630Y-63126157D02*
X113369630Y-63126157D01*
X113369630Y-62745204D01*
X113417250Y-62649966D01*
X113464869Y-62602347D01*
X113560107Y-62554728D01*
X113702964Y-62554728D01*
X113798202Y-62602347D01*
X113845821Y-62649966D01*
X113893440Y-62745204D01*
X113893440Y-63126157D01*
X113369630Y-62269014D02*
X114369630Y-61935680D01*
X113369630Y-61602347D01*
X114369630Y-60745204D02*
X114369630Y-61316633D01*
X114369630Y-61030919D02*
X113369630Y-61030919D01*
X113512488Y-61126157D01*
X113607726Y-61221395D01*
X113655345Y-61316633D01*
X113369630Y-60411871D02*
X113369630Y-59792823D01*
X113750583Y-60126157D01*
X113750583Y-59983300D01*
X113798202Y-59888061D01*
X113845821Y-59840442D01*
X113941059Y-59792823D01*
X114179154Y-59792823D01*
X114274392Y-59840442D01*
X114322011Y-59888061D01*
X114369630Y-59983300D01*
X114369630Y-60269014D01*
X114322011Y-60364252D01*
X114274392Y-60411871D01*
%TO.C,RV12*%
X97206055Y-62554728D02*
X96729865Y-62888061D01*
X97206055Y-63126157D02*
X96206055Y-63126157D01*
X96206055Y-62745204D01*
X96253675Y-62649966D01*
X96301294Y-62602347D01*
X96396532Y-62554728D01*
X96539389Y-62554728D01*
X96634627Y-62602347D01*
X96682246Y-62649966D01*
X96729865Y-62745204D01*
X96729865Y-63126157D01*
X96206055Y-62269014D02*
X97206055Y-61935680D01*
X96206055Y-61602347D01*
X97206055Y-60745204D02*
X97206055Y-61316633D01*
X97206055Y-61030919D02*
X96206055Y-61030919D01*
X96348913Y-61126157D01*
X96444151Y-61221395D01*
X96491770Y-61316633D01*
X96301294Y-60364252D02*
X96253675Y-60316633D01*
X96206055Y-60221395D01*
X96206055Y-59983300D01*
X96253675Y-59888061D01*
X96301294Y-59840442D01*
X96396532Y-59792823D01*
X96491770Y-59792823D01*
X96634627Y-59840442D01*
X97206055Y-60411871D01*
X97206055Y-59792823D01*
%TO.C,RV11*%
X80042480Y-62554728D02*
X79566290Y-62888061D01*
X80042480Y-63126157D02*
X79042480Y-63126157D01*
X79042480Y-62745204D01*
X79090100Y-62649966D01*
X79137719Y-62602347D01*
X79232957Y-62554728D01*
X79375814Y-62554728D01*
X79471052Y-62602347D01*
X79518671Y-62649966D01*
X79566290Y-62745204D01*
X79566290Y-63126157D01*
X79042480Y-62269014D02*
X80042480Y-61935680D01*
X79042480Y-61602347D01*
X80042480Y-60745204D02*
X80042480Y-61316633D01*
X80042480Y-61030919D02*
X79042480Y-61030919D01*
X79185338Y-61126157D01*
X79280576Y-61221395D01*
X79328195Y-61316633D01*
X80042480Y-59792823D02*
X80042480Y-60364252D01*
X80042480Y-60078538D02*
X79042480Y-60078538D01*
X79185338Y-60173776D01*
X79280576Y-60269014D01*
X79328195Y-60364252D01*
%TO.C,RV10*%
X148595180Y-40807528D02*
X148118990Y-41140861D01*
X148595180Y-41378957D02*
X147595180Y-41378957D01*
X147595180Y-40998004D01*
X147642800Y-40902766D01*
X147690419Y-40855147D01*
X147785657Y-40807528D01*
X147928514Y-40807528D01*
X148023752Y-40855147D01*
X148071371Y-40902766D01*
X148118990Y-40998004D01*
X148118990Y-41378957D01*
X147595180Y-40521814D02*
X148595180Y-40188480D01*
X147595180Y-39855147D01*
X148595180Y-38998004D02*
X148595180Y-39569433D01*
X148595180Y-39283719D02*
X147595180Y-39283719D01*
X147738038Y-39378957D01*
X147833276Y-39474195D01*
X147880895Y-39569433D01*
X147595180Y-38378957D02*
X147595180Y-38283719D01*
X147642800Y-38188480D01*
X147690419Y-38140861D01*
X147785657Y-38093242D01*
X147976133Y-38045623D01*
X148214228Y-38045623D01*
X148404704Y-38093242D01*
X148499942Y-38140861D01*
X148547561Y-38188480D01*
X148595180Y-38283719D01*
X148595180Y-38378957D01*
X148547561Y-38474195D01*
X148499942Y-38521814D01*
X148404704Y-38569433D01*
X148214228Y-38617052D01*
X147976133Y-38617052D01*
X147785657Y-38569433D01*
X147690419Y-38521814D01*
X147642800Y-38474195D01*
X147595180Y-38378957D01*
%TO.C,RV9*%
X131431605Y-40331338D02*
X130955415Y-40664671D01*
X131431605Y-40902766D02*
X130431605Y-40902766D01*
X130431605Y-40521814D01*
X130479225Y-40426576D01*
X130526844Y-40378957D01*
X130622082Y-40331338D01*
X130764939Y-40331338D01*
X130860177Y-40378957D01*
X130907796Y-40426576D01*
X130955415Y-40521814D01*
X130955415Y-40902766D01*
X130431605Y-40045623D02*
X131431605Y-39712290D01*
X130431605Y-39378957D01*
X131431605Y-38998004D02*
X131431605Y-38807528D01*
X131383986Y-38712290D01*
X131336367Y-38664671D01*
X131193510Y-38569433D01*
X131003034Y-38521814D01*
X130622082Y-38521814D01*
X130526844Y-38569433D01*
X130479225Y-38617052D01*
X130431605Y-38712290D01*
X130431605Y-38902766D01*
X130479225Y-38998004D01*
X130526844Y-39045623D01*
X130622082Y-39093242D01*
X130860177Y-39093242D01*
X130955415Y-39045623D01*
X131003034Y-38998004D01*
X131050653Y-38902766D01*
X131050653Y-38712290D01*
X131003034Y-38617052D01*
X130955415Y-38569433D01*
X130860177Y-38521814D01*
%TO.C,RV8*%
X114268030Y-40331338D02*
X113791840Y-40664671D01*
X114268030Y-40902766D02*
X113268030Y-40902766D01*
X113268030Y-40521814D01*
X113315650Y-40426576D01*
X113363269Y-40378957D01*
X113458507Y-40331338D01*
X113601364Y-40331338D01*
X113696602Y-40378957D01*
X113744221Y-40426576D01*
X113791840Y-40521814D01*
X113791840Y-40902766D01*
X113268030Y-40045623D02*
X114268030Y-39712290D01*
X113268030Y-39378957D01*
X113696602Y-38902766D02*
X113648983Y-38998004D01*
X113601364Y-39045623D01*
X113506126Y-39093242D01*
X113458507Y-39093242D01*
X113363269Y-39045623D01*
X113315650Y-38998004D01*
X113268030Y-38902766D01*
X113268030Y-38712290D01*
X113315650Y-38617052D01*
X113363269Y-38569433D01*
X113458507Y-38521814D01*
X113506126Y-38521814D01*
X113601364Y-38569433D01*
X113648983Y-38617052D01*
X113696602Y-38712290D01*
X113696602Y-38902766D01*
X113744221Y-38998004D01*
X113791840Y-39045623D01*
X113887078Y-39093242D01*
X114077554Y-39093242D01*
X114172792Y-39045623D01*
X114220411Y-38998004D01*
X114268030Y-38902766D01*
X114268030Y-38712290D01*
X114220411Y-38617052D01*
X114172792Y-38569433D01*
X114077554Y-38521814D01*
X113887078Y-38521814D01*
X113791840Y-38569433D01*
X113744221Y-38617052D01*
X113696602Y-38712290D01*
%TO.C,RV7*%
X97104455Y-40331338D02*
X96628265Y-40664671D01*
X97104455Y-40902766D02*
X96104455Y-40902766D01*
X96104455Y-40521814D01*
X96152075Y-40426576D01*
X96199694Y-40378957D01*
X96294932Y-40331338D01*
X96437789Y-40331338D01*
X96533027Y-40378957D01*
X96580646Y-40426576D01*
X96628265Y-40521814D01*
X96628265Y-40902766D01*
X96104455Y-40045623D02*
X97104455Y-39712290D01*
X96104455Y-39378957D01*
X96104455Y-39140861D02*
X96104455Y-38474195D01*
X97104455Y-38902766D01*
%TO.C,RV6*%
X79940880Y-40331338D02*
X79464690Y-40664671D01*
X79940880Y-40902766D02*
X78940880Y-40902766D01*
X78940880Y-40521814D01*
X78988500Y-40426576D01*
X79036119Y-40378957D01*
X79131357Y-40331338D01*
X79274214Y-40331338D01*
X79369452Y-40378957D01*
X79417071Y-40426576D01*
X79464690Y-40521814D01*
X79464690Y-40902766D01*
X78940880Y-40045623D02*
X79940880Y-39712290D01*
X78940880Y-39378957D01*
X78940880Y-38617052D02*
X78940880Y-38807528D01*
X78988500Y-38902766D01*
X79036119Y-38950385D01*
X79178976Y-39045623D01*
X79369452Y-39093242D01*
X79750404Y-39093242D01*
X79845642Y-39045623D01*
X79893261Y-38998004D01*
X79940880Y-38902766D01*
X79940880Y-38712290D01*
X79893261Y-38617052D01*
X79845642Y-38569433D01*
X79750404Y-38521814D01*
X79512309Y-38521814D01*
X79417071Y-38569433D01*
X79369452Y-38617052D01*
X79321833Y-38712290D01*
X79321833Y-38902766D01*
X79369452Y-38998004D01*
X79417071Y-39045623D01*
X79512309Y-39093242D01*
%TO.C,RV5*%
X148595180Y-22586838D02*
X148118990Y-22920171D01*
X148595180Y-23158266D02*
X147595180Y-23158266D01*
X147595180Y-22777314D01*
X147642800Y-22682076D01*
X147690419Y-22634457D01*
X147785657Y-22586838D01*
X147928514Y-22586838D01*
X148023752Y-22634457D01*
X148071371Y-22682076D01*
X148118990Y-22777314D01*
X148118990Y-23158266D01*
X147595180Y-22301123D02*
X148595180Y-21967790D01*
X147595180Y-21634457D01*
X147595180Y-20824933D02*
X147595180Y-21301123D01*
X148071371Y-21348742D01*
X148023752Y-21301123D01*
X147976133Y-21205885D01*
X147976133Y-20967790D01*
X148023752Y-20872552D01*
X148071371Y-20824933D01*
X148166609Y-20777314D01*
X148404704Y-20777314D01*
X148499942Y-20824933D01*
X148547561Y-20872552D01*
X148595180Y-20967790D01*
X148595180Y-21205885D01*
X148547561Y-21301123D01*
X148499942Y-21348742D01*
%TO.C,RV4*%
X131431605Y-22586838D02*
X130955415Y-22920171D01*
X131431605Y-23158266D02*
X130431605Y-23158266D01*
X130431605Y-22777314D01*
X130479225Y-22682076D01*
X130526844Y-22634457D01*
X130622082Y-22586838D01*
X130764939Y-22586838D01*
X130860177Y-22634457D01*
X130907796Y-22682076D01*
X130955415Y-22777314D01*
X130955415Y-23158266D01*
X130431605Y-22301123D02*
X131431605Y-21967790D01*
X130431605Y-21634457D01*
X130764939Y-20872552D02*
X131431605Y-20872552D01*
X130383986Y-21110647D02*
X131098272Y-21348742D01*
X131098272Y-20729695D01*
%TO.C,RV3*%
X114268030Y-22586838D02*
X113791840Y-22920171D01*
X114268030Y-23158266D02*
X113268030Y-23158266D01*
X113268030Y-22777314D01*
X113315650Y-22682076D01*
X113363269Y-22634457D01*
X113458507Y-22586838D01*
X113601364Y-22586838D01*
X113696602Y-22634457D01*
X113744221Y-22682076D01*
X113791840Y-22777314D01*
X113791840Y-23158266D01*
X113268030Y-22301123D02*
X114268030Y-21967790D01*
X113268030Y-21634457D01*
X113268030Y-21396361D02*
X113268030Y-20777314D01*
X113648983Y-21110647D01*
X113648983Y-20967790D01*
X113696602Y-20872552D01*
X113744221Y-20824933D01*
X113839459Y-20777314D01*
X114077554Y-20777314D01*
X114172792Y-20824933D01*
X114220411Y-20872552D01*
X114268030Y-20967790D01*
X114268030Y-21253504D01*
X114220411Y-21348742D01*
X114172792Y-21396361D01*
%TO.C,RV2*%
X97104455Y-22586838D02*
X96628265Y-22920171D01*
X97104455Y-23158266D02*
X96104455Y-23158266D01*
X96104455Y-22777314D01*
X96152075Y-22682076D01*
X96199694Y-22634457D01*
X96294932Y-22586838D01*
X96437789Y-22586838D01*
X96533027Y-22634457D01*
X96580646Y-22682076D01*
X96628265Y-22777314D01*
X96628265Y-23158266D01*
X96104455Y-22301123D02*
X97104455Y-21967790D01*
X96104455Y-21634457D01*
X96199694Y-21348742D02*
X96152075Y-21301123D01*
X96104455Y-21205885D01*
X96104455Y-20967790D01*
X96152075Y-20872552D01*
X96199694Y-20824933D01*
X96294932Y-20777314D01*
X96390170Y-20777314D01*
X96533027Y-20824933D01*
X97104455Y-21396361D01*
X97104455Y-20777314D01*
%TO.C,RV1*%
X79940880Y-22586838D02*
X79464690Y-22920171D01*
X79940880Y-23158266D02*
X78940880Y-23158266D01*
X78940880Y-22777314D01*
X78988500Y-22682076D01*
X79036119Y-22634457D01*
X79131357Y-22586838D01*
X79274214Y-22586838D01*
X79369452Y-22634457D01*
X79417071Y-22682076D01*
X79464690Y-22777314D01*
X79464690Y-23158266D01*
X78940880Y-22301123D02*
X79940880Y-21967790D01*
X78940880Y-21634457D01*
X79940880Y-20777314D02*
X79940880Y-21348742D01*
X79940880Y-21063028D02*
X78940880Y-21063028D01*
X79083738Y-21158266D01*
X79178976Y-21253504D01*
X79226595Y-21348742D01*
%TO.C,R35*%
X145194280Y-108986657D02*
X144718090Y-109319990D01*
X145194280Y-109558085D02*
X144194280Y-109558085D01*
X144194280Y-109177133D01*
X144241900Y-109081895D01*
X144289519Y-109034276D01*
X144384757Y-108986657D01*
X144527614Y-108986657D01*
X144622852Y-109034276D01*
X144670471Y-109081895D01*
X144718090Y-109177133D01*
X144718090Y-109558085D01*
X144194280Y-108653323D02*
X144194280Y-108034276D01*
X144575233Y-108367609D01*
X144575233Y-108224752D01*
X144622852Y-108129514D01*
X144670471Y-108081895D01*
X144765709Y-108034276D01*
X145003804Y-108034276D01*
X145099042Y-108081895D01*
X145146661Y-108129514D01*
X145194280Y-108224752D01*
X145194280Y-108510466D01*
X145146661Y-108605704D01*
X145099042Y-108653323D01*
X144194280Y-107129514D02*
X144194280Y-107605704D01*
X144670471Y-107653323D01*
X144622852Y-107605704D01*
X144575233Y-107510466D01*
X144575233Y-107272371D01*
X144622852Y-107177133D01*
X144670471Y-107129514D01*
X144765709Y-107081895D01*
X145003804Y-107081895D01*
X145099042Y-107129514D01*
X145146661Y-107177133D01*
X145194280Y-107272371D01*
X145194280Y-107510466D01*
X145146661Y-107605704D01*
X145099042Y-107653323D01*
%TO.C,R34*%
X104221042Y-113680480D02*
X103887709Y-113204290D01*
X103649614Y-113680480D02*
X103649614Y-112680480D01*
X104030566Y-112680480D01*
X104125804Y-112728100D01*
X104173423Y-112775719D01*
X104221042Y-112870957D01*
X104221042Y-113013814D01*
X104173423Y-113109052D01*
X104125804Y-113156671D01*
X104030566Y-113204290D01*
X103649614Y-113204290D01*
X104554376Y-112680480D02*
X105173423Y-112680480D01*
X104840090Y-113061433D01*
X104982947Y-113061433D01*
X105078185Y-113109052D01*
X105125804Y-113156671D01*
X105173423Y-113251909D01*
X105173423Y-113490004D01*
X105125804Y-113585242D01*
X105078185Y-113632861D01*
X104982947Y-113680480D01*
X104697233Y-113680480D01*
X104601995Y-113632861D01*
X104554376Y-113585242D01*
X106030566Y-113013814D02*
X106030566Y-113680480D01*
X105792471Y-112632861D02*
X105554376Y-113347147D01*
X106173423Y-113347147D01*
%TO.C,R33*%
X149258280Y-87269557D02*
X148782090Y-87602890D01*
X149258280Y-87840985D02*
X148258280Y-87840985D01*
X148258280Y-87460033D01*
X148305900Y-87364795D01*
X148353519Y-87317176D01*
X148448757Y-87269557D01*
X148591614Y-87269557D01*
X148686852Y-87317176D01*
X148734471Y-87364795D01*
X148782090Y-87460033D01*
X148782090Y-87840985D01*
X148258280Y-86936223D02*
X148258280Y-86317176D01*
X148639233Y-86650509D01*
X148639233Y-86507652D01*
X148686852Y-86412414D01*
X148734471Y-86364795D01*
X148829709Y-86317176D01*
X149067804Y-86317176D01*
X149163042Y-86364795D01*
X149210661Y-86412414D01*
X149258280Y-86507652D01*
X149258280Y-86793366D01*
X149210661Y-86888604D01*
X149163042Y-86936223D01*
X148258280Y-85983842D02*
X148258280Y-85364795D01*
X148639233Y-85698128D01*
X148639233Y-85555271D01*
X148686852Y-85460033D01*
X148734471Y-85412414D01*
X148829709Y-85364795D01*
X149067804Y-85364795D01*
X149163042Y-85412414D01*
X149210661Y-85460033D01*
X149258280Y-85555271D01*
X149258280Y-85840985D01*
X149210661Y-85936223D01*
X149163042Y-85983842D01*
%TO.C,R32*%
X118025942Y-113680480D02*
X117692609Y-113204290D01*
X117454514Y-113680480D02*
X117454514Y-112680480D01*
X117835466Y-112680480D01*
X117930704Y-112728100D01*
X117978323Y-112775719D01*
X118025942Y-112870957D01*
X118025942Y-113013814D01*
X117978323Y-113109052D01*
X117930704Y-113156671D01*
X117835466Y-113204290D01*
X117454514Y-113204290D01*
X118359276Y-112680480D02*
X118978323Y-112680480D01*
X118644990Y-113061433D01*
X118787847Y-113061433D01*
X118883085Y-113109052D01*
X118930704Y-113156671D01*
X118978323Y-113251909D01*
X118978323Y-113490004D01*
X118930704Y-113585242D01*
X118883085Y-113632861D01*
X118787847Y-113680480D01*
X118502133Y-113680480D01*
X118406895Y-113632861D01*
X118359276Y-113585242D01*
X119359276Y-112775719D02*
X119406895Y-112728100D01*
X119502133Y-112680480D01*
X119740228Y-112680480D01*
X119835466Y-112728100D01*
X119883085Y-112775719D01*
X119930704Y-112870957D01*
X119930704Y-112966195D01*
X119883085Y-113109052D01*
X119311657Y-113680480D01*
X119930704Y-113680480D01*
%TO.C,R31*%
X110951942Y-114251980D02*
X110618609Y-113775790D01*
X110380514Y-114251980D02*
X110380514Y-113251980D01*
X110761466Y-113251980D01*
X110856704Y-113299600D01*
X110904323Y-113347219D01*
X110951942Y-113442457D01*
X110951942Y-113585314D01*
X110904323Y-113680552D01*
X110856704Y-113728171D01*
X110761466Y-113775790D01*
X110380514Y-113775790D01*
X111285276Y-113251980D02*
X111904323Y-113251980D01*
X111570990Y-113632933D01*
X111713847Y-113632933D01*
X111809085Y-113680552D01*
X111856704Y-113728171D01*
X111904323Y-113823409D01*
X111904323Y-114061504D01*
X111856704Y-114156742D01*
X111809085Y-114204361D01*
X111713847Y-114251980D01*
X111428133Y-114251980D01*
X111332895Y-114204361D01*
X111285276Y-114156742D01*
X112856704Y-114251980D02*
X112285276Y-114251980D01*
X112570990Y-114251980D02*
X112570990Y-113251980D01*
X112475752Y-113394838D01*
X112380514Y-113490076D01*
X112285276Y-113537695D01*
%TO.C,R30*%
X141927342Y-94729580D02*
X141594009Y-94253390D01*
X141355914Y-94729580D02*
X141355914Y-93729580D01*
X141736866Y-93729580D01*
X141832104Y-93777200D01*
X141879723Y-93824819D01*
X141927342Y-93920057D01*
X141927342Y-94062914D01*
X141879723Y-94158152D01*
X141832104Y-94205771D01*
X141736866Y-94253390D01*
X141355914Y-94253390D01*
X142260676Y-93729580D02*
X142879723Y-93729580D01*
X142546390Y-94110533D01*
X142689247Y-94110533D01*
X142784485Y-94158152D01*
X142832104Y-94205771D01*
X142879723Y-94301009D01*
X142879723Y-94539104D01*
X142832104Y-94634342D01*
X142784485Y-94681961D01*
X142689247Y-94729580D01*
X142403533Y-94729580D01*
X142308295Y-94681961D01*
X142260676Y-94634342D01*
X143498771Y-93729580D02*
X143594009Y-93729580D01*
X143689247Y-93777200D01*
X143736866Y-93824819D01*
X143784485Y-93920057D01*
X143832104Y-94110533D01*
X143832104Y-94348628D01*
X143784485Y-94539104D01*
X143736866Y-94634342D01*
X143689247Y-94681961D01*
X143594009Y-94729580D01*
X143498771Y-94729580D01*
X143403533Y-94681961D01*
X143355914Y-94634342D01*
X143308295Y-94539104D01*
X143260676Y-94348628D01*
X143260676Y-94110533D01*
X143308295Y-93920057D01*
X143355914Y-93824819D01*
X143403533Y-93777200D01*
X143498771Y-93729580D01*
%TO.C,R29*%
X124782342Y-94729580D02*
X124449009Y-94253390D01*
X124210914Y-94729580D02*
X124210914Y-93729580D01*
X124591866Y-93729580D01*
X124687104Y-93777200D01*
X124734723Y-93824819D01*
X124782342Y-93920057D01*
X124782342Y-94062914D01*
X124734723Y-94158152D01*
X124687104Y-94205771D01*
X124591866Y-94253390D01*
X124210914Y-94253390D01*
X125163295Y-93824819D02*
X125210914Y-93777200D01*
X125306152Y-93729580D01*
X125544247Y-93729580D01*
X125639485Y-93777200D01*
X125687104Y-93824819D01*
X125734723Y-93920057D01*
X125734723Y-94015295D01*
X125687104Y-94158152D01*
X125115676Y-94729580D01*
X125734723Y-94729580D01*
X126210914Y-94729580D02*
X126401390Y-94729580D01*
X126496628Y-94681961D01*
X126544247Y-94634342D01*
X126639485Y-94491485D01*
X126687104Y-94301009D01*
X126687104Y-93920057D01*
X126639485Y-93824819D01*
X126591866Y-93777200D01*
X126496628Y-93729580D01*
X126306152Y-93729580D01*
X126210914Y-93777200D01*
X126163295Y-93824819D01*
X126115676Y-93920057D01*
X126115676Y-94158152D01*
X126163295Y-94253390D01*
X126210914Y-94301009D01*
X126306152Y-94348628D01*
X126496628Y-94348628D01*
X126591866Y-94301009D01*
X126639485Y-94253390D01*
X126687104Y-94158152D01*
%TO.C,R28*%
X107611942Y-94729580D02*
X107278609Y-94253390D01*
X107040514Y-94729580D02*
X107040514Y-93729580D01*
X107421466Y-93729580D01*
X107516704Y-93777200D01*
X107564323Y-93824819D01*
X107611942Y-93920057D01*
X107611942Y-94062914D01*
X107564323Y-94158152D01*
X107516704Y-94205771D01*
X107421466Y-94253390D01*
X107040514Y-94253390D01*
X107992895Y-93824819D02*
X108040514Y-93777200D01*
X108135752Y-93729580D01*
X108373847Y-93729580D01*
X108469085Y-93777200D01*
X108516704Y-93824819D01*
X108564323Y-93920057D01*
X108564323Y-94015295D01*
X108516704Y-94158152D01*
X107945276Y-94729580D01*
X108564323Y-94729580D01*
X109135752Y-94158152D02*
X109040514Y-94110533D01*
X108992895Y-94062914D01*
X108945276Y-93967676D01*
X108945276Y-93920057D01*
X108992895Y-93824819D01*
X109040514Y-93777200D01*
X109135752Y-93729580D01*
X109326228Y-93729580D01*
X109421466Y-93777200D01*
X109469085Y-93824819D01*
X109516704Y-93920057D01*
X109516704Y-93967676D01*
X109469085Y-94062914D01*
X109421466Y-94110533D01*
X109326228Y-94158152D01*
X109135752Y-94158152D01*
X109040514Y-94205771D01*
X108992895Y-94253390D01*
X108945276Y-94348628D01*
X108945276Y-94539104D01*
X108992895Y-94634342D01*
X109040514Y-94681961D01*
X109135752Y-94729580D01*
X109326228Y-94729580D01*
X109421466Y-94681961D01*
X109469085Y-94634342D01*
X109516704Y-94539104D01*
X109516704Y-94348628D01*
X109469085Y-94253390D01*
X109421466Y-94205771D01*
X109326228Y-94158152D01*
%TO.C,R27*%
X90441542Y-94729580D02*
X90108209Y-94253390D01*
X89870114Y-94729580D02*
X89870114Y-93729580D01*
X90251066Y-93729580D01*
X90346304Y-93777200D01*
X90393923Y-93824819D01*
X90441542Y-93920057D01*
X90441542Y-94062914D01*
X90393923Y-94158152D01*
X90346304Y-94205771D01*
X90251066Y-94253390D01*
X89870114Y-94253390D01*
X90822495Y-93824819D02*
X90870114Y-93777200D01*
X90965352Y-93729580D01*
X91203447Y-93729580D01*
X91298685Y-93777200D01*
X91346304Y-93824819D01*
X91393923Y-93920057D01*
X91393923Y-94015295D01*
X91346304Y-94158152D01*
X90774876Y-94729580D01*
X91393923Y-94729580D01*
X91727257Y-93729580D02*
X92393923Y-93729580D01*
X91965352Y-94729580D01*
%TO.C,R26*%
X73271142Y-94729580D02*
X72937809Y-94253390D01*
X72699714Y-94729580D02*
X72699714Y-93729580D01*
X73080666Y-93729580D01*
X73175904Y-93777200D01*
X73223523Y-93824819D01*
X73271142Y-93920057D01*
X73271142Y-94062914D01*
X73223523Y-94158152D01*
X73175904Y-94205771D01*
X73080666Y-94253390D01*
X72699714Y-94253390D01*
X73652095Y-93824819D02*
X73699714Y-93777200D01*
X73794952Y-93729580D01*
X74033047Y-93729580D01*
X74128285Y-93777200D01*
X74175904Y-93824819D01*
X74223523Y-93920057D01*
X74223523Y-94015295D01*
X74175904Y-94158152D01*
X73604476Y-94729580D01*
X74223523Y-94729580D01*
X75080666Y-93729580D02*
X74890190Y-93729580D01*
X74794952Y-93777200D01*
X74747333Y-93824819D01*
X74652095Y-93967676D01*
X74604476Y-94158152D01*
X74604476Y-94539104D01*
X74652095Y-94634342D01*
X74699714Y-94681961D01*
X74794952Y-94729580D01*
X74985428Y-94729580D01*
X75080666Y-94681961D01*
X75128285Y-94634342D01*
X75175904Y-94539104D01*
X75175904Y-94301009D01*
X75128285Y-94205771D01*
X75080666Y-94158152D01*
X74985428Y-94110533D01*
X74794952Y-94110533D01*
X74699714Y-94158152D01*
X74652095Y-94205771D01*
X74604476Y-94301009D01*
%TO.C,R25*%
X140479442Y-76812380D02*
X140146109Y-76336190D01*
X139908014Y-76812380D02*
X139908014Y-75812380D01*
X140288966Y-75812380D01*
X140384204Y-75860000D01*
X140431823Y-75907619D01*
X140479442Y-76002857D01*
X140479442Y-76145714D01*
X140431823Y-76240952D01*
X140384204Y-76288571D01*
X140288966Y-76336190D01*
X139908014Y-76336190D01*
X140860395Y-75907619D02*
X140908014Y-75860000D01*
X141003252Y-75812380D01*
X141241347Y-75812380D01*
X141336585Y-75860000D01*
X141384204Y-75907619D01*
X141431823Y-76002857D01*
X141431823Y-76098095D01*
X141384204Y-76240952D01*
X140812776Y-76812380D01*
X141431823Y-76812380D01*
X142336585Y-75812380D02*
X141860395Y-75812380D01*
X141812776Y-76288571D01*
X141860395Y-76240952D01*
X141955633Y-76193333D01*
X142193728Y-76193333D01*
X142288966Y-76240952D01*
X142336585Y-76288571D01*
X142384204Y-76383809D01*
X142384204Y-76621904D01*
X142336585Y-76717142D01*
X142288966Y-76764761D01*
X142193728Y-76812380D01*
X141955633Y-76812380D01*
X141860395Y-76764761D01*
X141812776Y-76717142D01*
%TO.C,R24*%
X123334442Y-76812380D02*
X123001109Y-76336190D01*
X122763014Y-76812380D02*
X122763014Y-75812380D01*
X123143966Y-75812380D01*
X123239204Y-75860000D01*
X123286823Y-75907619D01*
X123334442Y-76002857D01*
X123334442Y-76145714D01*
X123286823Y-76240952D01*
X123239204Y-76288571D01*
X123143966Y-76336190D01*
X122763014Y-76336190D01*
X123715395Y-75907619D02*
X123763014Y-75860000D01*
X123858252Y-75812380D01*
X124096347Y-75812380D01*
X124191585Y-75860000D01*
X124239204Y-75907619D01*
X124286823Y-76002857D01*
X124286823Y-76098095D01*
X124239204Y-76240952D01*
X123667776Y-76812380D01*
X124286823Y-76812380D01*
X125143966Y-76145714D02*
X125143966Y-76812380D01*
X124905871Y-75764761D02*
X124667776Y-76479047D01*
X125286823Y-76479047D01*
%TO.C,R23*%
X106164042Y-76812380D02*
X105830709Y-76336190D01*
X105592614Y-76812380D02*
X105592614Y-75812380D01*
X105973566Y-75812380D01*
X106068804Y-75860000D01*
X106116423Y-75907619D01*
X106164042Y-76002857D01*
X106164042Y-76145714D01*
X106116423Y-76240952D01*
X106068804Y-76288571D01*
X105973566Y-76336190D01*
X105592614Y-76336190D01*
X106544995Y-75907619D02*
X106592614Y-75860000D01*
X106687852Y-75812380D01*
X106925947Y-75812380D01*
X107021185Y-75860000D01*
X107068804Y-75907619D01*
X107116423Y-76002857D01*
X107116423Y-76098095D01*
X107068804Y-76240952D01*
X106497376Y-76812380D01*
X107116423Y-76812380D01*
X107449757Y-75812380D02*
X108068804Y-75812380D01*
X107735471Y-76193333D01*
X107878328Y-76193333D01*
X107973566Y-76240952D01*
X108021185Y-76288571D01*
X108068804Y-76383809D01*
X108068804Y-76621904D01*
X108021185Y-76717142D01*
X107973566Y-76764761D01*
X107878328Y-76812380D01*
X107592614Y-76812380D01*
X107497376Y-76764761D01*
X107449757Y-76717142D01*
%TO.C,R22*%
X89013142Y-76812380D02*
X88679809Y-76336190D01*
X88441714Y-76812380D02*
X88441714Y-75812380D01*
X88822666Y-75812380D01*
X88917904Y-75860000D01*
X88965523Y-75907619D01*
X89013142Y-76002857D01*
X89013142Y-76145714D01*
X88965523Y-76240952D01*
X88917904Y-76288571D01*
X88822666Y-76336190D01*
X88441714Y-76336190D01*
X89394095Y-75907619D02*
X89441714Y-75860000D01*
X89536952Y-75812380D01*
X89775047Y-75812380D01*
X89870285Y-75860000D01*
X89917904Y-75907619D01*
X89965523Y-76002857D01*
X89965523Y-76098095D01*
X89917904Y-76240952D01*
X89346476Y-76812380D01*
X89965523Y-76812380D01*
X90346476Y-75907619D02*
X90394095Y-75860000D01*
X90489333Y-75812380D01*
X90727428Y-75812380D01*
X90822666Y-75860000D01*
X90870285Y-75907619D01*
X90917904Y-76002857D01*
X90917904Y-76098095D01*
X90870285Y-76240952D01*
X90298857Y-76812380D01*
X90917904Y-76812380D01*
%TO.C,R21*%
X71848642Y-76812380D02*
X71515309Y-76336190D01*
X71277214Y-76812380D02*
X71277214Y-75812380D01*
X71658166Y-75812380D01*
X71753404Y-75860000D01*
X71801023Y-75907619D01*
X71848642Y-76002857D01*
X71848642Y-76145714D01*
X71801023Y-76240952D01*
X71753404Y-76288571D01*
X71658166Y-76336190D01*
X71277214Y-76336190D01*
X72229595Y-75907619D02*
X72277214Y-75860000D01*
X72372452Y-75812380D01*
X72610547Y-75812380D01*
X72705785Y-75860000D01*
X72753404Y-75907619D01*
X72801023Y-76002857D01*
X72801023Y-76098095D01*
X72753404Y-76240952D01*
X72181976Y-76812380D01*
X72801023Y-76812380D01*
X73753404Y-76812380D02*
X73181976Y-76812380D01*
X73467690Y-76812380D02*
X73467690Y-75812380D01*
X73372452Y-75955238D01*
X73277214Y-76050476D01*
X73181976Y-76098095D01*
%TO.C,R20*%
X144569042Y-76812380D02*
X144235709Y-76336190D01*
X143997614Y-76812380D02*
X143997614Y-75812380D01*
X144378566Y-75812380D01*
X144473804Y-75860000D01*
X144521423Y-75907619D01*
X144569042Y-76002857D01*
X144569042Y-76145714D01*
X144521423Y-76240952D01*
X144473804Y-76288571D01*
X144378566Y-76336190D01*
X143997614Y-76336190D01*
X144949995Y-75907619D02*
X144997614Y-75860000D01*
X145092852Y-75812380D01*
X145330947Y-75812380D01*
X145426185Y-75860000D01*
X145473804Y-75907619D01*
X145521423Y-76002857D01*
X145521423Y-76098095D01*
X145473804Y-76240952D01*
X144902376Y-76812380D01*
X145521423Y-76812380D01*
X146140471Y-75812380D02*
X146235709Y-75812380D01*
X146330947Y-75860000D01*
X146378566Y-75907619D01*
X146426185Y-76002857D01*
X146473804Y-76193333D01*
X146473804Y-76431428D01*
X146426185Y-76621904D01*
X146378566Y-76717142D01*
X146330947Y-76764761D01*
X146235709Y-76812380D01*
X146140471Y-76812380D01*
X146045233Y-76764761D01*
X145997614Y-76717142D01*
X145949995Y-76621904D01*
X145902376Y-76431428D01*
X145902376Y-76193333D01*
X145949995Y-76002857D01*
X145997614Y-75907619D01*
X146045233Y-75860000D01*
X146140471Y-75812380D01*
%TO.C,R19*%
X127398642Y-76812380D02*
X127065309Y-76336190D01*
X126827214Y-76812380D02*
X126827214Y-75812380D01*
X127208166Y-75812380D01*
X127303404Y-75860000D01*
X127351023Y-75907619D01*
X127398642Y-76002857D01*
X127398642Y-76145714D01*
X127351023Y-76240952D01*
X127303404Y-76288571D01*
X127208166Y-76336190D01*
X126827214Y-76336190D01*
X128351023Y-76812380D02*
X127779595Y-76812380D01*
X128065309Y-76812380D02*
X128065309Y-75812380D01*
X127970071Y-75955238D01*
X127874833Y-76050476D01*
X127779595Y-76098095D01*
X128827214Y-76812380D02*
X129017690Y-76812380D01*
X129112928Y-76764761D01*
X129160547Y-76717142D01*
X129255785Y-76574285D01*
X129303404Y-76383809D01*
X129303404Y-76002857D01*
X129255785Y-75907619D01*
X129208166Y-75860000D01*
X129112928Y-75812380D01*
X128922452Y-75812380D01*
X128827214Y-75860000D01*
X128779595Y-75907619D01*
X128731976Y-76002857D01*
X128731976Y-76240952D01*
X128779595Y-76336190D01*
X128827214Y-76383809D01*
X128922452Y-76431428D01*
X129112928Y-76431428D01*
X129208166Y-76383809D01*
X129255785Y-76336190D01*
X129303404Y-76240952D01*
%TO.C,R18*%
X110253642Y-76812380D02*
X109920309Y-76336190D01*
X109682214Y-76812380D02*
X109682214Y-75812380D01*
X110063166Y-75812380D01*
X110158404Y-75860000D01*
X110206023Y-75907619D01*
X110253642Y-76002857D01*
X110253642Y-76145714D01*
X110206023Y-76240952D01*
X110158404Y-76288571D01*
X110063166Y-76336190D01*
X109682214Y-76336190D01*
X111206023Y-76812380D02*
X110634595Y-76812380D01*
X110920309Y-76812380D02*
X110920309Y-75812380D01*
X110825071Y-75955238D01*
X110729833Y-76050476D01*
X110634595Y-76098095D01*
X111777452Y-76240952D02*
X111682214Y-76193333D01*
X111634595Y-76145714D01*
X111586976Y-76050476D01*
X111586976Y-76002857D01*
X111634595Y-75907619D01*
X111682214Y-75860000D01*
X111777452Y-75812380D01*
X111967928Y-75812380D01*
X112063166Y-75860000D01*
X112110785Y-75907619D01*
X112158404Y-76002857D01*
X112158404Y-76050476D01*
X112110785Y-76145714D01*
X112063166Y-76193333D01*
X111967928Y-76240952D01*
X111777452Y-76240952D01*
X111682214Y-76288571D01*
X111634595Y-76336190D01*
X111586976Y-76431428D01*
X111586976Y-76621904D01*
X111634595Y-76717142D01*
X111682214Y-76764761D01*
X111777452Y-76812380D01*
X111967928Y-76812380D01*
X112063166Y-76764761D01*
X112110785Y-76717142D01*
X112158404Y-76621904D01*
X112158404Y-76431428D01*
X112110785Y-76336190D01*
X112063166Y-76288571D01*
X111967928Y-76240952D01*
%TO.C,R17*%
X93083242Y-76812380D02*
X92749909Y-76336190D01*
X92511814Y-76812380D02*
X92511814Y-75812380D01*
X92892766Y-75812380D01*
X92988004Y-75860000D01*
X93035623Y-75907619D01*
X93083242Y-76002857D01*
X93083242Y-76145714D01*
X93035623Y-76240952D01*
X92988004Y-76288571D01*
X92892766Y-76336190D01*
X92511814Y-76336190D01*
X94035623Y-76812380D02*
X93464195Y-76812380D01*
X93749909Y-76812380D02*
X93749909Y-75812380D01*
X93654671Y-75955238D01*
X93559433Y-76050476D01*
X93464195Y-76098095D01*
X94368957Y-75812380D02*
X95035623Y-75812380D01*
X94607052Y-76812380D01*
%TO.C,R16*%
X75912842Y-76812380D02*
X75579509Y-76336190D01*
X75341414Y-76812380D02*
X75341414Y-75812380D01*
X75722366Y-75812380D01*
X75817604Y-75860000D01*
X75865223Y-75907619D01*
X75912842Y-76002857D01*
X75912842Y-76145714D01*
X75865223Y-76240952D01*
X75817604Y-76288571D01*
X75722366Y-76336190D01*
X75341414Y-76336190D01*
X76865223Y-76812380D02*
X76293795Y-76812380D01*
X76579509Y-76812380D02*
X76579509Y-75812380D01*
X76484271Y-75955238D01*
X76389033Y-76050476D01*
X76293795Y-76098095D01*
X77722366Y-75812380D02*
X77531890Y-75812380D01*
X77436652Y-75860000D01*
X77389033Y-75907619D01*
X77293795Y-76050476D01*
X77246176Y-76240952D01*
X77246176Y-76621904D01*
X77293795Y-76717142D01*
X77341414Y-76764761D01*
X77436652Y-76812380D01*
X77627128Y-76812380D01*
X77722366Y-76764761D01*
X77769985Y-76717142D01*
X77817604Y-76621904D01*
X77817604Y-76383809D01*
X77769985Y-76288571D01*
X77722366Y-76240952D01*
X77627128Y-76193333D01*
X77436652Y-76193333D01*
X77341414Y-76240952D01*
X77293795Y-76288571D01*
X77246176Y-76383809D01*
%TO.C,R15*%
X142105142Y-55562780D02*
X141771809Y-55086590D01*
X141533714Y-55562780D02*
X141533714Y-54562780D01*
X141914666Y-54562780D01*
X142009904Y-54610400D01*
X142057523Y-54658019D01*
X142105142Y-54753257D01*
X142105142Y-54896114D01*
X142057523Y-54991352D01*
X142009904Y-55038971D01*
X141914666Y-55086590D01*
X141533714Y-55086590D01*
X143057523Y-55562780D02*
X142486095Y-55562780D01*
X142771809Y-55562780D02*
X142771809Y-54562780D01*
X142676571Y-54705638D01*
X142581333Y-54800876D01*
X142486095Y-54848495D01*
X143962285Y-54562780D02*
X143486095Y-54562780D01*
X143438476Y-55038971D01*
X143486095Y-54991352D01*
X143581333Y-54943733D01*
X143819428Y-54943733D01*
X143914666Y-54991352D01*
X143962285Y-55038971D01*
X144009904Y-55134209D01*
X144009904Y-55372304D01*
X143962285Y-55467542D01*
X143914666Y-55515161D01*
X143819428Y-55562780D01*
X143581333Y-55562780D01*
X143486095Y-55515161D01*
X143438476Y-55467542D01*
%TO.C,R14*%
X124934742Y-55562780D02*
X124601409Y-55086590D01*
X124363314Y-55562780D02*
X124363314Y-54562780D01*
X124744266Y-54562780D01*
X124839504Y-54610400D01*
X124887123Y-54658019D01*
X124934742Y-54753257D01*
X124934742Y-54896114D01*
X124887123Y-54991352D01*
X124839504Y-55038971D01*
X124744266Y-55086590D01*
X124363314Y-55086590D01*
X125887123Y-55562780D02*
X125315695Y-55562780D01*
X125601409Y-55562780D02*
X125601409Y-54562780D01*
X125506171Y-54705638D01*
X125410933Y-54800876D01*
X125315695Y-54848495D01*
X126744266Y-54896114D02*
X126744266Y-55562780D01*
X126506171Y-54515161D02*
X126268076Y-55229447D01*
X126887123Y-55229447D01*
%TO.C,R13*%
X107764342Y-55562780D02*
X107431009Y-55086590D01*
X107192914Y-55562780D02*
X107192914Y-54562780D01*
X107573866Y-54562780D01*
X107669104Y-54610400D01*
X107716723Y-54658019D01*
X107764342Y-54753257D01*
X107764342Y-54896114D01*
X107716723Y-54991352D01*
X107669104Y-55038971D01*
X107573866Y-55086590D01*
X107192914Y-55086590D01*
X108716723Y-55562780D02*
X108145295Y-55562780D01*
X108431009Y-55562780D02*
X108431009Y-54562780D01*
X108335771Y-54705638D01*
X108240533Y-54800876D01*
X108145295Y-54848495D01*
X109050057Y-54562780D02*
X109669104Y-54562780D01*
X109335771Y-54943733D01*
X109478628Y-54943733D01*
X109573866Y-54991352D01*
X109621485Y-55038971D01*
X109669104Y-55134209D01*
X109669104Y-55372304D01*
X109621485Y-55467542D01*
X109573866Y-55515161D01*
X109478628Y-55562780D01*
X109192914Y-55562780D01*
X109097676Y-55515161D01*
X109050057Y-55467542D01*
%TO.C,R12*%
X90593942Y-55562780D02*
X90260609Y-55086590D01*
X90022514Y-55562780D02*
X90022514Y-54562780D01*
X90403466Y-54562780D01*
X90498704Y-54610400D01*
X90546323Y-54658019D01*
X90593942Y-54753257D01*
X90593942Y-54896114D01*
X90546323Y-54991352D01*
X90498704Y-55038971D01*
X90403466Y-55086590D01*
X90022514Y-55086590D01*
X91546323Y-55562780D02*
X90974895Y-55562780D01*
X91260609Y-55562780D02*
X91260609Y-54562780D01*
X91165371Y-54705638D01*
X91070133Y-54800876D01*
X90974895Y-54848495D01*
X91927276Y-54658019D02*
X91974895Y-54610400D01*
X92070133Y-54562780D01*
X92308228Y-54562780D01*
X92403466Y-54610400D01*
X92451085Y-54658019D01*
X92498704Y-54753257D01*
X92498704Y-54848495D01*
X92451085Y-54991352D01*
X91879657Y-55562780D01*
X92498704Y-55562780D01*
%TO.C,R11*%
X73449042Y-55562780D02*
X73115709Y-55086590D01*
X72877614Y-55562780D02*
X72877614Y-54562780D01*
X73258566Y-54562780D01*
X73353804Y-54610400D01*
X73401423Y-54658019D01*
X73449042Y-54753257D01*
X73449042Y-54896114D01*
X73401423Y-54991352D01*
X73353804Y-55038971D01*
X73258566Y-55086590D01*
X72877614Y-55086590D01*
X74401423Y-55562780D02*
X73829995Y-55562780D01*
X74115709Y-55562780D02*
X74115709Y-54562780D01*
X74020471Y-54705638D01*
X73925233Y-54800876D01*
X73829995Y-54848495D01*
X75353804Y-55562780D02*
X74782376Y-55562780D01*
X75068090Y-55562780D02*
X75068090Y-54562780D01*
X74972852Y-54705638D01*
X74877614Y-54800876D01*
X74782376Y-54848495D01*
%TO.C,R10*%
X140504942Y-37594780D02*
X140171609Y-37118590D01*
X139933514Y-37594780D02*
X139933514Y-36594780D01*
X140314466Y-36594780D01*
X140409704Y-36642400D01*
X140457323Y-36690019D01*
X140504942Y-36785257D01*
X140504942Y-36928114D01*
X140457323Y-37023352D01*
X140409704Y-37070971D01*
X140314466Y-37118590D01*
X139933514Y-37118590D01*
X141457323Y-37594780D02*
X140885895Y-37594780D01*
X141171609Y-37594780D02*
X141171609Y-36594780D01*
X141076371Y-36737638D01*
X140981133Y-36832876D01*
X140885895Y-36880495D01*
X142076371Y-36594780D02*
X142171609Y-36594780D01*
X142266847Y-36642400D01*
X142314466Y-36690019D01*
X142362085Y-36785257D01*
X142409704Y-36975733D01*
X142409704Y-37213828D01*
X142362085Y-37404304D01*
X142314466Y-37499542D01*
X142266847Y-37547161D01*
X142171609Y-37594780D01*
X142076371Y-37594780D01*
X141981133Y-37547161D01*
X141933514Y-37499542D01*
X141885895Y-37404304D01*
X141838276Y-37213828D01*
X141838276Y-36975733D01*
X141885895Y-36785257D01*
X141933514Y-36690019D01*
X141981133Y-36642400D01*
X142076371Y-36594780D01*
%TO.C,R9*%
X123785333Y-37594780D02*
X123452000Y-37118590D01*
X123213904Y-37594780D02*
X123213904Y-36594780D01*
X123594857Y-36594780D01*
X123690095Y-36642400D01*
X123737714Y-36690019D01*
X123785333Y-36785257D01*
X123785333Y-36928114D01*
X123737714Y-37023352D01*
X123690095Y-37070971D01*
X123594857Y-37118590D01*
X123213904Y-37118590D01*
X124261523Y-37594780D02*
X124452000Y-37594780D01*
X124547238Y-37547161D01*
X124594857Y-37499542D01*
X124690095Y-37356685D01*
X124737714Y-37166209D01*
X124737714Y-36785257D01*
X124690095Y-36690019D01*
X124642476Y-36642400D01*
X124547238Y-36594780D01*
X124356761Y-36594780D01*
X124261523Y-36642400D01*
X124213904Y-36690019D01*
X124166285Y-36785257D01*
X124166285Y-37023352D01*
X124213904Y-37118590D01*
X124261523Y-37166209D01*
X124356761Y-37213828D01*
X124547238Y-37213828D01*
X124642476Y-37166209D01*
X124690095Y-37118590D01*
X124737714Y-37023352D01*
%TO.C,R8*%
X106665733Y-37594780D02*
X106332400Y-37118590D01*
X106094304Y-37594780D02*
X106094304Y-36594780D01*
X106475257Y-36594780D01*
X106570495Y-36642400D01*
X106618114Y-36690019D01*
X106665733Y-36785257D01*
X106665733Y-36928114D01*
X106618114Y-37023352D01*
X106570495Y-37070971D01*
X106475257Y-37118590D01*
X106094304Y-37118590D01*
X107237161Y-37023352D02*
X107141923Y-36975733D01*
X107094304Y-36928114D01*
X107046685Y-36832876D01*
X107046685Y-36785257D01*
X107094304Y-36690019D01*
X107141923Y-36642400D01*
X107237161Y-36594780D01*
X107427638Y-36594780D01*
X107522876Y-36642400D01*
X107570495Y-36690019D01*
X107618114Y-36785257D01*
X107618114Y-36832876D01*
X107570495Y-36928114D01*
X107522876Y-36975733D01*
X107427638Y-37023352D01*
X107237161Y-37023352D01*
X107141923Y-37070971D01*
X107094304Y-37118590D01*
X107046685Y-37213828D01*
X107046685Y-37404304D01*
X107094304Y-37499542D01*
X107141923Y-37547161D01*
X107237161Y-37594780D01*
X107427638Y-37594780D01*
X107522876Y-37547161D01*
X107570495Y-37499542D01*
X107618114Y-37404304D01*
X107618114Y-37213828D01*
X107570495Y-37118590D01*
X107522876Y-37070971D01*
X107427638Y-37023352D01*
%TO.C,R7*%
X89482633Y-37594780D02*
X89149300Y-37118590D01*
X88911204Y-37594780D02*
X88911204Y-36594780D01*
X89292157Y-36594780D01*
X89387395Y-36642400D01*
X89435014Y-36690019D01*
X89482633Y-36785257D01*
X89482633Y-36928114D01*
X89435014Y-37023352D01*
X89387395Y-37070971D01*
X89292157Y-37118590D01*
X88911204Y-37118590D01*
X89815966Y-36594780D02*
X90482633Y-36594780D01*
X90054061Y-37594780D01*
%TO.C,R6*%
X72312133Y-37594780D02*
X71978800Y-37118590D01*
X71740704Y-37594780D02*
X71740704Y-36594780D01*
X72121657Y-36594780D01*
X72216895Y-36642400D01*
X72264514Y-36690019D01*
X72312133Y-36785257D01*
X72312133Y-36928114D01*
X72264514Y-37023352D01*
X72216895Y-37070971D01*
X72121657Y-37118590D01*
X71740704Y-37118590D01*
X73169276Y-36594780D02*
X72978800Y-36594780D01*
X72883561Y-36642400D01*
X72835942Y-36690019D01*
X72740704Y-36832876D01*
X72693085Y-37023352D01*
X72693085Y-37404304D01*
X72740704Y-37499542D01*
X72788323Y-37547161D01*
X72883561Y-37594780D01*
X73074038Y-37594780D01*
X73169276Y-37547161D01*
X73216895Y-37499542D01*
X73264514Y-37404304D01*
X73264514Y-37166209D01*
X73216895Y-37070971D01*
X73169276Y-37023352D01*
X73074038Y-36975733D01*
X72883561Y-36975733D01*
X72788323Y-37023352D01*
X72740704Y-37070971D01*
X72693085Y-37166209D01*
%TO.C,R5*%
X145045133Y-37594780D02*
X144711800Y-37118590D01*
X144473704Y-37594780D02*
X144473704Y-36594780D01*
X144854657Y-36594780D01*
X144949895Y-36642400D01*
X144997514Y-36690019D01*
X145045133Y-36785257D01*
X145045133Y-36928114D01*
X144997514Y-37023352D01*
X144949895Y-37070971D01*
X144854657Y-37118590D01*
X144473704Y-37118590D01*
X145949895Y-36594780D02*
X145473704Y-36594780D01*
X145426085Y-37070971D01*
X145473704Y-37023352D01*
X145568942Y-36975733D01*
X145807038Y-36975733D01*
X145902276Y-37023352D01*
X145949895Y-37070971D01*
X145997514Y-37166209D01*
X145997514Y-37404304D01*
X145949895Y-37499542D01*
X145902276Y-37547161D01*
X145807038Y-37594780D01*
X145568942Y-37594780D01*
X145473704Y-37547161D01*
X145426085Y-37499542D01*
%TO.C,R4*%
X127874733Y-37594780D02*
X127541400Y-37118590D01*
X127303304Y-37594780D02*
X127303304Y-36594780D01*
X127684257Y-36594780D01*
X127779495Y-36642400D01*
X127827114Y-36690019D01*
X127874733Y-36785257D01*
X127874733Y-36928114D01*
X127827114Y-37023352D01*
X127779495Y-37070971D01*
X127684257Y-37118590D01*
X127303304Y-37118590D01*
X128731876Y-36928114D02*
X128731876Y-37594780D01*
X128493780Y-36547161D02*
X128255685Y-37261447D01*
X128874733Y-37261447D01*
%TO.C,R3*%
X110729733Y-37594780D02*
X110396400Y-37118590D01*
X110158304Y-37594780D02*
X110158304Y-36594780D01*
X110539257Y-36594780D01*
X110634495Y-36642400D01*
X110682114Y-36690019D01*
X110729733Y-36785257D01*
X110729733Y-36928114D01*
X110682114Y-37023352D01*
X110634495Y-37070971D01*
X110539257Y-37118590D01*
X110158304Y-37118590D01*
X111063066Y-36594780D02*
X111682114Y-36594780D01*
X111348780Y-36975733D01*
X111491638Y-36975733D01*
X111586876Y-37023352D01*
X111634495Y-37070971D01*
X111682114Y-37166209D01*
X111682114Y-37404304D01*
X111634495Y-37499542D01*
X111586876Y-37547161D01*
X111491638Y-37594780D01*
X111205923Y-37594780D01*
X111110685Y-37547161D01*
X111063066Y-37499542D01*
%TO.C,R2*%
X93557533Y-37594780D02*
X93224200Y-37118590D01*
X92986104Y-37594780D02*
X92986104Y-36594780D01*
X93367057Y-36594780D01*
X93462295Y-36642400D01*
X93509914Y-36690019D01*
X93557533Y-36785257D01*
X93557533Y-36928114D01*
X93509914Y-37023352D01*
X93462295Y-37070971D01*
X93367057Y-37118590D01*
X92986104Y-37118590D01*
X93938485Y-36690019D02*
X93986104Y-36642400D01*
X94081342Y-36594780D01*
X94319438Y-36594780D01*
X94414676Y-36642400D01*
X94462295Y-36690019D01*
X94509914Y-36785257D01*
X94509914Y-36880495D01*
X94462295Y-37023352D01*
X93890866Y-37594780D01*
X94509914Y-37594780D01*
%TO.C,R1*%
X76389033Y-37594780D02*
X76055700Y-37118590D01*
X75817604Y-37594780D02*
X75817604Y-36594780D01*
X76198557Y-36594780D01*
X76293795Y-36642400D01*
X76341414Y-36690019D01*
X76389033Y-36785257D01*
X76389033Y-36928114D01*
X76341414Y-37023352D01*
X76293795Y-37070971D01*
X76198557Y-37118590D01*
X75817604Y-37118590D01*
X77341414Y-37594780D02*
X76769985Y-37594780D01*
X77055700Y-37594780D02*
X77055700Y-36594780D01*
X76960461Y-36737638D01*
X76865223Y-36832876D01*
X76769985Y-36880495D01*
%TO.C,Q20*%
X136893371Y-94665419D02*
X136798133Y-94617800D01*
X136702895Y-94522561D01*
X136560038Y-94379704D01*
X136464800Y-94332085D01*
X136369561Y-94332085D01*
X136417180Y-94570180D02*
X136321942Y-94522561D01*
X136226704Y-94427323D01*
X136179085Y-94236847D01*
X136179085Y-93903514D01*
X136226704Y-93713038D01*
X136321942Y-93617800D01*
X136417180Y-93570180D01*
X136607657Y-93570180D01*
X136702895Y-93617800D01*
X136798133Y-93713038D01*
X136845752Y-93903514D01*
X136845752Y-94236847D01*
X136798133Y-94427323D01*
X136702895Y-94522561D01*
X136607657Y-94570180D01*
X136417180Y-94570180D01*
X137226704Y-93665419D02*
X137274323Y-93617800D01*
X137369561Y-93570180D01*
X137607657Y-93570180D01*
X137702895Y-93617800D01*
X137750514Y-93665419D01*
X137798133Y-93760657D01*
X137798133Y-93855895D01*
X137750514Y-93998752D01*
X137179085Y-94570180D01*
X137798133Y-94570180D01*
X138417180Y-93570180D02*
X138512419Y-93570180D01*
X138607657Y-93617800D01*
X138655276Y-93665419D01*
X138702895Y-93760657D01*
X138750514Y-93951133D01*
X138750514Y-94189228D01*
X138702895Y-94379704D01*
X138655276Y-94474942D01*
X138607657Y-94522561D01*
X138512419Y-94570180D01*
X138417180Y-94570180D01*
X138321942Y-94522561D01*
X138274323Y-94474942D01*
X138226704Y-94379704D01*
X138179085Y-94189228D01*
X138179085Y-93951133D01*
X138226704Y-93760657D01*
X138274323Y-93665419D01*
X138321942Y-93617800D01*
X138417180Y-93570180D01*
%TO.C,Q19*%
X119748371Y-94665419D02*
X119653133Y-94617800D01*
X119557895Y-94522561D01*
X119415038Y-94379704D01*
X119319800Y-94332085D01*
X119224561Y-94332085D01*
X119272180Y-94570180D02*
X119176942Y-94522561D01*
X119081704Y-94427323D01*
X119034085Y-94236847D01*
X119034085Y-93903514D01*
X119081704Y-93713038D01*
X119176942Y-93617800D01*
X119272180Y-93570180D01*
X119462657Y-93570180D01*
X119557895Y-93617800D01*
X119653133Y-93713038D01*
X119700752Y-93903514D01*
X119700752Y-94236847D01*
X119653133Y-94427323D01*
X119557895Y-94522561D01*
X119462657Y-94570180D01*
X119272180Y-94570180D01*
X120653133Y-94570180D02*
X120081704Y-94570180D01*
X120367419Y-94570180D02*
X120367419Y-93570180D01*
X120272180Y-93713038D01*
X120176942Y-93808276D01*
X120081704Y-93855895D01*
X121129323Y-94570180D02*
X121319800Y-94570180D01*
X121415038Y-94522561D01*
X121462657Y-94474942D01*
X121557895Y-94332085D01*
X121605514Y-94141609D01*
X121605514Y-93760657D01*
X121557895Y-93665419D01*
X121510276Y-93617800D01*
X121415038Y-93570180D01*
X121224561Y-93570180D01*
X121129323Y-93617800D01*
X121081704Y-93665419D01*
X121034085Y-93760657D01*
X121034085Y-93998752D01*
X121081704Y-94093990D01*
X121129323Y-94141609D01*
X121224561Y-94189228D01*
X121415038Y-94189228D01*
X121510276Y-94141609D01*
X121557895Y-94093990D01*
X121605514Y-93998752D01*
%TO.C,Q18*%
X102552571Y-94665419D02*
X102457333Y-94617800D01*
X102362095Y-94522561D01*
X102219238Y-94379704D01*
X102124000Y-94332085D01*
X102028761Y-94332085D01*
X102076380Y-94570180D02*
X101981142Y-94522561D01*
X101885904Y-94427323D01*
X101838285Y-94236847D01*
X101838285Y-93903514D01*
X101885904Y-93713038D01*
X101981142Y-93617800D01*
X102076380Y-93570180D01*
X102266857Y-93570180D01*
X102362095Y-93617800D01*
X102457333Y-93713038D01*
X102504952Y-93903514D01*
X102504952Y-94236847D01*
X102457333Y-94427323D01*
X102362095Y-94522561D01*
X102266857Y-94570180D01*
X102076380Y-94570180D01*
X103457333Y-94570180D02*
X102885904Y-94570180D01*
X103171619Y-94570180D02*
X103171619Y-93570180D01*
X103076380Y-93713038D01*
X102981142Y-93808276D01*
X102885904Y-93855895D01*
X104028761Y-93998752D02*
X103933523Y-93951133D01*
X103885904Y-93903514D01*
X103838285Y-93808276D01*
X103838285Y-93760657D01*
X103885904Y-93665419D01*
X103933523Y-93617800D01*
X104028761Y-93570180D01*
X104219238Y-93570180D01*
X104314476Y-93617800D01*
X104362095Y-93665419D01*
X104409714Y-93760657D01*
X104409714Y-93808276D01*
X104362095Y-93903514D01*
X104314476Y-93951133D01*
X104219238Y-93998752D01*
X104028761Y-93998752D01*
X103933523Y-94046371D01*
X103885904Y-94093990D01*
X103838285Y-94189228D01*
X103838285Y-94379704D01*
X103885904Y-94474942D01*
X103933523Y-94522561D01*
X104028761Y-94570180D01*
X104219238Y-94570180D01*
X104314476Y-94522561D01*
X104362095Y-94474942D01*
X104409714Y-94379704D01*
X104409714Y-94189228D01*
X104362095Y-94093990D01*
X104314476Y-94046371D01*
X104219238Y-93998752D01*
%TO.C,Q17*%
X85382171Y-94665419D02*
X85286933Y-94617800D01*
X85191695Y-94522561D01*
X85048838Y-94379704D01*
X84953600Y-94332085D01*
X84858361Y-94332085D01*
X84905980Y-94570180D02*
X84810742Y-94522561D01*
X84715504Y-94427323D01*
X84667885Y-94236847D01*
X84667885Y-93903514D01*
X84715504Y-93713038D01*
X84810742Y-93617800D01*
X84905980Y-93570180D01*
X85096457Y-93570180D01*
X85191695Y-93617800D01*
X85286933Y-93713038D01*
X85334552Y-93903514D01*
X85334552Y-94236847D01*
X85286933Y-94427323D01*
X85191695Y-94522561D01*
X85096457Y-94570180D01*
X84905980Y-94570180D01*
X86286933Y-94570180D02*
X85715504Y-94570180D01*
X86001219Y-94570180D02*
X86001219Y-93570180D01*
X85905980Y-93713038D01*
X85810742Y-93808276D01*
X85715504Y-93855895D01*
X86620266Y-93570180D02*
X87286933Y-93570180D01*
X86858361Y-94570180D01*
%TO.C,Q16*%
X68643571Y-94665419D02*
X68548333Y-94617800D01*
X68453095Y-94522561D01*
X68310238Y-94379704D01*
X68215000Y-94332085D01*
X68119761Y-94332085D01*
X68167380Y-94570180D02*
X68072142Y-94522561D01*
X67976904Y-94427323D01*
X67929285Y-94236847D01*
X67929285Y-93903514D01*
X67976904Y-93713038D01*
X68072142Y-93617800D01*
X68167380Y-93570180D01*
X68357857Y-93570180D01*
X68453095Y-93617800D01*
X68548333Y-93713038D01*
X68595952Y-93903514D01*
X68595952Y-94236847D01*
X68548333Y-94427323D01*
X68453095Y-94522561D01*
X68357857Y-94570180D01*
X68167380Y-94570180D01*
X69548333Y-94570180D02*
X68976904Y-94570180D01*
X69262619Y-94570180D02*
X69262619Y-93570180D01*
X69167380Y-93713038D01*
X69072142Y-93808276D01*
X68976904Y-93855895D01*
X70405476Y-93570180D02*
X70215000Y-93570180D01*
X70119761Y-93617800D01*
X70072142Y-93665419D01*
X69976904Y-93808276D01*
X69929285Y-93998752D01*
X69929285Y-94379704D01*
X69976904Y-94474942D01*
X70024523Y-94522561D01*
X70119761Y-94570180D01*
X70310238Y-94570180D01*
X70405476Y-94522561D01*
X70453095Y-94474942D01*
X70500714Y-94379704D01*
X70500714Y-94141609D01*
X70453095Y-94046371D01*
X70405476Y-93998752D01*
X70310238Y-93951133D01*
X70119761Y-93951133D01*
X70024523Y-93998752D01*
X69976904Y-94046371D01*
X69929285Y-94141609D01*
%TO.C,Q15*%
X133769171Y-73100819D02*
X133673933Y-73053200D01*
X133578695Y-72957961D01*
X133435838Y-72815104D01*
X133340600Y-72767485D01*
X133245361Y-72767485D01*
X133292980Y-73005580D02*
X133197742Y-72957961D01*
X133102504Y-72862723D01*
X133054885Y-72672247D01*
X133054885Y-72338914D01*
X133102504Y-72148438D01*
X133197742Y-72053200D01*
X133292980Y-72005580D01*
X133483457Y-72005580D01*
X133578695Y-72053200D01*
X133673933Y-72148438D01*
X133721552Y-72338914D01*
X133721552Y-72672247D01*
X133673933Y-72862723D01*
X133578695Y-72957961D01*
X133483457Y-73005580D01*
X133292980Y-73005580D01*
X134673933Y-73005580D02*
X134102504Y-73005580D01*
X134388219Y-73005580D02*
X134388219Y-72005580D01*
X134292980Y-72148438D01*
X134197742Y-72243676D01*
X134102504Y-72291295D01*
X135578695Y-72005580D02*
X135102504Y-72005580D01*
X135054885Y-72481771D01*
X135102504Y-72434152D01*
X135197742Y-72386533D01*
X135435838Y-72386533D01*
X135531076Y-72434152D01*
X135578695Y-72481771D01*
X135626314Y-72577009D01*
X135626314Y-72815104D01*
X135578695Y-72910342D01*
X135531076Y-72957961D01*
X135435838Y-73005580D01*
X135197742Y-73005580D01*
X135102504Y-72957961D01*
X135054885Y-72910342D01*
%TO.C,Q14*%
X116674971Y-73100819D02*
X116579733Y-73053200D01*
X116484495Y-72957961D01*
X116341638Y-72815104D01*
X116246400Y-72767485D01*
X116151161Y-72767485D01*
X116198780Y-73005580D02*
X116103542Y-72957961D01*
X116008304Y-72862723D01*
X115960685Y-72672247D01*
X115960685Y-72338914D01*
X116008304Y-72148438D01*
X116103542Y-72053200D01*
X116198780Y-72005580D01*
X116389257Y-72005580D01*
X116484495Y-72053200D01*
X116579733Y-72148438D01*
X116627352Y-72338914D01*
X116627352Y-72672247D01*
X116579733Y-72862723D01*
X116484495Y-72957961D01*
X116389257Y-73005580D01*
X116198780Y-73005580D01*
X117579733Y-73005580D02*
X117008304Y-73005580D01*
X117294019Y-73005580D02*
X117294019Y-72005580D01*
X117198780Y-72148438D01*
X117103542Y-72243676D01*
X117008304Y-72291295D01*
X118436876Y-72338914D02*
X118436876Y-73005580D01*
X118198780Y-71957961D02*
X117960685Y-72672247D01*
X118579733Y-72672247D01*
%TO.C,Q13*%
X99428371Y-73100819D02*
X99333133Y-73053200D01*
X99237895Y-72957961D01*
X99095038Y-72815104D01*
X98999800Y-72767485D01*
X98904561Y-72767485D01*
X98952180Y-73005580D02*
X98856942Y-72957961D01*
X98761704Y-72862723D01*
X98714085Y-72672247D01*
X98714085Y-72338914D01*
X98761704Y-72148438D01*
X98856942Y-72053200D01*
X98952180Y-72005580D01*
X99142657Y-72005580D01*
X99237895Y-72053200D01*
X99333133Y-72148438D01*
X99380752Y-72338914D01*
X99380752Y-72672247D01*
X99333133Y-72862723D01*
X99237895Y-72957961D01*
X99142657Y-73005580D01*
X98952180Y-73005580D01*
X100333133Y-73005580D02*
X99761704Y-73005580D01*
X100047419Y-73005580D02*
X100047419Y-72005580D01*
X99952180Y-72148438D01*
X99856942Y-72243676D01*
X99761704Y-72291295D01*
X100666466Y-72005580D02*
X101285514Y-72005580D01*
X100952180Y-72386533D01*
X101095038Y-72386533D01*
X101190276Y-72434152D01*
X101237895Y-72481771D01*
X101285514Y-72577009D01*
X101285514Y-72815104D01*
X101237895Y-72910342D01*
X101190276Y-72957961D01*
X101095038Y-73005580D01*
X100809323Y-73005580D01*
X100714085Y-72957961D01*
X100666466Y-72910342D01*
%TO.C,Q12*%
X82308771Y-73100819D02*
X82213533Y-73053200D01*
X82118295Y-72957961D01*
X81975438Y-72815104D01*
X81880200Y-72767485D01*
X81784961Y-72767485D01*
X81832580Y-73005580D02*
X81737342Y-72957961D01*
X81642104Y-72862723D01*
X81594485Y-72672247D01*
X81594485Y-72338914D01*
X81642104Y-72148438D01*
X81737342Y-72053200D01*
X81832580Y-72005580D01*
X82023057Y-72005580D01*
X82118295Y-72053200D01*
X82213533Y-72148438D01*
X82261152Y-72338914D01*
X82261152Y-72672247D01*
X82213533Y-72862723D01*
X82118295Y-72957961D01*
X82023057Y-73005580D01*
X81832580Y-73005580D01*
X83213533Y-73005580D02*
X82642104Y-73005580D01*
X82927819Y-73005580D02*
X82927819Y-72005580D01*
X82832580Y-72148438D01*
X82737342Y-72243676D01*
X82642104Y-72291295D01*
X83594485Y-72100819D02*
X83642104Y-72053200D01*
X83737342Y-72005580D01*
X83975438Y-72005580D01*
X84070676Y-72053200D01*
X84118295Y-72100819D01*
X84165914Y-72196057D01*
X84165914Y-72291295D01*
X84118295Y-72434152D01*
X83546866Y-73005580D01*
X84165914Y-73005580D01*
%TO.C,Q11*%
X65265371Y-73100819D02*
X65170133Y-73053200D01*
X65074895Y-72957961D01*
X64932038Y-72815104D01*
X64836800Y-72767485D01*
X64741561Y-72767485D01*
X64789180Y-73005580D02*
X64693942Y-72957961D01*
X64598704Y-72862723D01*
X64551085Y-72672247D01*
X64551085Y-72338914D01*
X64598704Y-72148438D01*
X64693942Y-72053200D01*
X64789180Y-72005580D01*
X64979657Y-72005580D01*
X65074895Y-72053200D01*
X65170133Y-72148438D01*
X65217752Y-72338914D01*
X65217752Y-72672247D01*
X65170133Y-72862723D01*
X65074895Y-72957961D01*
X64979657Y-73005580D01*
X64789180Y-73005580D01*
X66170133Y-73005580D02*
X65598704Y-73005580D01*
X65884419Y-73005580D02*
X65884419Y-72005580D01*
X65789180Y-72148438D01*
X65693942Y-72243676D01*
X65598704Y-72291295D01*
X67122514Y-73005580D02*
X66551085Y-73005580D01*
X66836800Y-73005580D02*
X66836800Y-72005580D01*
X66741561Y-72148438D01*
X66646323Y-72243676D01*
X66551085Y-72291295D01*
%TO.C,Q10*%
X136893371Y-55398919D02*
X136798133Y-55351300D01*
X136702895Y-55256061D01*
X136560038Y-55113204D01*
X136464800Y-55065585D01*
X136369561Y-55065585D01*
X136417180Y-55303680D02*
X136321942Y-55256061D01*
X136226704Y-55160823D01*
X136179085Y-54970347D01*
X136179085Y-54637014D01*
X136226704Y-54446538D01*
X136321942Y-54351300D01*
X136417180Y-54303680D01*
X136607657Y-54303680D01*
X136702895Y-54351300D01*
X136798133Y-54446538D01*
X136845752Y-54637014D01*
X136845752Y-54970347D01*
X136798133Y-55160823D01*
X136702895Y-55256061D01*
X136607657Y-55303680D01*
X136417180Y-55303680D01*
X137798133Y-55303680D02*
X137226704Y-55303680D01*
X137512419Y-55303680D02*
X137512419Y-54303680D01*
X137417180Y-54446538D01*
X137321942Y-54541776D01*
X137226704Y-54589395D01*
X138417180Y-54303680D02*
X138512419Y-54303680D01*
X138607657Y-54351300D01*
X138655276Y-54398919D01*
X138702895Y-54494157D01*
X138750514Y-54684633D01*
X138750514Y-54922728D01*
X138702895Y-55113204D01*
X138655276Y-55208442D01*
X138607657Y-55256061D01*
X138512419Y-55303680D01*
X138417180Y-55303680D01*
X138321942Y-55256061D01*
X138274323Y-55208442D01*
X138226704Y-55113204D01*
X138179085Y-54922728D01*
X138179085Y-54684633D01*
X138226704Y-54494157D01*
X138274323Y-54398919D01*
X138321942Y-54351300D01*
X138417180Y-54303680D01*
%TO.C,Q9*%
X119792761Y-55409719D02*
X119697523Y-55362100D01*
X119602285Y-55266861D01*
X119459428Y-55124004D01*
X119364190Y-55076385D01*
X119268952Y-55076385D01*
X119316571Y-55314480D02*
X119221333Y-55266861D01*
X119126095Y-55171623D01*
X119078476Y-54981147D01*
X119078476Y-54647814D01*
X119126095Y-54457338D01*
X119221333Y-54362100D01*
X119316571Y-54314480D01*
X119507047Y-54314480D01*
X119602285Y-54362100D01*
X119697523Y-54457338D01*
X119745142Y-54647814D01*
X119745142Y-54981147D01*
X119697523Y-55171623D01*
X119602285Y-55266861D01*
X119507047Y-55314480D01*
X119316571Y-55314480D01*
X120221333Y-55314480D02*
X120411809Y-55314480D01*
X120507047Y-55266861D01*
X120554666Y-55219242D01*
X120649904Y-55076385D01*
X120697523Y-54885909D01*
X120697523Y-54504957D01*
X120649904Y-54409719D01*
X120602285Y-54362100D01*
X120507047Y-54314480D01*
X120316571Y-54314480D01*
X120221333Y-54362100D01*
X120173714Y-54409719D01*
X120126095Y-54504957D01*
X120126095Y-54743052D01*
X120173714Y-54838290D01*
X120221333Y-54885909D01*
X120316571Y-54933528D01*
X120507047Y-54933528D01*
X120602285Y-54885909D01*
X120649904Y-54838290D01*
X120697523Y-54743052D01*
%TO.C,Q8*%
X102596961Y-55409719D02*
X102501723Y-55362100D01*
X102406485Y-55266861D01*
X102263628Y-55124004D01*
X102168390Y-55076385D01*
X102073152Y-55076385D01*
X102120771Y-55314480D02*
X102025533Y-55266861D01*
X101930295Y-55171623D01*
X101882676Y-54981147D01*
X101882676Y-54647814D01*
X101930295Y-54457338D01*
X102025533Y-54362100D01*
X102120771Y-54314480D01*
X102311247Y-54314480D01*
X102406485Y-54362100D01*
X102501723Y-54457338D01*
X102549342Y-54647814D01*
X102549342Y-54981147D01*
X102501723Y-55171623D01*
X102406485Y-55266861D01*
X102311247Y-55314480D01*
X102120771Y-55314480D01*
X103120771Y-54743052D02*
X103025533Y-54695433D01*
X102977914Y-54647814D01*
X102930295Y-54552576D01*
X102930295Y-54504957D01*
X102977914Y-54409719D01*
X103025533Y-54362100D01*
X103120771Y-54314480D01*
X103311247Y-54314480D01*
X103406485Y-54362100D01*
X103454104Y-54409719D01*
X103501723Y-54504957D01*
X103501723Y-54552576D01*
X103454104Y-54647814D01*
X103406485Y-54695433D01*
X103311247Y-54743052D01*
X103120771Y-54743052D01*
X103025533Y-54790671D01*
X102977914Y-54838290D01*
X102930295Y-54933528D01*
X102930295Y-55124004D01*
X102977914Y-55219242D01*
X103025533Y-55266861D01*
X103120771Y-55314480D01*
X103311247Y-55314480D01*
X103406485Y-55266861D01*
X103454104Y-55219242D01*
X103501723Y-55124004D01*
X103501723Y-54933528D01*
X103454104Y-54838290D01*
X103406485Y-54790671D01*
X103311247Y-54743052D01*
%TO.C,Q7*%
X85426561Y-55409719D02*
X85331323Y-55362100D01*
X85236085Y-55266861D01*
X85093228Y-55124004D01*
X84997990Y-55076385D01*
X84902752Y-55076385D01*
X84950371Y-55314480D02*
X84855133Y-55266861D01*
X84759895Y-55171623D01*
X84712276Y-54981147D01*
X84712276Y-54647814D01*
X84759895Y-54457338D01*
X84855133Y-54362100D01*
X84950371Y-54314480D01*
X85140847Y-54314480D01*
X85236085Y-54362100D01*
X85331323Y-54457338D01*
X85378942Y-54647814D01*
X85378942Y-54981147D01*
X85331323Y-55171623D01*
X85236085Y-55266861D01*
X85140847Y-55314480D01*
X84950371Y-55314480D01*
X85712276Y-54314480D02*
X86378942Y-54314480D01*
X85950371Y-55314480D01*
%TO.C,Q6*%
X68687961Y-55409719D02*
X68592723Y-55362100D01*
X68497485Y-55266861D01*
X68354628Y-55124004D01*
X68259390Y-55076385D01*
X68164152Y-55076385D01*
X68211771Y-55314480D02*
X68116533Y-55266861D01*
X68021295Y-55171623D01*
X67973676Y-54981147D01*
X67973676Y-54647814D01*
X68021295Y-54457338D01*
X68116533Y-54362100D01*
X68211771Y-54314480D01*
X68402247Y-54314480D01*
X68497485Y-54362100D01*
X68592723Y-54457338D01*
X68640342Y-54647814D01*
X68640342Y-54981147D01*
X68592723Y-55171623D01*
X68497485Y-55266861D01*
X68402247Y-55314480D01*
X68211771Y-55314480D01*
X69497485Y-54314480D02*
X69307009Y-54314480D01*
X69211771Y-54362100D01*
X69164152Y-54409719D01*
X69068914Y-54552576D01*
X69021295Y-54743052D01*
X69021295Y-55124004D01*
X69068914Y-55219242D01*
X69116533Y-55266861D01*
X69211771Y-55314480D01*
X69402247Y-55314480D01*
X69497485Y-55266861D01*
X69545104Y-55219242D01*
X69592723Y-55124004D01*
X69592723Y-54885909D01*
X69545104Y-54790671D01*
X69497485Y-54743052D01*
X69402247Y-54695433D01*
X69211771Y-54695433D01*
X69116533Y-54743052D01*
X69068914Y-54790671D01*
X69021295Y-54885909D01*
%TO.C,Q5*%
X134270761Y-34061019D02*
X134175523Y-34013400D01*
X134080285Y-33918161D01*
X133937428Y-33775304D01*
X133842190Y-33727685D01*
X133746952Y-33727685D01*
X133794571Y-33965780D02*
X133699333Y-33918161D01*
X133604095Y-33822923D01*
X133556476Y-33632447D01*
X133556476Y-33299114D01*
X133604095Y-33108638D01*
X133699333Y-33013400D01*
X133794571Y-32965780D01*
X133985047Y-32965780D01*
X134080285Y-33013400D01*
X134175523Y-33108638D01*
X134223142Y-33299114D01*
X134223142Y-33632447D01*
X134175523Y-33822923D01*
X134080285Y-33918161D01*
X133985047Y-33965780D01*
X133794571Y-33965780D01*
X135127904Y-32965780D02*
X134651714Y-32965780D01*
X134604095Y-33441971D01*
X134651714Y-33394352D01*
X134746952Y-33346733D01*
X134985047Y-33346733D01*
X135080285Y-33394352D01*
X135127904Y-33441971D01*
X135175523Y-33537209D01*
X135175523Y-33775304D01*
X135127904Y-33870542D01*
X135080285Y-33918161D01*
X134985047Y-33965780D01*
X134746952Y-33965780D01*
X134651714Y-33918161D01*
X134604095Y-33870542D01*
%TO.C,Q4*%
X117176561Y-34061019D02*
X117081323Y-34013400D01*
X116986085Y-33918161D01*
X116843228Y-33775304D01*
X116747990Y-33727685D01*
X116652752Y-33727685D01*
X116700371Y-33965780D02*
X116605133Y-33918161D01*
X116509895Y-33822923D01*
X116462276Y-33632447D01*
X116462276Y-33299114D01*
X116509895Y-33108638D01*
X116605133Y-33013400D01*
X116700371Y-32965780D01*
X116890847Y-32965780D01*
X116986085Y-33013400D01*
X117081323Y-33108638D01*
X117128942Y-33299114D01*
X117128942Y-33632447D01*
X117081323Y-33822923D01*
X116986085Y-33918161D01*
X116890847Y-33965780D01*
X116700371Y-33965780D01*
X117986085Y-33299114D02*
X117986085Y-33965780D01*
X117747990Y-32918161D02*
X117509895Y-33632447D01*
X118128942Y-33632447D01*
%TO.C,Q3*%
X99929961Y-34061019D02*
X99834723Y-34013400D01*
X99739485Y-33918161D01*
X99596628Y-33775304D01*
X99501390Y-33727685D01*
X99406152Y-33727685D01*
X99453771Y-33965780D02*
X99358533Y-33918161D01*
X99263295Y-33822923D01*
X99215676Y-33632447D01*
X99215676Y-33299114D01*
X99263295Y-33108638D01*
X99358533Y-33013400D01*
X99453771Y-32965780D01*
X99644247Y-32965780D01*
X99739485Y-33013400D01*
X99834723Y-33108638D01*
X99882342Y-33299114D01*
X99882342Y-33632447D01*
X99834723Y-33822923D01*
X99739485Y-33918161D01*
X99644247Y-33965780D01*
X99453771Y-33965780D01*
X100215676Y-32965780D02*
X100834723Y-32965780D01*
X100501390Y-33346733D01*
X100644247Y-33346733D01*
X100739485Y-33394352D01*
X100787104Y-33441971D01*
X100834723Y-33537209D01*
X100834723Y-33775304D01*
X100787104Y-33870542D01*
X100739485Y-33918161D01*
X100644247Y-33965780D01*
X100358533Y-33965780D01*
X100263295Y-33918161D01*
X100215676Y-33870542D01*
%TO.C,Q2*%
X82810361Y-34061019D02*
X82715123Y-34013400D01*
X82619885Y-33918161D01*
X82477028Y-33775304D01*
X82381790Y-33727685D01*
X82286552Y-33727685D01*
X82334171Y-33965780D02*
X82238933Y-33918161D01*
X82143695Y-33822923D01*
X82096076Y-33632447D01*
X82096076Y-33299114D01*
X82143695Y-33108638D01*
X82238933Y-33013400D01*
X82334171Y-32965780D01*
X82524647Y-32965780D01*
X82619885Y-33013400D01*
X82715123Y-33108638D01*
X82762742Y-33299114D01*
X82762742Y-33632447D01*
X82715123Y-33822923D01*
X82619885Y-33918161D01*
X82524647Y-33965780D01*
X82334171Y-33965780D01*
X83143695Y-33061019D02*
X83191314Y-33013400D01*
X83286552Y-32965780D01*
X83524647Y-32965780D01*
X83619885Y-33013400D01*
X83667504Y-33061019D01*
X83715123Y-33156257D01*
X83715123Y-33251495D01*
X83667504Y-33394352D01*
X83096076Y-33965780D01*
X83715123Y-33965780D01*
%TO.C,Q1*%
X65766961Y-34061019D02*
X65671723Y-34013400D01*
X65576485Y-33918161D01*
X65433628Y-33775304D01*
X65338390Y-33727685D01*
X65243152Y-33727685D01*
X65290771Y-33965780D02*
X65195533Y-33918161D01*
X65100295Y-33822923D01*
X65052676Y-33632447D01*
X65052676Y-33299114D01*
X65100295Y-33108638D01*
X65195533Y-33013400D01*
X65290771Y-32965780D01*
X65481247Y-32965780D01*
X65576485Y-33013400D01*
X65671723Y-33108638D01*
X65719342Y-33299114D01*
X65719342Y-33632447D01*
X65671723Y-33822923D01*
X65576485Y-33918161D01*
X65481247Y-33965780D01*
X65290771Y-33965780D01*
X66671723Y-33965780D02*
X66100295Y-33965780D01*
X66386009Y-33965780D02*
X66386009Y-32965780D01*
X66290771Y-33108638D01*
X66195533Y-33203876D01*
X66100295Y-33251495D01*
%TO.C,D20*%
X143387914Y-96705680D02*
X143387914Y-95705680D01*
X143626009Y-95705680D01*
X143768866Y-95753300D01*
X143864104Y-95848538D01*
X143911723Y-95943776D01*
X143959342Y-96134252D01*
X143959342Y-96277109D01*
X143911723Y-96467585D01*
X143864104Y-96562823D01*
X143768866Y-96658061D01*
X143626009Y-96705680D01*
X143387914Y-96705680D01*
X144340295Y-95800919D02*
X144387914Y-95753300D01*
X144483152Y-95705680D01*
X144721247Y-95705680D01*
X144816485Y-95753300D01*
X144864104Y-95800919D01*
X144911723Y-95896157D01*
X144911723Y-95991395D01*
X144864104Y-96134252D01*
X144292676Y-96705680D01*
X144911723Y-96705680D01*
X145530771Y-95705680D02*
X145626009Y-95705680D01*
X145721247Y-95753300D01*
X145768866Y-95800919D01*
X145816485Y-95896157D01*
X145864104Y-96086633D01*
X145864104Y-96324728D01*
X145816485Y-96515204D01*
X145768866Y-96610442D01*
X145721247Y-96658061D01*
X145626009Y-96705680D01*
X145530771Y-96705680D01*
X145435533Y-96658061D01*
X145387914Y-96610442D01*
X145340295Y-96515204D01*
X145292676Y-96324728D01*
X145292676Y-96086633D01*
X145340295Y-95896157D01*
X145387914Y-95800919D01*
X145435533Y-95753300D01*
X145530771Y-95705680D01*
%TO.C,D19*%
X130504580Y-94965685D02*
X129504580Y-94965685D01*
X129504580Y-94727590D01*
X129552200Y-94584733D01*
X129647438Y-94489495D01*
X129742676Y-94441876D01*
X129933152Y-94394257D01*
X130076009Y-94394257D01*
X130266485Y-94441876D01*
X130361723Y-94489495D01*
X130456961Y-94584733D01*
X130504580Y-94727590D01*
X130504580Y-94965685D01*
X130504580Y-93441876D02*
X130504580Y-94013304D01*
X130504580Y-93727590D02*
X129504580Y-93727590D01*
X129647438Y-93822828D01*
X129742676Y-93918066D01*
X129790295Y-94013304D01*
X130504580Y-92965685D02*
X130504580Y-92775209D01*
X130456961Y-92679971D01*
X130409342Y-92632352D01*
X130266485Y-92537114D01*
X130076009Y-92489495D01*
X129695057Y-92489495D01*
X129599819Y-92537114D01*
X129552200Y-92584733D01*
X129504580Y-92679971D01*
X129504580Y-92870447D01*
X129552200Y-92965685D01*
X129599819Y-93013304D01*
X129695057Y-93060923D01*
X129933152Y-93060923D01*
X130028390Y-93013304D01*
X130076009Y-92965685D01*
X130123628Y-92870447D01*
X130123628Y-92679971D01*
X130076009Y-92584733D01*
X130028390Y-92537114D01*
X129933152Y-92489495D01*
%TO.C,D18*%
X113359580Y-94965685D02*
X112359580Y-94965685D01*
X112359580Y-94727590D01*
X112407200Y-94584733D01*
X112502438Y-94489495D01*
X112597676Y-94441876D01*
X112788152Y-94394257D01*
X112931009Y-94394257D01*
X113121485Y-94441876D01*
X113216723Y-94489495D01*
X113311961Y-94584733D01*
X113359580Y-94727590D01*
X113359580Y-94965685D01*
X113359580Y-93441876D02*
X113359580Y-94013304D01*
X113359580Y-93727590D02*
X112359580Y-93727590D01*
X112502438Y-93822828D01*
X112597676Y-93918066D01*
X112645295Y-94013304D01*
X112788152Y-92870447D02*
X112740533Y-92965685D01*
X112692914Y-93013304D01*
X112597676Y-93060923D01*
X112550057Y-93060923D01*
X112454819Y-93013304D01*
X112407200Y-92965685D01*
X112359580Y-92870447D01*
X112359580Y-92679971D01*
X112407200Y-92584733D01*
X112454819Y-92537114D01*
X112550057Y-92489495D01*
X112597676Y-92489495D01*
X112692914Y-92537114D01*
X112740533Y-92584733D01*
X112788152Y-92679971D01*
X112788152Y-92870447D01*
X112835771Y-92965685D01*
X112883390Y-93013304D01*
X112978628Y-93060923D01*
X113169104Y-93060923D01*
X113264342Y-93013304D01*
X113311961Y-92965685D01*
X113359580Y-92870447D01*
X113359580Y-92679971D01*
X113311961Y-92584733D01*
X113264342Y-92537114D01*
X113169104Y-92489495D01*
X112978628Y-92489495D01*
X112883390Y-92537114D01*
X112835771Y-92584733D01*
X112788152Y-92679971D01*
%TO.C,D17*%
X96265380Y-94965685D02*
X95265380Y-94965685D01*
X95265380Y-94727590D01*
X95313000Y-94584733D01*
X95408238Y-94489495D01*
X95503476Y-94441876D01*
X95693952Y-94394257D01*
X95836809Y-94394257D01*
X96027285Y-94441876D01*
X96122523Y-94489495D01*
X96217761Y-94584733D01*
X96265380Y-94727590D01*
X96265380Y-94965685D01*
X96265380Y-93441876D02*
X96265380Y-94013304D01*
X96265380Y-93727590D02*
X95265380Y-93727590D01*
X95408238Y-93822828D01*
X95503476Y-93918066D01*
X95551095Y-94013304D01*
X95265380Y-93108542D02*
X95265380Y-92441876D01*
X96265380Y-92870447D01*
%TO.C,D16*%
X79044180Y-94965685D02*
X78044180Y-94965685D01*
X78044180Y-94727590D01*
X78091800Y-94584733D01*
X78187038Y-94489495D01*
X78282276Y-94441876D01*
X78472752Y-94394257D01*
X78615609Y-94394257D01*
X78806085Y-94441876D01*
X78901323Y-94489495D01*
X78996561Y-94584733D01*
X79044180Y-94727590D01*
X79044180Y-94965685D01*
X79044180Y-93441876D02*
X79044180Y-94013304D01*
X79044180Y-93727590D02*
X78044180Y-93727590D01*
X78187038Y-93822828D01*
X78282276Y-93918066D01*
X78329895Y-94013304D01*
X78044180Y-92584733D02*
X78044180Y-92775209D01*
X78091800Y-92870447D01*
X78139419Y-92918066D01*
X78282276Y-93013304D01*
X78472752Y-93060923D01*
X78853704Y-93060923D01*
X78948942Y-93013304D01*
X78996561Y-92965685D01*
X79044180Y-92870447D01*
X79044180Y-92679971D01*
X78996561Y-92584733D01*
X78948942Y-92537114D01*
X78853704Y-92489495D01*
X78615609Y-92489495D01*
X78520371Y-92537114D01*
X78472752Y-92584733D01*
X78425133Y-92679971D01*
X78425133Y-92870447D01*
X78472752Y-92965685D01*
X78520371Y-93013304D01*
X78615609Y-93060923D01*
%TO.C,D15*%
X132161114Y-86951180D02*
X132161114Y-85951180D01*
X132399209Y-85951180D01*
X132542066Y-85998800D01*
X132637304Y-86094038D01*
X132684923Y-86189276D01*
X132732542Y-86379752D01*
X132732542Y-86522609D01*
X132684923Y-86713085D01*
X132637304Y-86808323D01*
X132542066Y-86903561D01*
X132399209Y-86951180D01*
X132161114Y-86951180D01*
X133684923Y-86951180D02*
X133113495Y-86951180D01*
X133399209Y-86951180D02*
X133399209Y-85951180D01*
X133303971Y-86094038D01*
X133208733Y-86189276D01*
X133113495Y-86236895D01*
X134589685Y-85951180D02*
X134113495Y-85951180D01*
X134065876Y-86427371D01*
X134113495Y-86379752D01*
X134208733Y-86332133D01*
X134446828Y-86332133D01*
X134542066Y-86379752D01*
X134589685Y-86427371D01*
X134637304Y-86522609D01*
X134637304Y-86760704D01*
X134589685Y-86855942D01*
X134542066Y-86903561D01*
X134446828Y-86951180D01*
X134208733Y-86951180D01*
X134113495Y-86903561D01*
X134065876Y-86855942D01*
%TO.C,D14*%
X114990714Y-86951180D02*
X114990714Y-85951180D01*
X115228809Y-85951180D01*
X115371666Y-85998800D01*
X115466904Y-86094038D01*
X115514523Y-86189276D01*
X115562142Y-86379752D01*
X115562142Y-86522609D01*
X115514523Y-86713085D01*
X115466904Y-86808323D01*
X115371666Y-86903561D01*
X115228809Y-86951180D01*
X114990714Y-86951180D01*
X116514523Y-86951180D02*
X115943095Y-86951180D01*
X116228809Y-86951180D02*
X116228809Y-85951180D01*
X116133571Y-86094038D01*
X116038333Y-86189276D01*
X115943095Y-86236895D01*
X117371666Y-86284514D02*
X117371666Y-86951180D01*
X117133571Y-85903561D02*
X116895476Y-86617847D01*
X117514523Y-86617847D01*
%TO.C,D13*%
X97820314Y-86951180D02*
X97820314Y-85951180D01*
X98058409Y-85951180D01*
X98201266Y-85998800D01*
X98296504Y-86094038D01*
X98344123Y-86189276D01*
X98391742Y-86379752D01*
X98391742Y-86522609D01*
X98344123Y-86713085D01*
X98296504Y-86808323D01*
X98201266Y-86903561D01*
X98058409Y-86951180D01*
X97820314Y-86951180D01*
X99344123Y-86951180D02*
X98772695Y-86951180D01*
X99058409Y-86951180D02*
X99058409Y-85951180D01*
X98963171Y-86094038D01*
X98867933Y-86189276D01*
X98772695Y-86236895D01*
X99677457Y-85951180D02*
X100296504Y-85951180D01*
X99963171Y-86332133D01*
X100106028Y-86332133D01*
X100201266Y-86379752D01*
X100248885Y-86427371D01*
X100296504Y-86522609D01*
X100296504Y-86760704D01*
X100248885Y-86855942D01*
X100201266Y-86903561D01*
X100106028Y-86951180D01*
X99820314Y-86951180D01*
X99725076Y-86903561D01*
X99677457Y-86855942D01*
%TO.C,D12*%
X80649914Y-86951180D02*
X80649914Y-85951180D01*
X80888009Y-85951180D01*
X81030866Y-85998800D01*
X81126104Y-86094038D01*
X81173723Y-86189276D01*
X81221342Y-86379752D01*
X81221342Y-86522609D01*
X81173723Y-86713085D01*
X81126104Y-86808323D01*
X81030866Y-86903561D01*
X80888009Y-86951180D01*
X80649914Y-86951180D01*
X82173723Y-86951180D02*
X81602295Y-86951180D01*
X81888009Y-86951180D02*
X81888009Y-85951180D01*
X81792771Y-86094038D01*
X81697533Y-86189276D01*
X81602295Y-86236895D01*
X82554676Y-86046419D02*
X82602295Y-85998800D01*
X82697533Y-85951180D01*
X82935628Y-85951180D01*
X83030866Y-85998800D01*
X83078485Y-86046419D01*
X83126104Y-86141657D01*
X83126104Y-86236895D01*
X83078485Y-86379752D01*
X82507057Y-86951180D01*
X83126104Y-86951180D01*
%TO.C,D11*%
X63949414Y-86951180D02*
X63949414Y-85951180D01*
X64187509Y-85951180D01*
X64330366Y-85998800D01*
X64425604Y-86094038D01*
X64473223Y-86189276D01*
X64520842Y-86379752D01*
X64520842Y-86522609D01*
X64473223Y-86713085D01*
X64425604Y-86808323D01*
X64330366Y-86903561D01*
X64187509Y-86951180D01*
X63949414Y-86951180D01*
X65473223Y-86951180D02*
X64901795Y-86951180D01*
X65187509Y-86951180D02*
X65187509Y-85951180D01*
X65092271Y-86094038D01*
X64997033Y-86189276D01*
X64901795Y-86236895D01*
X66425604Y-86951180D02*
X65854176Y-86951180D01*
X66139890Y-86951180D02*
X66139890Y-85951180D01*
X66044652Y-86094038D01*
X65949414Y-86189276D01*
X65854176Y-86236895D01*
%TO.C,D10*%
X148030580Y-55811585D02*
X147030580Y-55811585D01*
X147030580Y-55573490D01*
X147078200Y-55430633D01*
X147173438Y-55335395D01*
X147268676Y-55287776D01*
X147459152Y-55240157D01*
X147602009Y-55240157D01*
X147792485Y-55287776D01*
X147887723Y-55335395D01*
X147982961Y-55430633D01*
X148030580Y-55573490D01*
X148030580Y-55811585D01*
X148030580Y-54287776D02*
X148030580Y-54859204D01*
X148030580Y-54573490D02*
X147030580Y-54573490D01*
X147173438Y-54668728D01*
X147268676Y-54763966D01*
X147316295Y-54859204D01*
X147030580Y-53668728D02*
X147030580Y-53573490D01*
X147078200Y-53478252D01*
X147125819Y-53430633D01*
X147221057Y-53383014D01*
X147411533Y-53335395D01*
X147649628Y-53335395D01*
X147840104Y-53383014D01*
X147935342Y-53430633D01*
X147982961Y-53478252D01*
X148030580Y-53573490D01*
X148030580Y-53668728D01*
X147982961Y-53763966D01*
X147935342Y-53811585D01*
X147840104Y-53859204D01*
X147649628Y-53906823D01*
X147411533Y-53906823D01*
X147221057Y-53859204D01*
X147125819Y-53811585D01*
X147078200Y-53763966D01*
X147030580Y-53668728D01*
%TO.C,D9*%
X130453780Y-55322695D02*
X129453780Y-55322695D01*
X129453780Y-55084600D01*
X129501400Y-54941742D01*
X129596638Y-54846504D01*
X129691876Y-54798885D01*
X129882352Y-54751266D01*
X130025209Y-54751266D01*
X130215685Y-54798885D01*
X130310923Y-54846504D01*
X130406161Y-54941742D01*
X130453780Y-55084600D01*
X130453780Y-55322695D01*
X130453780Y-54275076D02*
X130453780Y-54084600D01*
X130406161Y-53989361D01*
X130358542Y-53941742D01*
X130215685Y-53846504D01*
X130025209Y-53798885D01*
X129644257Y-53798885D01*
X129549019Y-53846504D01*
X129501400Y-53894123D01*
X129453780Y-53989361D01*
X129453780Y-54179838D01*
X129501400Y-54275076D01*
X129549019Y-54322695D01*
X129644257Y-54370314D01*
X129882352Y-54370314D01*
X129977590Y-54322695D01*
X130025209Y-54275076D01*
X130072828Y-54179838D01*
X130072828Y-53989361D01*
X130025209Y-53894123D01*
X129977590Y-53846504D01*
X129882352Y-53798885D01*
%TO.C,D8*%
X113308780Y-55335395D02*
X112308780Y-55335395D01*
X112308780Y-55097300D01*
X112356400Y-54954442D01*
X112451638Y-54859204D01*
X112546876Y-54811585D01*
X112737352Y-54763966D01*
X112880209Y-54763966D01*
X113070685Y-54811585D01*
X113165923Y-54859204D01*
X113261161Y-54954442D01*
X113308780Y-55097300D01*
X113308780Y-55335395D01*
X112737352Y-54192538D02*
X112689733Y-54287776D01*
X112642114Y-54335395D01*
X112546876Y-54383014D01*
X112499257Y-54383014D01*
X112404019Y-54335395D01*
X112356400Y-54287776D01*
X112308780Y-54192538D01*
X112308780Y-54002061D01*
X112356400Y-53906823D01*
X112404019Y-53859204D01*
X112499257Y-53811585D01*
X112546876Y-53811585D01*
X112642114Y-53859204D01*
X112689733Y-53906823D01*
X112737352Y-54002061D01*
X112737352Y-54192538D01*
X112784971Y-54287776D01*
X112832590Y-54335395D01*
X112927828Y-54383014D01*
X113118304Y-54383014D01*
X113213542Y-54335395D01*
X113261161Y-54287776D01*
X113308780Y-54192538D01*
X113308780Y-54002061D01*
X113261161Y-53906823D01*
X113213542Y-53859204D01*
X113118304Y-53811585D01*
X112927828Y-53811585D01*
X112832590Y-53859204D01*
X112784971Y-53906823D01*
X112737352Y-54002061D01*
%TO.C,D7*%
X96163780Y-55335395D02*
X95163780Y-55335395D01*
X95163780Y-55097300D01*
X95211400Y-54954442D01*
X95306638Y-54859204D01*
X95401876Y-54811585D01*
X95592352Y-54763966D01*
X95735209Y-54763966D01*
X95925685Y-54811585D01*
X96020923Y-54859204D01*
X96116161Y-54954442D01*
X96163780Y-55097300D01*
X96163780Y-55335395D01*
X95163780Y-54430633D02*
X95163780Y-53763966D01*
X96163780Y-54192538D01*
%TO.C,D6*%
X79158480Y-55335395D02*
X78158480Y-55335395D01*
X78158480Y-55097300D01*
X78206100Y-54954442D01*
X78301338Y-54859204D01*
X78396576Y-54811585D01*
X78587052Y-54763966D01*
X78729909Y-54763966D01*
X78920385Y-54811585D01*
X79015623Y-54859204D01*
X79110861Y-54954442D01*
X79158480Y-55097300D01*
X79158480Y-55335395D01*
X78158480Y-53906823D02*
X78158480Y-54097300D01*
X78206100Y-54192538D01*
X78253719Y-54240157D01*
X78396576Y-54335395D01*
X78587052Y-54383014D01*
X78968004Y-54383014D01*
X79063242Y-54335395D01*
X79110861Y-54287776D01*
X79158480Y-54192538D01*
X79158480Y-54002061D01*
X79110861Y-53906823D01*
X79063242Y-53859204D01*
X78968004Y-53811585D01*
X78729909Y-53811585D01*
X78634671Y-53859204D01*
X78587052Y-53906823D01*
X78539433Y-54002061D01*
X78539433Y-54192538D01*
X78587052Y-54287776D01*
X78634671Y-54335395D01*
X78729909Y-54383014D01*
%TO.C,D5*%
X132611904Y-47733580D02*
X132611904Y-46733580D01*
X132850000Y-46733580D01*
X132992857Y-46781200D01*
X133088095Y-46876438D01*
X133135714Y-46971676D01*
X133183333Y-47162152D01*
X133183333Y-47305009D01*
X133135714Y-47495485D01*
X133088095Y-47590723D01*
X132992857Y-47685961D01*
X132850000Y-47733580D01*
X132611904Y-47733580D01*
X134088095Y-46733580D02*
X133611904Y-46733580D01*
X133564285Y-47209771D01*
X133611904Y-47162152D01*
X133707142Y-47114533D01*
X133945238Y-47114533D01*
X134040476Y-47162152D01*
X134088095Y-47209771D01*
X134135714Y-47305009D01*
X134135714Y-47543104D01*
X134088095Y-47638342D01*
X134040476Y-47685961D01*
X133945238Y-47733580D01*
X133707142Y-47733580D01*
X133611904Y-47685961D01*
X133564285Y-47638342D01*
%TO.C,D4*%
X115441504Y-47746280D02*
X115441504Y-46746280D01*
X115679600Y-46746280D01*
X115822457Y-46793900D01*
X115917695Y-46889138D01*
X115965314Y-46984376D01*
X116012933Y-47174852D01*
X116012933Y-47317709D01*
X115965314Y-47508185D01*
X115917695Y-47603423D01*
X115822457Y-47698661D01*
X115679600Y-47746280D01*
X115441504Y-47746280D01*
X116870076Y-47079614D02*
X116870076Y-47746280D01*
X116631980Y-46698661D02*
X116393885Y-47412947D01*
X117012933Y-47412947D01*
%TO.C,D3*%
X98271104Y-47746280D02*
X98271104Y-46746280D01*
X98509200Y-46746280D01*
X98652057Y-46793900D01*
X98747295Y-46889138D01*
X98794914Y-46984376D01*
X98842533Y-47174852D01*
X98842533Y-47317709D01*
X98794914Y-47508185D01*
X98747295Y-47603423D01*
X98652057Y-47698661D01*
X98509200Y-47746280D01*
X98271104Y-47746280D01*
X99175866Y-46746280D02*
X99794914Y-46746280D01*
X99461580Y-47127233D01*
X99604438Y-47127233D01*
X99699676Y-47174852D01*
X99747295Y-47222471D01*
X99794914Y-47317709D01*
X99794914Y-47555804D01*
X99747295Y-47651042D01*
X99699676Y-47698661D01*
X99604438Y-47746280D01*
X99318723Y-47746280D01*
X99223485Y-47698661D01*
X99175866Y-47651042D01*
%TO.C,D2*%
X81100704Y-47746280D02*
X81100704Y-46746280D01*
X81338800Y-46746280D01*
X81481657Y-46793900D01*
X81576895Y-46889138D01*
X81624514Y-46984376D01*
X81672133Y-47174852D01*
X81672133Y-47317709D01*
X81624514Y-47508185D01*
X81576895Y-47603423D01*
X81481657Y-47698661D01*
X81338800Y-47746280D01*
X81100704Y-47746280D01*
X82053085Y-46841519D02*
X82100704Y-46793900D01*
X82195942Y-46746280D01*
X82434038Y-46746280D01*
X82529276Y-46793900D01*
X82576895Y-46841519D01*
X82624514Y-46936757D01*
X82624514Y-47031995D01*
X82576895Y-47174852D01*
X82005466Y-47746280D01*
X82624514Y-47746280D01*
%TO.C,D1*%
X64400204Y-47746280D02*
X64400204Y-46746280D01*
X64638300Y-46746280D01*
X64781157Y-46793900D01*
X64876395Y-46889138D01*
X64924014Y-46984376D01*
X64971633Y-47174852D01*
X64971633Y-47317709D01*
X64924014Y-47508185D01*
X64876395Y-47603423D01*
X64781157Y-47698661D01*
X64638300Y-47746280D01*
X64400204Y-47746280D01*
X65924014Y-47746280D02*
X65352585Y-47746280D01*
X65638300Y-47746280D02*
X65638300Y-46746280D01*
X65543061Y-46889138D01*
X65447823Y-46984376D01*
X65352585Y-47031995D01*
%TO.C,C13*%
X147616942Y-111659942D02*
X147569323Y-111707561D01*
X147426466Y-111755180D01*
X147331228Y-111755180D01*
X147188371Y-111707561D01*
X147093133Y-111612323D01*
X147045514Y-111517085D01*
X146997895Y-111326609D01*
X146997895Y-111183752D01*
X147045514Y-110993276D01*
X147093133Y-110898038D01*
X147188371Y-110802800D01*
X147331228Y-110755180D01*
X147426466Y-110755180D01*
X147569323Y-110802800D01*
X147616942Y-110850419D01*
X148569323Y-111755180D02*
X147997895Y-111755180D01*
X148283609Y-111755180D02*
X148283609Y-110755180D01*
X148188371Y-110898038D01*
X148093133Y-110993276D01*
X147997895Y-111040895D01*
X148902657Y-110755180D02*
X149521704Y-110755180D01*
X149188371Y-111136133D01*
X149331228Y-111136133D01*
X149426466Y-111183752D01*
X149474085Y-111231371D01*
X149521704Y-111326609D01*
X149521704Y-111564704D01*
X149474085Y-111659942D01*
X149426466Y-111707561D01*
X149331228Y-111755180D01*
X149045514Y-111755180D01*
X148950276Y-111707561D01*
X148902657Y-111659942D01*
%TO.C,C11*%
X75376042Y-102623857D02*
X75423661Y-102671476D01*
X75471280Y-102814333D01*
X75471280Y-102909571D01*
X75423661Y-103052428D01*
X75328423Y-103147666D01*
X75233185Y-103195285D01*
X75042709Y-103242904D01*
X74899852Y-103242904D01*
X74709376Y-103195285D01*
X74614138Y-103147666D01*
X74518900Y-103052428D01*
X74471280Y-102909571D01*
X74471280Y-102814333D01*
X74518900Y-102671476D01*
X74566519Y-102623857D01*
X75471280Y-101671476D02*
X75471280Y-102242904D01*
X75471280Y-101957190D02*
X74471280Y-101957190D01*
X74614138Y-102052428D01*
X74709376Y-102147666D01*
X74756995Y-102242904D01*
X75471280Y-100719095D02*
X75471280Y-101290523D01*
X75471280Y-101004809D02*
X74471280Y-101004809D01*
X74614138Y-101100047D01*
X74709376Y-101195285D01*
X74756995Y-101290523D01*
%TO.C,C10*%
X132723742Y-80570342D02*
X132676123Y-80617961D01*
X132533266Y-80665580D01*
X132438028Y-80665580D01*
X132295171Y-80617961D01*
X132199933Y-80522723D01*
X132152314Y-80427485D01*
X132104695Y-80237009D01*
X132104695Y-80094152D01*
X132152314Y-79903676D01*
X132199933Y-79808438D01*
X132295171Y-79713200D01*
X132438028Y-79665580D01*
X132533266Y-79665580D01*
X132676123Y-79713200D01*
X132723742Y-79760819D01*
X133676123Y-80665580D02*
X133104695Y-80665580D01*
X133390409Y-80665580D02*
X133390409Y-79665580D01*
X133295171Y-79808438D01*
X133199933Y-79903676D01*
X133104695Y-79951295D01*
X134295171Y-79665580D02*
X134390409Y-79665580D01*
X134485647Y-79713200D01*
X134533266Y-79760819D01*
X134580885Y-79856057D01*
X134628504Y-80046533D01*
X134628504Y-80284628D01*
X134580885Y-80475104D01*
X134533266Y-80570342D01*
X134485647Y-80617961D01*
X134390409Y-80665580D01*
X134295171Y-80665580D01*
X134199933Y-80617961D01*
X134152314Y-80570342D01*
X134104695Y-80475104D01*
X134057076Y-80284628D01*
X134057076Y-80046533D01*
X134104695Y-79856057D01*
X134152314Y-79760819D01*
X134199933Y-79713200D01*
X134295171Y-79665580D01*
%TO.C,C9*%
X116080333Y-80570342D02*
X116032714Y-80617961D01*
X115889857Y-80665580D01*
X115794619Y-80665580D01*
X115651761Y-80617961D01*
X115556523Y-80522723D01*
X115508904Y-80427485D01*
X115461285Y-80237009D01*
X115461285Y-80094152D01*
X115508904Y-79903676D01*
X115556523Y-79808438D01*
X115651761Y-79713200D01*
X115794619Y-79665580D01*
X115889857Y-79665580D01*
X116032714Y-79713200D01*
X116080333Y-79760819D01*
X116556523Y-80665580D02*
X116747000Y-80665580D01*
X116842238Y-80617961D01*
X116889857Y-80570342D01*
X116985095Y-80427485D01*
X117032714Y-80237009D01*
X117032714Y-79856057D01*
X116985095Y-79760819D01*
X116937476Y-79713200D01*
X116842238Y-79665580D01*
X116651761Y-79665580D01*
X116556523Y-79713200D01*
X116508904Y-79760819D01*
X116461285Y-79856057D01*
X116461285Y-80094152D01*
X116508904Y-80189390D01*
X116556523Y-80237009D01*
X116651761Y-80284628D01*
X116842238Y-80284628D01*
X116937476Y-80237009D01*
X116985095Y-80189390D01*
X117032714Y-80094152D01*
%TO.C,C8*%
X98833733Y-80570342D02*
X98786114Y-80617961D01*
X98643257Y-80665580D01*
X98548019Y-80665580D01*
X98405161Y-80617961D01*
X98309923Y-80522723D01*
X98262304Y-80427485D01*
X98214685Y-80237009D01*
X98214685Y-80094152D01*
X98262304Y-79903676D01*
X98309923Y-79808438D01*
X98405161Y-79713200D01*
X98548019Y-79665580D01*
X98643257Y-79665580D01*
X98786114Y-79713200D01*
X98833733Y-79760819D01*
X99405161Y-80094152D02*
X99309923Y-80046533D01*
X99262304Y-79998914D01*
X99214685Y-79903676D01*
X99214685Y-79856057D01*
X99262304Y-79760819D01*
X99309923Y-79713200D01*
X99405161Y-79665580D01*
X99595638Y-79665580D01*
X99690876Y-79713200D01*
X99738495Y-79760819D01*
X99786114Y-79856057D01*
X99786114Y-79903676D01*
X99738495Y-79998914D01*
X99690876Y-80046533D01*
X99595638Y-80094152D01*
X99405161Y-80094152D01*
X99309923Y-80141771D01*
X99262304Y-80189390D01*
X99214685Y-80284628D01*
X99214685Y-80475104D01*
X99262304Y-80570342D01*
X99309923Y-80617961D01*
X99405161Y-80665580D01*
X99595638Y-80665580D01*
X99690876Y-80617961D01*
X99738495Y-80570342D01*
X99786114Y-80475104D01*
X99786114Y-80284628D01*
X99738495Y-80189390D01*
X99690876Y-80141771D01*
X99595638Y-80094152D01*
%TO.C,C7*%
X81714133Y-80570342D02*
X81666514Y-80617961D01*
X81523657Y-80665580D01*
X81428419Y-80665580D01*
X81285561Y-80617961D01*
X81190323Y-80522723D01*
X81142704Y-80427485D01*
X81095085Y-80237009D01*
X81095085Y-80094152D01*
X81142704Y-79903676D01*
X81190323Y-79808438D01*
X81285561Y-79713200D01*
X81428419Y-79665580D01*
X81523657Y-79665580D01*
X81666514Y-79713200D01*
X81714133Y-79760819D01*
X82047466Y-79665580D02*
X82714133Y-79665580D01*
X82285561Y-80665580D01*
%TO.C,C6*%
X64708833Y-80570342D02*
X64661214Y-80617961D01*
X64518357Y-80665580D01*
X64423119Y-80665580D01*
X64280261Y-80617961D01*
X64185023Y-80522723D01*
X64137404Y-80427485D01*
X64089785Y-80237009D01*
X64089785Y-80094152D01*
X64137404Y-79903676D01*
X64185023Y-79808438D01*
X64280261Y-79713200D01*
X64423119Y-79665580D01*
X64518357Y-79665580D01*
X64661214Y-79713200D01*
X64708833Y-79760819D01*
X65565976Y-79665580D02*
X65375500Y-79665580D01*
X65280261Y-79713200D01*
X65232642Y-79760819D01*
X65137404Y-79903676D01*
X65089785Y-80094152D01*
X65089785Y-80475104D01*
X65137404Y-80570342D01*
X65185023Y-80617961D01*
X65280261Y-80665580D01*
X65470738Y-80665580D01*
X65565976Y-80617961D01*
X65613595Y-80570342D01*
X65661214Y-80475104D01*
X65661214Y-80237009D01*
X65613595Y-80141771D01*
X65565976Y-80094152D01*
X65470738Y-80046533D01*
X65280261Y-80046533D01*
X65185023Y-80094152D01*
X65137404Y-80141771D01*
X65089785Y-80237009D01*
%TO.C,C5*%
X133225333Y-41530542D02*
X133177714Y-41578161D01*
X133034857Y-41625780D01*
X132939619Y-41625780D01*
X132796761Y-41578161D01*
X132701523Y-41482923D01*
X132653904Y-41387685D01*
X132606285Y-41197209D01*
X132606285Y-41054352D01*
X132653904Y-40863876D01*
X132701523Y-40768638D01*
X132796761Y-40673400D01*
X132939619Y-40625780D01*
X133034857Y-40625780D01*
X133177714Y-40673400D01*
X133225333Y-40721019D01*
X134130095Y-40625780D02*
X133653904Y-40625780D01*
X133606285Y-41101971D01*
X133653904Y-41054352D01*
X133749142Y-41006733D01*
X133987238Y-41006733D01*
X134082476Y-41054352D01*
X134130095Y-41101971D01*
X134177714Y-41197209D01*
X134177714Y-41435304D01*
X134130095Y-41530542D01*
X134082476Y-41578161D01*
X133987238Y-41625780D01*
X133749142Y-41625780D01*
X133653904Y-41578161D01*
X133606285Y-41530542D01*
%TO.C,C4*%
X116105733Y-41530542D02*
X116058114Y-41578161D01*
X115915257Y-41625780D01*
X115820019Y-41625780D01*
X115677161Y-41578161D01*
X115581923Y-41482923D01*
X115534304Y-41387685D01*
X115486685Y-41197209D01*
X115486685Y-41054352D01*
X115534304Y-40863876D01*
X115581923Y-40768638D01*
X115677161Y-40673400D01*
X115820019Y-40625780D01*
X115915257Y-40625780D01*
X116058114Y-40673400D01*
X116105733Y-40721019D01*
X116962876Y-40959114D02*
X116962876Y-41625780D01*
X116724780Y-40578161D02*
X116486685Y-41292447D01*
X117105733Y-41292447D01*
%TO.C,C3*%
X98859133Y-41530542D02*
X98811514Y-41578161D01*
X98668657Y-41625780D01*
X98573419Y-41625780D01*
X98430561Y-41578161D01*
X98335323Y-41482923D01*
X98287704Y-41387685D01*
X98240085Y-41197209D01*
X98240085Y-41054352D01*
X98287704Y-40863876D01*
X98335323Y-40768638D01*
X98430561Y-40673400D01*
X98573419Y-40625780D01*
X98668657Y-40625780D01*
X98811514Y-40673400D01*
X98859133Y-40721019D01*
X99192466Y-40625780D02*
X99811514Y-40625780D01*
X99478180Y-41006733D01*
X99621038Y-41006733D01*
X99716276Y-41054352D01*
X99763895Y-41101971D01*
X99811514Y-41197209D01*
X99811514Y-41435304D01*
X99763895Y-41530542D01*
X99716276Y-41578161D01*
X99621038Y-41625780D01*
X99335323Y-41625780D01*
X99240085Y-41578161D01*
X99192466Y-41530542D01*
%TO.C,C2*%
X81739533Y-41530542D02*
X81691914Y-41578161D01*
X81549057Y-41625780D01*
X81453819Y-41625780D01*
X81310961Y-41578161D01*
X81215723Y-41482923D01*
X81168104Y-41387685D01*
X81120485Y-41197209D01*
X81120485Y-41054352D01*
X81168104Y-40863876D01*
X81215723Y-40768638D01*
X81310961Y-40673400D01*
X81453819Y-40625780D01*
X81549057Y-40625780D01*
X81691914Y-40673400D01*
X81739533Y-40721019D01*
X82120485Y-40721019D02*
X82168104Y-40673400D01*
X82263342Y-40625780D01*
X82501438Y-40625780D01*
X82596676Y-40673400D01*
X82644295Y-40721019D01*
X82691914Y-40816257D01*
X82691914Y-40911495D01*
X82644295Y-41054352D01*
X82072866Y-41625780D01*
X82691914Y-41625780D01*
%TO.C,C1*%
X64734233Y-41530542D02*
X64686614Y-41578161D01*
X64543757Y-41625780D01*
X64448519Y-41625780D01*
X64305661Y-41578161D01*
X64210423Y-41482923D01*
X64162804Y-41387685D01*
X64115185Y-41197209D01*
X64115185Y-41054352D01*
X64162804Y-40863876D01*
X64210423Y-40768638D01*
X64305661Y-40673400D01*
X64448519Y-40625780D01*
X64543757Y-40625780D01*
X64686614Y-40673400D01*
X64734233Y-40721019D01*
X65686614Y-41625780D02*
X65115185Y-41625780D01*
X65400900Y-41625780D02*
X65400900Y-40625780D01*
X65305661Y-40768638D01*
X65210423Y-40863876D01*
X65115185Y-40911495D01*
%TD*%
M02*
